<svg viewBox="0 0 407 249" fill="none" xmlns="http://www.w3.org/2000/svg">
<path d="M293.844 56.4414C293.844 56.4414 306.816 40.823 331.671 50.7757C356.535 60.7285 380.87 101.578 358.248 151.012" stroke="#274D79" stroke-width="0.782" stroke-miterlimit="10"/>
<path d="M296.38 67.329C295.244 70.2468 283.938 65.8559 285.073 62.9381L286.653 58.8777C287.864 55.7615 291.384 54.2223 294.506 55.431C297.628 56.6397 299.171 60.1525 297.96 63.2686L296.38 67.329Z" fill="#03AA99"/>
<path d="M285.073 62.9382C283.786 65.79 295.235 70.247 296.38 67.3291C297.241 65.0723 286 60.8797 285.073 62.9382Z" fill="#3B55CE"/>
<path d="M289.54 65.1289C289.417 65.4972 288.878 65.6388 288.328 65.4594C287.779 65.28 287.438 64.8362 287.561 64.4679C287.685 64.0996 288.224 63.958 288.773 64.1374C289.322 64.3168 289.663 64.7606 289.54 65.1289Z" fill="#000E5B"/>
<path d="M293.552 66.6114C293.429 66.9796 292.889 67.1213 292.34 66.9419C291.791 66.7625 291.45 66.3186 291.573 65.9504C291.696 65.5821 292.236 65.4405 292.785 65.6199C293.334 65.7993 293.675 66.2431 293.552 66.6114Z" fill="#000E5B"/>
<path d="M356.45 209.132C356.45 209.132 351.559 207.791 348.38 203.325C345.191 198.859 346.894 188.207 352.42 185.157C357.945 182.107 362.193 178.5 361.342 170.228C360.49 161.956 363.253 155.384 370.264 154.534C377.275 153.684 380.038 153.58 387.049 147.272C394.059 140.964 399.803 139.963 402.565 143.533C405.328 147.112 403.199 151.937 401.714 156.205C400.228 160.473 405.536 164.826 406.605 169.114C407.665 173.41 406.814 178.944 401.288 182.003C395.763 185.062 391.94 187.518 392.574 193.079C393.208 198.641 390.019 207.083 378.126 209.123H356.45V209.132Z" fill="#3DC19A"/>
<path d="M393.643 152.466C393.643 152.466 367.757 172.74 363.168 209.132" stroke="#3B55CE" stroke-width="1.575" stroke-miterlimit="10" stroke-linecap="round"/>
<path d="M332.229 137.348C328.151 139.907 328.407 144.345 328.615 149.973C328.823 155.601 327.214 157.65 323.979 161.399C320.752 165.148 322.493 170.87 328.104 173.419C333.714 175.969 338.606 179.897 335.626 186.517C332.655 193.136 333.714 205.195 348.38 209.132L367.236 209.18C367.236 209.18 380.473 201.484 382.166 187.452C383.869 173.42 372.601 172.173 369.412 167.499C366.224 162.815 367.17 156.432 367.227 149.973C367.284 143.514 362.401 140.247 355.807 140.606C349.222 140.964 346.648 140.596 343.252 138.273C339.855 135.95 335.626 135.214 332.229 137.348Z" fill="#91DBAC"/>
<path d="M338.786 145.676C338.824 145.865 361.72 161.389 360.594 209.057" stroke="#3B55CE" stroke-width="1.575" stroke-miterlimit="10" stroke-linecap="round"/>
<path d="M391.713 211.89H1.48541C0.662263 211.89 -3.05176e-05 211.219 -3.05176e-05 210.398C-3.05176e-05 209.576 0.671724 208.915 1.48541 208.915H391.713C392.536 208.915 393.208 209.586 393.208 210.398C393.208 211.219 392.536 211.89 391.713 211.89Z" fill="#638BE2"/>
<path d="M337.868 249H96.5445C80.0154 249 66.6085 235.629 66.6085 219.123V211.88H367.795V219.123C367.804 235.629 354.397 249 337.868 249Z" fill="#E5F7FF"/>
<path d="M195.852 196.262C199.04 198.821 208.142 209.104 242.904 209.104C252.601 209.104 263.075 209.51 271.581 207.206C293.57 201.247 307.97 193.268 307.97 193.268L265.431 178.821L227.302 179.038L195.852 196.262Z" fill="#1E4174"/>
<path d="M225.116 190.199L208.483 193.363L209.079 202.4L227.727 201.937L225.116 190.199Z" fill="#F6B69E"/>
<path d="M225.116 190.199C225.116 190.199 265.431 178.821 277.968 175.639C292.321 171.994 314.101 162.116 321.433 171.276C328.776 180.435 319.816 192.636 299.965 197.99C280.106 203.334 225.769 202.815 225.769 202.815L225.116 190.199Z" fill="#1E4174"/>
<path d="M192.834 187.829C192.834 187.829 192.181 189.907 192.285 194.307C192.389 198.707 194.622 202.05 194.849 208.471C194.849 208.471 197.347 204.373 197.224 197.716C197.11 191.059 192.834 187.829 192.834 187.829Z" fill="#8FC9C6"/>
<path d="M216.951 202.598C214.349 202.872 209.987 204.902 207.319 206.318C204.651 207.725 203.222 209.208 198.454 209.17C198.454 209.17 198.435 196.592 197.924 192.702C197.413 188.811 196.628 188.141 196.628 188.141C196.628 188.141 201.046 188.424 203.241 189.595C205.436 190.766 205.682 191.304 209.552 191.455C213.422 191.606 215.011 191.814 216.705 191.786C219.269 195.808 218.247 200.681 216.951 202.598Z" fill="#03AA99"/>
<path d="M205.673 204.09C205.673 204.09 207.15 197.565 204.982 193.098" stroke="#AAEEED" stroke-width="0.9245" stroke-miterlimit="10" stroke-linecap="round"/>
<path d="M208.408 203.325C208.408 203.325 209.847 198.358 207.735 193.608" stroke="#AAEEED" stroke-width="0.9245" stroke-miterlimit="10" stroke-linecap="round"/>
<path d="M211.482 202.097C211.482 202.097 212.779 198.783 211.056 193.882" stroke="#AAEEED" stroke-width="0.9245" stroke-miterlimit="10" stroke-linecap="round"/>
<path d="M198.454 209.17C196.95 209.142 195.105 209.104 194.849 208.471C194.594 207.839 196.354 204.09 195.653 196.649C195.275 192.655 192.465 187.961 192.834 187.829C193.203 187.697 195.398 186.876 196.628 188.15C197.858 189.425 204.084 197.584 198.454 209.17Z" fill="#AAEEED"/>
<path d="M298.376 107.065C303.617 103.363 314.924 94.751 320.866 76.2525C322.749 70.3791 322.919 66.3564 322.872 63.6652C319.806 61.0873 320.128 56.2148 317.327 53.1931C313.391 48.9438 309.872 43.5425 317.564 43.5425C321.85 43.5425 325.795 43.7125 327.905 45.7521C329.58 47.3668 332.74 52.1449 333.317 53.8069C334.632 57.5651 333.109 62.3054 332.938 68.0278C332.778 73.7501 329.003 109.567 301.318 124.609L298.376 107.065Z" fill="#F6B69E"/>
<path d="M238.362 93.5707C238.362 93.5707 238.239 98.1504 237.842 100.048C237.444 101.937 237.842 102.938 232.051 103.929C232.051 103.929 234.407 111.503 244.436 112.796C254.465 114.09 258.562 106.224 258.259 106.224C257.957 106.224 255.166 105.081 254.267 104.496C253.368 103.92 254.03 92.8719 254.03 92.8719L238.362 93.5707Z" fill="#F6B69E"/>
<path d="M253.898 95.6671C253.898 95.6671 252.668 99.5481 246.584 99.9447C240.491 100.341 238.23 96.5075 238.23 96.5075L238.372 93.5613L254.04 92.8625L253.898 95.6671Z" fill="#F29680"/>
<path d="M228.787 76.9325C228.787 76.9325 225.636 76.4414 224.255 78.7549C222.874 81.0684 224.605 85.3838 227.879 86.1015C231.02 86.7908 232.051 85.0344 232.051 85.0344L228.787 76.9325Z" fill="#F6B69E"/>
<path d="M226.035 79.246C226.754 78.8682 227.898 78.7644 228.608 79.1893C228.873 79.3498 228.513 79.7937 228.277 79.737C226.924 79.4348 225.344 79.5765 224.909 81.1629C224.89 81.2478 224.814 81.1723 224.823 81.1156C224.88 80.2658 225.259 79.6426 226.035 79.246Z" fill="#F29680"/>
<path d="M226.65 79.2837C226.783 79.1987 227.161 79.5103 227.142 79.6142C226.944 79.7369 226.641 80.0202 226.527 80.3224C226.319 80.8418 226.3 81.2667 226.414 81.8144C226.688 83.0797 227.531 83.9012 228.827 84.024C228.855 84.024 228.893 84.0901 228.865 84.0995C227.814 84.515 226.423 83.5613 226.045 82.617C225.619 81.5783 225.486 80.0391 226.65 79.2837Z" fill="#F29680"/>
<path d="M259.225 71.1062C259.225 71.1062 261.968 69.482 264.107 71.1157C266.245 72.7493 266.245 77.4046 263.473 79.2837C260.814 81.0873 259.206 79.8314 259.206 79.8314L259.225 71.1062Z" fill="#F6B69E"/>
<path d="M262.641 72.2299C261.837 72.1544 260.73 72.466 260.228 73.127C260.039 73.3725 260.54 73.6558 260.739 73.5142C261.884 72.7304 263.407 72.2772 264.391 73.5992C264.448 73.6653 264.476 73.5708 264.457 73.5236C264.098 72.7493 263.502 72.3149 262.641 72.2299Z" fill="#F29680"/>
<path d="M262.083 72.4943C261.922 72.4659 261.695 72.8909 261.752 72.9759C261.979 73.0231 262.367 73.1742 262.594 73.4102C262.982 73.8163 263.162 74.2034 263.247 74.7606C263.465 76.0353 262.982 77.1118 261.827 77.7067C261.808 77.7162 261.789 77.7917 261.827 77.7917C262.963 77.7917 263.891 76.3847 263.901 75.3743C263.901 74.2412 263.446 72.7587 262.083 72.4943Z" fill="#F29680"/>
<path d="M247.946 55.8749C245.505 55.0344 242.894 54.77 240.387 55.2516C237.879 55.7332 235.41 56.8475 233.451 58.5283C228.882 62.4471 227.112 68.651 228.229 74.4678C228.229 74.4773 228.229 74.4867 228.238 74.4961C228.56 76.1581 228.976 77.8011 229.487 79.4159L230.206 81.6727C230.764 83.4385 232.032 86.8191 234.048 89.9069C238.05 96.0353 244.559 97.0362 248.296 96.3186C252.043 95.6009 257.711 92.2581 259.149 85.091C259.877 81.4744 259.802 77.8767 259.66 76.0259L259.489 73.6652C259.366 71.9749 259.139 70.2941 258.818 68.6321C258.818 68.6227 258.818 68.6132 258.808 68.6038C257.692 62.7965 253.652 57.8295 247.946 55.8749Z" fill="#F6B69E"/>
<path d="M250.198 73.2686C250.028 72.3904 250.605 71.5311 251.495 71.3611C252.375 71.1912 253.236 71.7672 253.407 72.6548C253.577 73.533 253 74.3923 252.11 74.5623C251.23 74.7322 250.369 74.1562 250.198 73.2686Z" fill="#0E1F3D"/>
<path d="M250.596 67.3763L258.269 68.8305C258.269 68.8305 257.72 66.7247 254.995 65.6199C253.803 65.1383 252.46 65.1855 251.646 65.6294C250.463 66.2809 250.596 67.3763 250.596 67.3763Z" fill="#0E1F3D"/>
<path d="M237.416 69.7087L231.805 75.1289C231.805 75.1289 231.105 73.0703 232.78 70.653C233.508 69.5954 234.653 68.8966 235.59 68.8305C236.924 68.7266 237.416 69.7087 237.416 69.7087Z" fill="#0E1F3D"/>
<path d="M239.962 75.4593C239.792 74.5812 238.94 73.9957 238.05 74.1657C237.17 74.3356 236.583 75.1855 236.754 76.0731C236.924 76.9513 237.776 77.5368 238.665 77.3668C239.555 77.1968 240.132 76.347 239.962 75.4593Z" fill="#0E1F3D"/>
<path d="M245.628 73.8635C244.89 74.0618 244.351 81.6161 245.373 82.6926C245.799 83.1364 246.858 83.4574 247.445 83.2875C248.05 83.2308 248.911 82.5415 249.148 81.9655C249.697 80.5963 246.385 73.7691 245.628 73.8635Z" fill="#F29680"/>
<path d="M220.158 60.2658C220.158 60.2658 225.986 59.1327 228.2 62.1166" stroke="#0E1F3D" stroke-width="1.7149" stroke-miterlimit="10" stroke-linecap="round"/>
<path d="M219.988 54.5435C219.988 54.5435 227.216 55.7616 228.304 62.6549" stroke="#0E1F3D" stroke-width="1.7149" stroke-miterlimit="10" stroke-linecap="round"/>
<path d="M230.623 62.126C230.623 62.126 234.701 68.245 241.4 70.058C248.099 71.871 251.883 64.1279 251.202 60.6057C251.202 60.6057 257.749 71.125 259.225 71.0967C259.225 71.0967 260.824 66.8569 260.304 62.1166C259.783 57.3763 257.532 55.0155 255.109 53.2686C252.801 51.6067 250.549 52.6076 249.622 53.212C248.401 50.9174 244.815 46.0732 237.748 46.8664C229.838 47.754 226.772 53.2025 227.917 61.5122C227.917 61.5122 224.946 60.6718 223.168 64.1185C221.389 67.5556 223.366 74.2317 225.732 77.4045C225.732 77.4045 227.794 76.753 228.778 76.9418C228.778 76.9418 227.387 71.4461 228.693 66.6208C229.762 62.6926 230.623 62.126 230.623 62.126Z" fill="#0E1F3D"/>
<path d="M234.53 103.41C235.24 106.262 239.28 110.785 245.155 111.059C251.031 111.333 255.885 107.395 256.679 105.658C261.58 106.111 267.816 107.442 269.907 107.82C272.868 108.358 275.744 110.993 274.685 119.321C273.653 127.404 267.229 178.49 267.229 178.49C267.229 178.49 250.246 185.072 227.292 179.038C227.292 179.038 213.403 123.59 212.163 118.793C210.924 113.996 209.42 108.925 213.81 107.414C218.219 105.913 234.53 103.41 234.53 103.41Z" fill="#00BDD3"/>
<path d="M253.491 162.4C253.813 162.466 254.144 162.513 254.465 162.541C257.701 162.881 256.225 159.227 255.213 157.792C253.661 155.591 242.894 147.272 242.894 147.272L234.53 147.98L225.107 151.852L221.237 154.855C222.022 157.98 222.779 161.002 223.479 163.807C226.999 161.606 235.524 156.385 237.406 156.205C238.589 156.092 239.658 156.507 240.718 156.961C242.251 157.622 243.793 158.216 245.363 158.792C246.073 159.047 246.792 159.312 247.473 159.642C248.703 160.237 249.82 161.049 251.069 161.625C251.845 161.984 252.658 162.239 253.491 162.4Z" fill="#03AA99"/>
<path d="M289.643 144.921L295.736 147.82" stroke="#274D79" stroke-width="2.1" stroke-miterlimit="10" stroke-linecap="round"/>
<path d="M287.06 149.963L293.163 152.872" stroke="#274D79" stroke-width="2.1" stroke-miterlimit="10" stroke-linecap="round"/>
<path d="M201.954 171.276C209.968 172.447 224.179 172.73 236.725 161.389C246.83 152.258 256.055 134.836 279.529 142.494" stroke="#274D79" stroke-width="0.782" stroke-miterlimit="10"/>
<path d="M290.58 141.625C293.352 143.089 287.675 153.788 284.903 152.324L281.043 150.284C278.081 148.717 276.955 145.063 278.516 142.107C280.087 139.151 283.749 138.028 286.71 139.586L290.58 141.625Z" fill="#03AA99"/>
<path d="M207.612 115.799C207.612 115.799 188.623 150.058 185.17 155.837C181.716 161.616 182.426 168.103 183.136 169.727C183.845 171.351 193.695 172.466 202.74 169.019C211.775 165.572 235.05 153.769 236.782 152.862C236.782 152.862 238.996 154.317 241.219 155.365C244.323 156.828 246.839 156.894 248.855 158.415C250.87 159.935 253.075 162.834 256.963 160.955C259.281 159.841 254.144 152.655 251.845 148.679C249.593 146.762 241.569 143.438 237.548 144.014C231.862 144.827 203.27 154.534 203.27 154.534L213.63 136.696L207.612 115.799Z" fill="#F6B69E"/>
<path d="M214.803 107.102C210.139 108.566 208.341 110.842 203.78 119.123C199.22 127.404 193.184 137.47 193.184 137.47C193.184 137.47 198.085 145.1 208.89 147.272L216.222 134.902L214.803 107.102Z" fill="#00BDD3"/>
<path d="M269.906 107.829C275.489 108.736 289.681 112.891 298.366 107.065C298.366 107.065 304.1 115.79 303.116 126.743C303.116 126.743 291.346 137.216 272.953 133.013L269.906 107.829Z" fill="#00BDD3"/>
<path d="M271.572 192.787L287.902 197.263L286.578 206.224L268.033 204.279L271.572 192.787Z" fill="#F6B69E"/>
<path d="M271.572 192.787C271.572 192.787 234.057 179.878 220.149 174.789C206.24 169.699 185.86 159.529 177.809 168.075C169.757 176.621 176.484 189.34 195.852 196.262C215.219 203.183 269.906 205.308 269.906 205.308C271.591 201.248 272.13 197.074 271.572 192.787Z" fill="#85B8ED"/>
<path d="M303.939 193.004C303.939 193.004 304.422 195.128 303.968 199.51C303.513 203.891 301.016 207.036 300.278 213.419C300.278 213.419 298.12 209.132 298.773 202.513C299.417 195.884 303.939 193.004 303.939 193.004Z" fill="#8FC9C6"/>
<path d="M278.715 205.799C281.289 206.281 285.471 208.651 288.016 210.275C290.561 211.899 291.866 213.485 296.626 213.825C296.626 213.825 297.657 201.295 298.471 197.452C299.294 193.618 300.126 193.013 300.126 193.013C300.126 193.013 295.708 192.938 293.418 193.939C291.138 194.93 290.845 195.45 286.975 195.289C283.105 195.129 281.506 195.214 279.822 195.044C276.946 198.84 277.57 203.778 278.715 205.799Z" fill="#03AA99"/>
<path d="M289.832 208.178C289.832 208.178 288.876 201.55 291.404 197.272" stroke="#AAEEED" stroke-width="0.9245" stroke-miterlimit="10" stroke-linecap="round"/>
<path d="M287.174 207.206C287.174 207.206 286.142 202.145 288.622 197.574" stroke="#AAEEED" stroke-width="0.9245" stroke-miterlimit="10" stroke-linecap="round"/>
<path d="M284.203 205.733C284.203 205.733 283.171 202.324 285.292 197.574" stroke="#AAEEED" stroke-width="0.9245" stroke-miterlimit="10" stroke-linecap="round"/>
<path d="M296.626 213.825C298.13 213.92 299.975 214.024 300.278 213.419C300.581 212.815 299.123 208.934 300.42 201.569C301.12 197.612 304.289 193.164 303.939 193.004C303.589 192.843 301.46 191.842 300.126 193.023C298.802 194.194 291.942 201.824 296.626 213.825Z" fill="#AAEEED"/>
<path d="M271.524 199.501H270.682C270.682 199.501 246.234 197.914 220.045 193.608C194.319 189.378 176.929 180.738 174.601 174.392C173.457 182.069 180.865 190.908 195.852 196.252C215.219 203.174 269.916 205.299 269.916 205.299C270.616 203.618 271.184 201.72 271.524 199.501Z" fill="#4E7EAC"/>
<path d="M266.719 190.587C266.691 193.967 265.99 201.559 264.504 206.224" stroke="#274D79" stroke-width="0.782" stroke-miterlimit="10"/>
<path d="M216.232 134.902C216.232 134.902 219.147 127.187 217.159 115.799C217.159 115.799 220.812 129.69 216.847 137.338L216.232 134.902Z" fill="#03AA99"/>
<path d="M272.954 133.013C272.954 133.013 274.023 124.241 272.111 116.054C272.111 116.054 274.431 120.757 274.307 133.297L272.954 133.013Z" fill="#03AA99"/>
<path d="M156.331 178.028C159.728 177.348 165.679 176.743 169.899 180.436C172.596 182.796 171.318 183.202 168.906 183.155C164.847 183.08 161.611 186.488 161.611 186.488C161.611 186.488 156.331 187.093 155.035 182.9C153.152 176.828 156.331 178.028 156.331 178.028Z" fill="#E8C047"/>
<path d="M143.416 208.896H169.502C175.453 209.028 179.521 208.575 182.445 205.988C185.842 202.985 186.428 197.64 185.889 193.552C185.255 191.909 181.65 193.127 177.203 192.371C173.173 191.691 170.836 189.878 168.537 186.809C166.247 183.759 165.017 182.541 160.485 180.332C157.997 179.123 155.981 179.246 155.981 179.246C155.981 179.246 157.58 175.752 160.012 173.514C162.945 170.813 157.713 169.737 151.761 172.409C148.223 173.995 144.514 177.093 141.912 180.058C140.218 181.975 135.809 181.691 131.022 178.018C126.234 174.345 109.45 159.123 91.0663 161.682C72.6827 164.241 59.9192 179.265 58.0459 190.067C56.1725 200.87 59.7773 206.998 62.8996 208.915L143.416 208.896Z" fill="#F4E041"/>
<path d="M59.5976 190.152C54.4789 187.385 41.4032 187.206 31.5444 195.044C21.9316 202.683 17.9294 218.632 25.8486 230.653C33.7678 242.683 49.4265 243.06 51.4513 241.361C53.476 239.661 43.0968 233.514 40.2868 225.676C40.2868 225.676 45.8974 229.236 49.0954 229.576C52.2933 229.916 44.2132 221.672 43.3712 212.928C42.5291 204.194 46.853 194.6 57.4876 195.025L59.5976 190.152Z" fill="#F4E041"/>
<path d="M185.595 199.387C185.018 199.501 185.236 196.347 184.536 196.649C183.845 196.951 184.962 198.566 184.962 198.566C182.984 198.084 180.202 195.251 181.319 193.504C182.464 191.701 185.662 192.522 186.419 192.834C187.563 193.306 188.358 197.112 185.595 199.387Z" fill="#0E1F3D"/>
<path d="M87.8968 175.459C87.8968 175.459 94.9456 176.035 97.6515 183.646C100.348 191.257 97.3488 195.827 95.1253 198.282C95.1253 198.282 105.126 197.329 109.573 200.265C114.02 203.202 113.622 208.906 113.622 208.906L116.045 208.915C116.045 208.915 116.149 201.927 111.465 199C106.782 196.063 102.827 195.705 100.206 195.884C100.206 195.884 102.959 189.954 99.8088 182.985C96.6581 176.026 90.669 175.062 87.8968 175.459Z" fill="#E8C047"/>
<path d="M124.702 197.876C124.702 197.876 135.119 196.724 139.528 200.039C143.937 203.363 143.416 208.896 143.416 208.896L145.886 208.915C145.886 208.915 146.539 202.994 142.054 199.387C137.569 195.78 127.663 196.866 124.702 197.876Z" fill="#E8C047"/>
<path d="M154.638 193.07C154.638 193.07 154.203 190.483 157.277 189.803C160.589 189.066 161.478 191.54 161.478 191.54C161.478 191.54 159.804 190.898 157.599 191.436C155.972 191.833 154.638 193.07 154.638 193.07Z" fill="#0E1F3D"/>
<path d="M167.155 20.9553L187.251 41.739L180.515 49.3216L158.233 30.993L167.155 20.9553ZM193.865 46.9986C194.47 47.5274 194.925 48.1412 195.237 48.84C195.549 49.5293 195.729 50.247 195.776 50.9835C195.823 51.7201 195.729 52.4472 195.492 53.1648C195.256 53.8825 194.877 54.534 194.357 55.1195C193.827 55.7238 193.212 56.1771 192.521 56.4981C191.831 56.8192 191.121 56.9986 190.392 57.0458C189.654 57.093 188.926 56.9986 188.207 56.7625C187.488 56.5265 186.826 56.1488 186.22 55.6105C185.633 55.0912 185.17 54.4774 184.839 53.788C184.507 53.0893 184.318 52.3716 184.271 51.6445C184.224 50.908 184.318 50.1809 184.545 49.4538C184.772 48.7267 185.151 48.0657 185.69 47.4613C186.211 46.8759 186.816 46.4226 187.516 46.111C188.207 45.7994 188.926 45.62 189.664 45.5728C190.402 45.5255 191.14 45.6294 191.878 45.8655C192.616 46.1016 193.278 46.4793 193.865 46.9986Z" fill="#EA5924"/>
<path d="M208.833 28.0657L199.835 30.3037C199.239 28.4529 198.955 26.857 198.974 25.5067C198.993 24.1564 199.192 22.9855 199.551 22.0034C199.92 21.0213 200.393 20.1715 200.98 19.4727C201.567 18.7739 202.153 18.1413 202.74 17.5936C203.326 17.0459 203.837 16.5265 204.272 16.045C204.708 15.5634 204.954 15.0251 205.02 14.4491C205.067 14.0997 205.01 13.722 204.85 13.316C204.689 12.9099 204.414 12.5606 204.008 12.2678C203.601 11.9751 203.061 11.7768 202.39 11.6729C201.718 11.569 200.885 11.6351 199.911 11.8807C199.277 12.0412 198.529 12.2867 197.678 12.6172C196.826 12.9477 195.956 13.3537 195.057 13.8353C194.158 14.3169 193.288 14.8363 192.446 15.4217C191.604 15.9977 190.866 16.6021 190.232 17.2253L186.457 7.10258C187.015 6.54546 187.658 5.96 188.377 5.33677C189.096 4.71354 189.91 4.11864 190.828 3.54263C191.736 2.96661 192.758 2.42837 193.874 1.9279C194.991 1.42743 196.221 1.0025 197.574 0.671999C199.759 0.124314 201.898 -0.0834217 203.989 0.0298925C206.08 0.15265 208 0.6059 209.751 1.41799C211.501 2.22063 213.015 3.37266 214.292 4.87407C215.569 6.36604 216.487 8.22628 217.045 10.4359C217.462 12.1167 217.566 13.5237 217.339 14.6663C217.112 15.7994 216.714 16.7909 216.128 17.6314C215.551 18.4718 214.85 19.2272 214.037 19.8976C213.223 20.5681 212.447 21.2763 211.7 22.0223C210.952 22.7588 210.309 23.6087 209.76 24.553C209.211 25.5067 208.899 26.6776 208.833 28.0657ZM211.917 34.7418C212.116 35.5256 212.144 36.281 212.012 37.0364C211.879 37.7824 211.624 38.4717 211.246 39.1044C210.867 39.7371 210.375 40.2847 209.779 40.738C209.173 41.2007 208.492 41.5218 207.735 41.7106C206.95 41.9089 206.193 41.9372 205.446 41.8145C204.698 41.6917 204.008 41.4368 203.374 41.0591C202.74 40.6813 202.2 40.1903 201.737 39.5954C201.273 38.9911 200.952 38.3112 200.753 37.5274C200.564 36.7626 200.526 36.0071 200.649 35.2423C200.772 34.4774 201.018 33.7786 201.396 33.1554C201.775 32.5227 202.267 31.975 202.863 31.5029C203.459 31.0308 204.149 30.7003 204.935 30.5114C205.701 30.3225 206.449 30.2942 207.206 30.4264C207.953 30.5586 208.644 30.8136 209.278 31.1913C209.911 31.569 210.46 32.0695 210.933 32.6833C211.397 33.297 211.728 33.9864 211.917 34.7418Z" fill="#EA5924"/>
</svg>
