<?xml version="1.0" encoding="utf-8"?>
<!-- Generator: Adobe Illustrator 25.2.0, SVG Export Plug-In . SVG Version: 6.00 Build 0)  -->
<svg version="1.1" id="Layer_1" xmlns="http://www.w3.org/2000/svg" xmlns:xlink="http://www.w3.org/1999/xlink" x="0px" y="0px"
	 viewBox="0 0 825 177" style="enable-background:new 0 0 825 177;" xml:space="preserve">
<style type="text/css">
	.st0{fill:#C4C4C4;filter:url(#Adobe_OpacityMaskFilter);}
	.st1{mask:url(#mask0_1_);}
	.st2{fill:#F0EDED;}
</style>
<defs>
	<filter id="Adobe_OpacityMaskFilter" filterUnits="userSpaceOnUse" x="2.5" y="29.7" width="821.7" height="162.9">
		<feColorMatrix  type="matrix" values="1 0 0 0 0  0 1 0 0 0  0 0 1 0 0  0 0 0 1 0"/>
	</filter>
</defs>
<mask maskUnits="userSpaceOnUse" x="2.5" y="29.7" width="821.7" height="162.9" id="mask0_1_">
	<rect y="0" class="st0" width="972" height="177"/>
</mask>
<g class="st1">
	<path class="st2" d="M409.6,45.1c-2.5,0.4-4.7,2.9-5.6,6.3c-0.7,2.7,0,5.9,1.5,7c0.9,0.6,2.2,0.8,3.3,0.4c1.1-0.4,2.5-1.5,3.3-2.6
		c2.3-3.4,2.6-7.5,0.7-9.9C411.9,45.2,410.9,44.8,409.6,45.1z"/>
	<path class="st2" d="M419.8,53.2c-2.2,0.4-4.5,2.1-6,4.3c-0.7,1-1,1.9-1.1,3.2c-0.1,1.1-0.1,1.3,0.2,2.2c0.6,1.8,1.4,2.4,3.4,2.5
		c1,0.1,1.3,0,2.4-0.3c1-0.3,1.5-0.6,2.5-1.5c1.3-1,2-1.9,2.9-3.6c0.5-1,0.8-2.8,0.6-3.9c-0.2-1.1-1.1-2.3-1.9-2.6
		C421.9,53.2,420.7,53,419.8,53.2z"/>
	<path class="st2" d="M396.1,49.9c-1.4,0.3-2.9,1.9-3.8,4.1c-0.4,1-0.7,3.1-0.6,4.1c0.2,1.9,1.3,4.1,2.4,4.7
		c1.2,0.7,2.9,0.4,4.1-0.7c1.4-1.3,2.3-3.1,2.6-5.2c0.5-3.7-1-6.7-3.4-7C397,49.8,396.4,49.8,396.1,49.9z"/>
	<path class="st2" d="M401.3,64.2c-1.9,0-4.2,0.7-6.6,1.9c-2.7,1.4-5.2,3.4-5.8,4.6c-0.8,1.9-0.3,3.9,1.3,5.1c0.8,0.6,1.9,1,3.8,1.6
		c1.9,0.6,3,1,3.9,1.5c1.5,0.9,2.2,1.7,3.8,4.4c0.7,1.2,1.5,2.3,1.7,2.6c1.4,1.4,3.4,1.7,4.6,0.8c1.5-1.1,2.4-3.8,2.6-7.6
		c0.2-4.1,0-6.3-0.8-8.8c-0.6-1.9-1.5-3.2-2.9-4.3C405.6,65,403.2,64.2,401.3,64.2z"/>
	<path class="st2" d="M420.1,67.5c-1.4,0.2-2.8,0.8-4.2,1.9c-1.7,1.4-2.5,2.5-2.8,4.1c-0.3,1.4-0.2,2.2,0.4,3.1
		c0.4,0.6,0.7,0.8,1.2,1.1c2.9,1.5,7-0.1,9.2-3.4c0.7-1,0.7-1.1,0.9-2.4c0.2-1.2,0.1-1.4-0.1-2.1c-0.2-0.4-0.5-1-0.7-1.2
		C423.1,67.8,421.6,67.4,420.1,67.5z"/>
	<path class="st2" d="M429.9,114.8c-0.9-0.8-1.5-1.1-2.8-1.3c-1.3-0.2-3,0-4.5,0.5c-1.2,0.5-3.2,1.9-3.8,2.8
		c-0.9,1.3-1.4,2.8-1.2,3.8c0.2,1,0.9,2,1.9,2.6c3.3,1.9,8.9,0.1,10.8-3.5C431.4,117.7,431.2,116.1,429.9,114.8z"/>
	<path class="st2" d="M431.5,128.3c-2.1-2.1-6.3-2.9-9.2-1.6c-1.1,0.5-2.3,1.5-2.8,2.4c-0.6,1-0.7,2.3-0.3,3.2
		c1.3,3.1,5.7,4.6,9.8,3.5c1.9-0.5,3.4-1.9,3.9-3.6C433.1,131.1,432.5,129.4,431.5,128.3z"/>
	<path class="st2" d="M417.2,107.8c-2.2-1.7-6.4-0.8-8.8,1.9c-1.4,1.5-2.1,3.6-1.9,5c0.1,0.6,0.2,0.8,0.7,1.4
		c0.7,0.9,1.4,1.3,2.4,1.4c1.8,0.3,3.5-0.2,5.3-1.4c1.8-1.2,2.9-2.7,3.4-4.6C418.7,110.4,418.1,108.4,417.2,107.8z"/>
	<path class="st2" d="M410,120.9c-2-1.9-5.9-3.7-9.4-4.2c-2.2-0.4-3-0.3-4,0.4c-1.3,0.9-1.9,2-1.8,3.6c0.1,1.2,0.5,2.3,1.5,4.4
		c2.1,4.1,2.2,5.5,1.1,9.9c-0.6,2.5-0.7,3.1-0.5,4.1c0.5,2.8,2.5,3.8,5.4,2.7c1.1-0.4,2.9-1.7,4.6-3.2c2.8-2.5,4.1-4,5.3-6.3
		c1.1-2.2,1.3-4.6,0.5-7C412.4,124,411,121.8,410,120.9z"/>
	<path class="st2" d="M421,137.8c-1.6-1.2-3.4-1.9-5.4-1.9c-3.7-0.1-6.2,2.4-5.2,5.3c0.8,2.3,2.9,3.9,5.8,4.4c1.2,0.2,1.8,0.2,2.8,0
		c1.3-0.2,1.3-0.2,2.3-1c1.5-1.1,2-2.3,1.6-3.8C422.7,139.9,421.6,138.3,421,137.8z"/>
	<path class="st2" d="M513.5,89c-0.9-0.8-1.5-1.1-2.8-1.3c-1.3-0.2-3,0-4.5,0.5c-1.2,0.5-3.2,1.9-3.8,2.8c-0.9,1.3-1.4,2.8-1.2,3.8
		c0.2,1,0.9,2,1.9,2.6c3.3,1.9,8.9,0.1,10.8-3.5C515,91.9,514.9,90.3,513.5,89z"/>
	<path class="st2" d="M515.1,102.5c-2.1-2.1-6.3-2.9-9.3-1.6c-1.1,0.5-2.3,1.5-2.8,2.4c-0.6,1-0.7,2.3-0.3,3.2
		c1.3,3.1,5.7,4.6,9.8,3.5c1.9-0.5,3.4-1.9,3.9-3.6C516.7,105.3,516.2,103.6,515.1,102.5z"/>
	<path class="st2" d="M500.9,81.9c-2.2-1.7-6.4-0.8-8.8,1.9c-1.4,1.5-2.1,3.6-1.9,5c0.1,0.6,0.2,0.8,0.7,1.4
		c0.7,0.9,1.4,1.3,2.4,1.4c1.8,0.3,3.5-0.2,5.3-1.4c1.8-1.2,2.9-2.7,3.4-4.6C502.3,84.6,501.8,82.6,500.9,81.9z"/>
	<path class="st2" d="M493.7,95c-2-1.9-5.9-3.7-9.4-4.2c-2.2-0.4-3-0.3-4,0.4c-1.3,0.9-1.9,2-1.8,3.6c0.1,1.2,0.5,2.3,1.5,4.4
		c2.1,4.1,2.2,5.5,1.1,9.9c-0.6,2.5-0.7,3.1-0.5,4.1c0.5,2.8,2.5,3.8,5.4,2.7c1.1-0.4,2.9-1.7,4.6-3.2c2.8-2.5,4.1-4,5.3-6.3
		c1.1-2.2,1.3-4.6,0.5-7C496,98.2,494.6,95.9,493.7,95z"/>
	<path class="st2" d="M504.6,111.9c-1.6-1.2-3.4-1.9-5.4-1.9c-3.7-0.1-6.2,2.4-5.2,5.3c0.8,2.3,2.9,3.9,5.8,4.4
		c1.2,0.2,1.8,0.2,2.8,0c1.3-0.2,1.3-0.2,2.3-1c1.5-1.1,2-2.3,1.6-3.8C506.3,114.1,505.3,112.4,504.6,111.9z"/>
	<path class="st2" d="M585.2,116.3c-0.5-1.1-1-1.5-2.2-2.2c-1.2-0.7-2.8-1.1-4.5-1c-1.3,0-3.7,0.7-4.5,1.4c-1.3,0.9-2.3,2.2-2.4,3.2
		c-0.2,1,0.2,2.2,0.9,3.1c2.4,2.9,8.4,3.1,11.4,0.4C585.6,119.6,586.1,118,585.2,116.3z"/>
	<path class="st2" d="M582.1,129.6c-1.3-2.7-4.9-4.8-8.2-4.6c-1.2,0.1-2.7,0.6-3.5,1.3c-0.9,0.7-1.4,1.9-1.4,3
		c0.2,3.3,3.7,6.3,8,6.6c1.9,0.1,3.8-0.7,4.8-2C582.7,132.8,582.8,131,582.1,129.6z"/>
	<path class="st2" d="M575.8,105.4c-1.5-2.3-5.8-2.9-8.9-1.3c-1.8,1-3.2,2.6-3.5,4.1c-0.1,0.6-0.1,0.8,0.2,1.6
		c0.4,1,0.8,1.6,1.8,2.1c1.6,0.9,3.4,1,5.4,0.5c2.1-0.5,3.7-1.6,4.8-3.2C576.2,108.4,576.3,106.3,575.8,105.4z"/>
	<path class="st2" d="M564.5,115.3c-1.2-2.5-4.3-5.4-7.4-7.2c-1.9-1.1-2.7-1.3-3.9-1c-1.5,0.4-2.5,1.3-2.9,2.7
		c-0.3,1.2-0.3,2.3-0.1,4.7c0.5,4.6,0.2,6-2.3,9.7c-1.5,2.2-1.7,2.7-1.9,3.7c-0.5,2.8,1.1,4.4,4.1,4.4c1.1,0,3.3-0.6,5.4-1.4
		c3.5-1.4,5.2-2.4,7.1-4.1c1.8-1.7,2.8-3.9,2.9-6.4C565.7,119,565.1,116.4,564.5,115.3z"/>
	<path class="st2" d="M569.1,134.9c-1.1-1.7-2.6-3-4.4-3.6c-3.5-1.3-6.6,0.2-6.7,3.2c0,2.4,1.4,4.6,3.9,6.1c1.1,0.6,1.6,0.8,2.6,1
		c1.3,0.2,1.3,0.2,2.5-0.1c1.8-0.6,2.7-1.5,2.8-3C569.9,137.5,569.5,135.6,569.1,134.9z"/>
	<path class="st2" d="M657,126.1c-0.7-1-1.2-1.4-2.5-1.8c-1.3-0.5-3-0.6-4.6-0.3c-1.3,0.2-3.5,1.3-4.3,2.1c-1.2,1.1-1.9,2.5-1.9,3.5
		c0,1,0.6,2.1,1.4,2.9c2.9,2.5,8.8,1.8,11.3-1.4C657.9,129.3,658,127.7,657,126.1z"/>
	<path class="st2" d="M656,139.7c-1.7-2.5-5.6-4-8.8-3.3c-1.2,0.3-2.5,1-3.2,1.8c-0.7,0.9-1.1,2.1-0.9,3.1c0.7,3.3,4.7,5.6,8.9,5.3
		c1.9-0.2,3.7-1.2,4.5-2.8C657,142.8,656.8,141,656,139.7z"/>
	<path class="st2" d="M645.9,116.8c-1.8-2.1-6.2-2-9,0.1c-1.6,1.2-2.8,3.1-2.8,4.6c0,0.6,0.1,0.8,0.4,1.5c0.5,1,1.1,1.5,2.1,1.8
		c1.7,0.6,3.5,0.5,5.4-0.3c2-0.8,3.4-2.1,4.3-3.9C646.8,119.7,646.7,117.6,645.9,116.8z"/>
	<path class="st2" d="M636.4,128.3c-1.6-2.3-5-4.7-8.4-5.9c-2.1-0.8-2.9-0.9-4-0.4c-1.5,0.6-2.3,1.6-2.5,3.1c-0.1,1.2,0,2.3,0.7,4.7
		c1.2,4.4,1.1,5.9-0.8,9.9c-1.1,2.4-1.3,2.9-1.3,3.9c0,2.8,1.8,4.2,4.8,3.7c1.1-0.2,3.2-1.1,5.1-2.3c3.2-1.9,4.8-3.2,6.4-5.2
		c1.5-1.9,2.2-4.2,1.9-6.7C638.1,131.8,637.1,129.3,636.4,128.3z"/>
	<path class="st2" d="M643.9,147c-1.4-1.5-3-2.5-4.9-2.9c-3.6-0.8-6.5,1.2-6.1,4.2c0.3,2.4,2.1,4.4,4.8,5.4c1.1,0.4,1.7,0.5,2.8,0.6
		c1.3,0,1.4,0,2.4-0.5c1.7-0.8,2.4-1.9,2.3-3.4C645.1,149.4,644.4,147.6,643.9,147z"/>
	<path class="st2" d="M723,174.9c0.2-1.2,0.1-1.8-0.5-3.1c-0.6-1.2-1.7-2.5-3-3.5c-1-0.7-3.4-1.6-4.5-1.6c-1.6,0-3.1,0.4-3.8,1.2
		c-0.7,0.7-1.1,1.9-1,3c0.3,3.8,4.9,7.4,9,7C721.4,177.8,722.7,176.7,723,174.9z"/>
	<path class="st2" d="M712.7,183.8c0.6-2.9-1.2-6.8-3.9-8.6c-1-0.7-2.5-1.1-3.5-1c-1.1,0.1-2.3,0.7-2.8,1.6c-1.8,2.8-0.7,7.3,2.6,10
		c1.5,1.3,3.5,1.7,5.1,1.2C711.3,186.7,712.4,185.3,712.7,183.8z"/>
	<path class="st2" d="M721.8,160.5c0.2-2.8-2.9-5.8-6.5-6.3c-2-0.3-4.2,0.2-5.2,1.3c-0.4,0.4-0.6,0.6-0.8,1.4
		c-0.3,1-0.3,1.8,0.2,2.8c0.8,1.7,2.1,2.8,4.1,3.6c2,0.8,3.9,0.9,5.7,0.3C720.4,163.1,721.7,161.6,721.8,160.5z"/>
	<path class="st2" d="M706.9,161.9c0.5-2.7-0.2-6.9-1.7-10.1c-0.9-2-1.4-2.6-2.6-3.1c-1.5-0.6-2.8-0.5-4,0.5c-1,0.8-1.6,1.7-2.8,3.8
		c-2.2,4-3.3,4.9-7.6,6.5c-2.5,0.9-2.9,1.2-3.7,1.9c-2,2-1.7,4.2,0.8,6c0.9,0.6,3,1.4,5.2,2c3.6,0.9,5.6,1.1,8.2,0.8
		c2.4-0.3,4.5-1.5,6.1-3.4C705.6,165.5,706.7,163.1,706.9,161.9z"/>
	<path class="st2" d="M699,180.4c0.1-2.1-0.4-3.9-1.4-5.5c-2-3.1-5.5-3.8-7.3-1.4c-1.5,1.9-1.6,4.6-0.4,7.2c0.5,1.1,0.8,1.6,1.5,2.4
		c0.9,0.9,0.9,1,2.1,1.3c1.8,0.6,3,0.4,4-0.8C698.2,183,699,181.2,699,180.4z"/>
	<path class="st2" d="M704.1,90.6c-0.6-1-1.1-1.5-2.3-2.1c-1.2-0.6-2.9-1-4.5-0.9c-1.3,0.1-3.6,0.9-4.5,1.5c-1.3,1-2.2,2.3-2.3,3.3
		c-0.1,1,0.3,2.2,1.1,3c2.5,2.8,8.5,2.8,11.4,0C704.6,93.8,705,92.2,704.1,90.6z"/>
	<path class="st2" d="M701.5,103.9c-1.3-2.7-5.1-4.7-8.3-4.4c-1.2,0.1-2.6,0.7-3.4,1.4c-0.8,0.8-1.4,2-1.3,3c0.3,3.3,4,6.1,8.2,6.3
		c1.9,0.1,3.8-0.8,4.8-2.2C702.1,107.1,702.1,105.3,701.5,103.9z"/>
	<path class="st2" d="M694.2,80c-1.6-2.3-5.9-2.7-9-0.9c-1.7,1-3.1,2.7-3.4,4.2c-0.1,0.6,0,0.8,0.2,1.5c0.4,1,0.9,1.6,1.9,2.1
		c1.6,0.8,3.4,0.9,5.4,0.3c2-0.6,3.6-1.7,4.7-3.3C694.8,82.9,694.8,80.9,694.2,80z"/>
	<path class="st2" d="M683.4,90.3c-1.3-2.4-4.4-5.3-7.6-6.9c-2-1-2.8-1.2-3.9-0.9c-1.5,0.4-2.5,1.4-2.8,2.8
		c-0.3,1.2-0.3,2.3,0.1,4.7c0.7,4.5,0.4,6-2,9.8c-1.4,2.2-1.6,2.7-1.7,3.7c-0.4,2.8,1.2,4.4,4.3,4.2c1.1-0.1,3.3-0.7,5.4-1.6
		c3.4-1.5,5.1-2.6,6.9-4.4c1.7-1.7,2.7-4,2.6-6.5C684.6,94,684,91.4,683.4,90.3z"/>
	<path class="st2" d="M688.6,109.7c-1.2-1.7-2.7-2.9-4.5-3.5c-3.5-1.2-6.6,0.4-6.6,3.4c0.1,2.4,1.6,4.6,4.2,5.9
		c1.1,0.6,1.6,0.7,2.7,0.9c1.3,0.2,1.3,0.2,2.5-0.2c1.8-0.6,2.6-1.6,2.7-3.1C689.6,112.3,689.1,110.4,688.6,109.7z"/>
	<path class="st2" d="M774,130.4c-0.1-1.2-0.4-1.8-1.3-2.8c-0.9-1-2.3-2-3.9-2.5c-1.2-0.4-3.7-0.5-4.7-0.2c-1.5,0.4-2.8,1.3-3.3,2.2
		c-0.5,0.9-0.5,2.1-0.1,3.2c1.3,3.6,6.8,5.7,10.6,4.2C773.3,133.6,774.3,132.3,774,130.4z"/>
	<path class="st2" d="M766.7,141.9c-0.3-3-3-6.2-6.1-7.1c-1.2-0.3-2.7-0.3-3.7,0c-1.1,0.4-2,1.3-2.3,2.3c-1,3.2,1.4,7.2,5.3,8.9
		c1.8,0.8,3.8,0.7,5.2-0.3C766.1,145.1,766.8,143.4,766.7,141.9z"/>
	<path class="st2" d="M768.8,117c-0.6-2.7-4.5-4.7-8-4.2c-2,0.3-3.9,1.4-4.7,2.7c-0.3,0.5-0.4,0.8-0.4,1.5c0,1.1,0.2,1.8,1,2.6
		c1.2,1.4,2.8,2.1,4.9,2.3c2.1,0.2,4-0.2,5.6-1.4C768.2,119.9,769,118,768.8,117z"/>
	<path class="st2" d="M754.9,122.5c-0.3-2.8-2.2-6.5-4.5-9.2c-1.4-1.7-2.1-2.1-3.3-2.3c-1.6-0.2-2.8,0.3-3.7,1.6
		c-0.7,1-1.1,2-1.6,4.4c-1,4.5-1.8,5.7-5.4,8.4c-2.1,1.6-2.5,1.9-3,2.8c-1.4,2.5-0.5,4.5,2.4,5.5c1.1,0.4,3.3,0.5,5.6,0.4
		c3.7-0.1,5.7-0.5,8.1-1.5c2.3-1,3.9-2.7,4.8-5C754.7,126.4,755,123.8,754.9,122.5z"/>
	<path class="st2" d="M752.6,142.5c-0.5-2-1.5-3.7-2.9-4.9c-2.8-2.4-6.3-2.1-7.4,0.8c-0.8,2.3-0.2,4.8,1.7,7
		c0.8,0.9,1.2,1.3,2.1,1.8c1.1,0.6,1.2,0.7,2.4,0.7c1.9,0.1,3-0.5,3.6-1.9C752.5,145.3,752.8,143.3,752.6,142.5z"/>
	<path class="st2" d="M824,176.5c0.9-2.6-1.3-6.3-4.6-7.8c-1.9-0.8-4.1-0.9-5.4-0.2c-0.5,0.3-0.7,0.5-1.1,1.1
		c-0.6,0.9-0.7,1.7-0.5,2.8c0.3,1.8,1.3,3.3,3,4.6c1.7,1.3,3.5,1.9,5.5,1.8C822,178.7,823.7,177.5,824,176.5z"/>
	<path class="st2" d="M809.3,173.9c1.2-2.5,1.6-6.7,1-10.2c-0.4-2.2-0.7-2.9-1.7-3.7c-1.2-1-2.6-1.2-4-0.6c-1.1,0.5-2,1.2-3.7,2.9
		c-3.2,3.3-4.5,3.9-9,4.3c-2.6,0.2-3.1,0.4-4,0.8c-2.5,1.4-2.8,3.6-0.8,6c0.7,0.9,2.5,2.2,4.5,3.3c3.2,1.8,5.2,2.6,7.7,2.9
		c2.4,0.4,4.8-0.2,6.8-1.7C807.1,177.2,808.8,175.1,809.3,173.9z"/>
	<path class="st2" d="M356.1,84.8c-1.7,0.2-3.2,1.1-4.4,2.7c-2.1,2.8-2.7,6.1-1.6,8.8c0.6,1.4,1.2,1.9,2.5,2.1
		c0.9,0.2,1.2,0.2,1.8-0.1c3.6-1.1,6.3-6.5,5.4-10.3C359.3,85.9,357.8,84.6,356.1,84.8z"/>
	<path class="st2" d="M366,93.4c-2.8,0.2-6,2.6-7.3,5.4c-0.5,1.2-0.7,2.1-0.6,3.2c0.1,1,0.5,1.9,1.1,2.6c0.4,0.5,0.6,0.5,1.7,0.8
		c0.9,0.2,1.4,0.3,2.1,0.2c2.4-0.3,4.9-2.1,6.5-4.6c0.5-0.9,0.6-1.2,0.8-2.2c0.3-1.5,0.2-2.4-0.4-3.5c-0.2-0.4-0.6-0.9-0.9-1.1
		C368.2,93.7,366.8,93.4,366,93.4z"/>
	<path class="st2" d="M342.2,88.9c-2.1,0.4-4.2,3-4.7,6.1c-0.4,2.2-0.1,4.1,0.9,5.6c0.7,1,1.4,1.5,2.4,1.6c1,0.1,1.8-0.2,2.8-1
		c1.4-1.1,2.4-2.9,2.7-5.1c0.4-2.1,0.1-4.1-0.8-5.5C344.9,89.5,343.4,88.7,342.2,88.9z"/>
	<path class="st2" d="M345.5,103.6c-1.3,0.1-4.4,1-6.2,1.9c-1.7,0.8-4.2,2.6-4.9,3.5c-1.3,1.6-1.1,4.1,0.4,5.5
		c0.7,0.7,1.8,1.2,4.2,2.1c4.3,1.6,5.2,2.3,7.2,6.2c1.6,3,2.4,3.8,4.1,4.1c2.7,0.5,4.5-2.3,5.1-7.9c0.8-8.1-0.6-12.2-4.8-14.3
		C349.1,103.9,347,103.5,345.5,103.6z"/>
	<path class="st2" d="M365.7,107.8c-2.2,0-4.5,1.1-6.3,3c-0.8,0.9-1.3,1.8-1.5,3c-0.4,2.3,0.5,3.8,2.8,4.4c2.3,0.7,5.6-0.5,7.5-2.8
		c1.8-2,2.2-4.4,1-6.1C368.7,108.5,367.2,107.8,365.7,107.8z"/>
	<path class="st2" d="M290.2,114.8c-1.6-0.4-3.3-0.1-5,1c-2.9,1.9-4.6,4.8-4.4,7.7c0.1,1.5,0.5,2.2,1.7,2.9c0.8,0.5,1,0.6,1.7,0.6
		c3.7,0.2,8.1-3.8,8.5-7.8C292.9,117,291.9,115.3,290.2,114.8z"/>
	<path class="st2" d="M296.7,126.5c-2.7-0.8-6.5,0.3-8.6,2.5c-0.9,1-1.4,1.7-1.6,2.8c-0.3,1-0.2,1.9,0.2,2.8
		c0.3,0.6,0.4,0.7,1.3,1.3c0.8,0.5,1.2,0.7,1.9,0.9c2.4,0.6,5.3-0.2,7.6-2c0.8-0.6,1-0.9,1.5-1.8c0.8-1.3,1-2.2,0.8-3.4
		c-0.1-0.5-0.3-1-0.5-1.3C298.7,127.5,297.5,126.7,296.7,126.5z"/>
	<path class="st2" d="M275.8,113.7c-2.1-0.4-4.9,1.3-6.4,4c-1.1,1.9-1.4,3.8-1,5.6c0.3,1.2,0.8,1.9,1.8,2.4c0.9,0.5,1.8,0.5,3,0.1
		c1.7-0.6,3.2-1.9,4.2-3.8c1.1-1.9,1.4-3.8,1.1-5.5C278.2,115.2,277.1,113.9,275.8,113.7z"/>
	<path class="st2" d="M274.1,128.6c-1.3-0.4-4.5-0.6-6.4-0.4c-1.9,0.2-4.8,0.9-5.7,1.5c-1.7,1.1-2.4,3.4-1.5,5.3
		c0.4,0.9,1.3,1.8,3.2,3.5c3.5,3,4.1,4,4.7,8.4c0.5,3.4,1,4.4,2.5,5.3c2.4,1.5,5-0.5,7.4-5.6c3.4-7.3,3.5-11.7,0.2-15.2
		C277.4,130.3,275.6,129.1,274.1,128.6z"/>
	<path class="st2" d="M291.7,139.9c-2.1-0.8-4.6-0.6-6.9,0.6c-1.1,0.5-1.8,1.3-2.4,2.3c-1.1,2-0.7,3.7,1.2,5.2
		c1.9,1.5,5.4,1.5,8,0.1c2.3-1.3,3.5-3.4,3-5.4C294.3,141.6,293.1,140.4,291.7,139.9z"/>
	<path class="st2" d="M221.8,140.1c-1.3-1.2-2.9-1.6-4.9-1.4c-3.4,0.3-6.1,2.2-7.2,4.9c-0.6,1.4-0.5,2.2,0.3,3.4
		c0.5,0.8,0.7,1,1.3,1.4c3.2,1.9,8.9,0.3,10.9-3C223.2,143.2,223.1,141.3,221.8,140.1z"/>
	<path class="st2" d="M222.6,153.5c-2.1-2-5.9-2.8-8.8-1.8c-1.2,0.4-2,0.9-2.7,1.7c-0.6,0.8-1,1.6-1,2.6c0,0.6,0,0.8,0.6,1.8
		c0.5,0.8,0.8,1.2,1.3,1.7c1.9,1.6,4.8,2.3,7.7,1.7c1-0.2,1.3-0.3,2.1-0.9c1.2-0.8,1.8-1.6,2.1-2.7c0.1-0.4,0.2-1.1,0.1-1.4
		C224,155.4,223.3,154.1,222.6,153.5z"/>
	<path class="st2" d="M209.3,132.4c-1.7-1.3-5-1.1-7.4,0.6c-1.8,1.2-2.9,2.8-3.3,4.6c-0.3,1.2-0.1,2,0.6,2.9
		c0.6,0.8,1.4,1.2,2.6,1.4c1.8,0.3,3.6-0.2,5.4-1.4c1.7-1.2,2.9-2.7,3.3-4.4C210.9,134.8,210.3,133.2,209.3,132.4z"/>
	<path class="st2" d="M201.5,145c-1-1-3.8-2.6-5.6-3.4c-1.8-0.7-4.7-1.4-5.8-1.3c-2,0.2-3.6,2-3.5,4c0,1,0.4,2.2,1.4,4.6
		c1.9,4.3,1.9,5.5,0.7,9.7c-1,3.3-1,4.4,0,5.9c1.5,2.4,4.7,1.9,9-1.6c6.2-4.9,8.1-8.9,6.6-13.5C203.8,148,202.6,146.1,201.5,145z"/>
	<path class="st2" d="M212.5,163.2c-1.5-1.7-3.9-2.7-6.4-2.7c-1.2,0-2.2,0.3-3.1,0.9c-1.9,1.3-2.2,3-1.1,5.2
		c1.1,2.2,4.2,3.8,7.1,3.8c2.6-0.1,4.5-1.4,4.9-3.4C214,165.9,213.5,164.3,212.5,163.2z"/>
	<path class="st2" d="M128.7,120.7c-1.7-0.1-3.3,0.7-4.7,2.1c-2.4,2.5-3.4,5.7-2.6,8.5c0.4,1.4,0.9,2,2.2,2.4
		c0.9,0.3,1.1,0.3,1.8,0.2c3.7-0.7,7.1-5.6,6.6-9.5C131.8,122.2,130.5,120.8,128.7,120.7z"/>
	<path class="st2" d="M137.5,130.6c-2.8-0.2-6.2,1.8-7.8,4.4c-0.7,1.1-1,2-1,3.1c0,1,0.2,1.9,0.8,2.7c0.4,0.5,0.5,0.6,1.5,1
		c0.9,0.3,1.3,0.4,2.1,0.4c2.4,0,5.1-1.4,7-3.8c0.6-0.8,0.8-1.1,1.1-2.1c0.5-1.5,0.5-2.4,0-3.5c-0.2-0.4-0.5-0.9-0.8-1.2
		C139.7,131.1,138.4,130.6,137.5,130.6z"/>
	<path class="st2" d="M114.5,123c-2.2,0.1-4.5,2.5-5.4,5.4c-0.6,2.1-0.6,4,0.3,5.7c0.5,1.1,1.2,1.6,2.2,1.9c1,0.2,1.8,0.1,2.9-0.6
		c1.5-0.9,2.7-2.5,3.3-4.7c0.6-2.1,0.6-4-0.1-5.6C117.1,123.9,115.7,123,114.5,123z"/>
	<path class="st2" d="M116,138c-1.3-0.1-4.5,0.4-6.4,1.1c-1.8,0.6-4.5,2-5.3,2.8c-1.5,1.5-1.6,3.9-0.3,5.5c0.6,0.7,1.6,1.4,3.9,2.6
		c4.1,2.1,4.8,3,6.4,7.1c1.2,3.2,1.9,4,3.6,4.6c2.7,0.9,4.8-1.7,6-7.1c1.8-7.9,0.9-12.2-3.1-14.8C119.6,138.8,117.5,138.1,116,138z"
		/>
	<path class="st2" d="M135.6,144.8c-2.2-0.3-4.6,0.5-6.6,2.2c-0.9,0.8-1.5,1.7-1.8,2.8c-0.7,2.2,0.1,3.8,2.3,4.8
		c2.2,1,5.6,0.2,7.8-1.8c2-1.8,2.7-4.1,1.7-5.9C138.4,145.8,137,145,135.6,144.8z"/>
	<path class="st2" d="M28,151.6c-1.7-0.1-3.3,0.7-4.7,2.1c-2.4,2.5-3.4,5.7-2.6,8.5c0.4,1.4,0.9,2,2.2,2.4c0.9,0.3,1.1,0.3,1.8,0.2
		c3.7-0.7,7.1-5.6,6.6-9.5C31.1,153.1,29.8,151.7,28,151.6z"/>
	<path class="st2" d="M36.8,161.4c-2.8-0.2-6.2,1.8-7.8,4.4c-0.7,1.1-1,2-1,3.1c0,1,0.2,1.9,0.8,2.7c0.4,0.5,0.5,0.6,1.5,1
		c0.9,0.3,1.3,0.4,2.1,0.4c2.4,0,5.1-1.4,7-3.8c0.6-0.8,0.8-1.1,1.1-2.1c0.5-1.5,0.5-2.4,0-3.5c-0.2-0.4-0.5-0.9-0.8-1.2
		C39,162,37.7,161.5,36.8,161.4z"/>
	<path class="st2" d="M13.8,153.9c-2.2,0.1-4.5,2.5-5.4,5.4c-0.6,2.1-0.6,4,0.3,5.7c0.5,1.1,1.2,1.6,2.2,1.9c1,0.2,1.8,0.1,2.9-0.6
		c1.5-0.9,2.7-2.5,3.3-4.7c0.6-2.1,0.6-4-0.1-5.6C16.4,154.7,15,153.8,13.8,153.9z"/>
	<path class="st2" d="M15.3,168.8c-1.3-0.1-4.5,0.4-6.4,1.1c-1.8,0.6-4.5,2-5.3,2.8c-1.5,1.5-1.6,3.9-0.3,5.5
		c0.6,0.7,1.6,1.4,3.9,2.6c4.1,2.1,4.8,3,6.4,7.1c1.2,3.2,1.9,4,3.6,4.6c2.7,0.9,4.8-1.7,6-7.1c1.8-7.9,0.9-12.2-3.1-14.8
		C18.9,169.6,16.8,168.9,15.3,168.8z"/>
	<path class="st2" d="M34.9,175.7c-2.2-0.3-4.6,0.5-6.6,2.2c-0.9,0.8-1.5,1.7-1.8,2.8c-0.7,2.2,0.1,3.8,2.3,4.8
		c2.2,1,5.6,0.2,7.8-1.8c2-1.8,2.7-4.1,1.7-5.9C37.7,176.7,36.3,175.9,34.9,175.7z"/>
	<path class="st2" d="M368.2,155.4c-1.3-1-2.8-1.4-4.8-1.2c-3.6,0.4-6.4,2.4-7.3,5.2c-0.1,0.4-0.2,1.1-0.1,1.4
		c0.6,3.7,6.1,4.9,10.5,2.2c1.6-1,2.5-2,3-3.6C370,158.1,369.4,156.4,368.2,155.4z"/>
	<path class="st2" d="M356.7,148c-0.6-0.6-1-0.8-2.1-1.1c-1.8-0.4-3.8,0-5.6,1.1c-1.7,1.1-2.9,2.5-3.4,4.2c-0.4,1.3-0.3,2,0.2,2.9
		c2,3.4,8.4,2.1,10.9-2c0.3-0.4,0.6-1.1,0.7-1.4C357.9,150.6,357.6,148.8,356.7,148z"/>
	<path class="st2" d="M368.6,168.9c-1.4-1.2-3.3-1.9-5.4-2c-4.6-0.3-7.9,3-6.4,6.2c1.4,2.9,5.2,4.5,9,3.8c2.7-0.5,4.7-2.5,4.6-4.7
		C370.4,171.4,369.4,169.5,368.6,168.9z"/>
	<path class="st2" d="M348.8,160.7c-1.2-1.5-3.1-2.8-5.6-4c-1.7-0.9-5.3-1.9-6.4-1.8c-0.8,0.1-2.1,0.7-2.6,1.3
		c-1.4,1.6-1.3,3.3,0.3,7.3c1.7,4.2,1.7,5.5,0.3,9.7c-0.8,2.5-0.9,3-0.8,4.1c0.1,1.1,0.8,2.5,1.5,2.9c2.1,1.3,5.6-0.1,10.2-3.9
		c2.9-2.4,4.5-4.7,5.2-7.2c0.4-1.5,0.3-3-0.1-4.5C350.6,163.6,349.4,161.4,348.8,160.7z"/>
	<path class="st2" d="M358.1,178.1c-1.5-1.5-3.7-2.4-6.1-2.4c-2.3-0.1-4.4,1.4-4.8,3.3c-0.3,1.9,1.2,4.4,3.5,5.7
		c1.7,0.9,4.2,1.3,5.9,0.8c2.2-0.6,3.6-2.5,3.1-4.4C359.6,180.1,358.8,178.8,358.1,178.1z"/>
	<path class="st2" d="M474.4,33.1c-1.1-0.4-1.8-0.3-3.1,0.1c-1.3,0.4-2.8,1.3-3.9,2.5c-0.9,0.9-2.1,3.2-2.3,4.3
		c-0.3,1.6-0.1,3.2,0.5,4c0.6,0.8,1.7,1.4,2.8,1.4c3.7,0.3,8.1-3.9,8.4-8C476.9,35.1,476.1,33.7,474.4,33.1z"/>
	<path class="st2" d="M481.4,44.6c-2.8-1-6.9,0.2-9,2.7c-0.8,1-1.5,2.3-1.6,3.4c-0.1,1.1,0.3,2.4,1.1,3.1c2.4,2.2,7,1.7,10.3-1.2
		c1.5-1.3,2.3-3.2,2-4.9C484,46.4,482.8,45.1,481.4,44.6z"/>
	<path class="st2" d="M460.1,32.4c-2.7-0.5-6.1,2.2-7.2,5.6c-0.6,2-0.5,4.2,0.4,5.4c0.3,0.5,0.5,0.6,1.2,1c1,0.5,1.7,0.5,2.8,0.2
		c1.7-0.6,3.1-1.7,4.2-3.6c1.1-1.9,1.5-3.8,1.2-5.7C462.4,34.1,461.1,32.6,460.1,32.4z"/>
	<path class="st2" d="M458.9,47.5c-2.6-0.8-6.8-0.7-10.2,0.4c-2.1,0.6-2.8,1.1-3.5,2.1c-0.9,1.4-0.9,2.7-0.2,4
		c0.6,1.1,1.4,1.9,3.2,3.3c3.5,2.8,4.3,4,5.1,8.4c0.5,2.6,0.6,3.1,1.2,3.9c1.6,2.3,3.8,2.3,6,0c0.8-0.9,1.9-2.8,2.8-4.9
		c1.5-3.5,2-5.5,2.2-8.1c0.1-2.5-0.7-4.7-2.4-6.5C462.3,49.3,460.1,47.9,458.9,47.5z"/>
	<path class="st2" d="M475.8,57.8c-2-0.4-3.9-0.2-5.7,0.7c-3.4,1.6-4.6,5-2.5,7.1c1.7,1.7,4.2,2.2,7,1.4c1.2-0.3,1.7-0.6,2.6-1.2
		c1.1-0.8,1.1-0.8,1.7-1.9c0.9-1.7,0.9-3-0.1-4.1C478.2,59,476.6,58,475.8,57.8z"/>
	<path class="st2" d="M550.7,38.7c-0.8-0.9-1.4-1.2-2.7-1.5c-1.3-0.3-3.1-0.3-4.6,0.2c-1.3,0.4-3.4,1.7-4.1,2.5
		c-1.1,1.2-1.7,2.7-1.6,3.7c0.1,1,0.7,2,1.7,2.7c3.1,2.1,9,0.7,11.3-2.7C551.9,41.7,551.9,40.1,550.7,38.7z"/>
	<path class="st2" d="M550.9,52.2c-1.9-2.3-6-3.3-9.1-2.3c-1.2,0.4-2.5,1.3-3.1,2.1c-0.7,0.9-0.9,2.2-0.6,3.2c1,3.1,5.2,5,9.5,4.2
		c1.9-0.4,3.6-1.6,4.3-3.2C552.2,55,551.9,53.3,550.9,52.2z"/>
	<path class="st2" d="M538.8,30.8c-2-1.8-6.4-1.3-9.1,1.2c-1.5,1.4-2.5,3.4-2.4,4.8c0,0.6,0.1,0.8,0.5,1.4c0.6,0.9,1.2,1.3,2.3,1.6
		c1.8,0.4,3.6,0.1,5.5-0.9c1.9-1,3.2-2.5,4-4.3C540,33.5,539.6,31.5,538.8,30.8z"/>
	<path class="st2" d="M530.2,43.2c-1.8-2-5.5-4-9-4.9c-2.1-0.5-3-0.5-4.1,0.1c-1.4,0.7-2.2,1.9-2.2,3.4c0,1.2,0.2,2.3,1.1,4.5
		c1.6,4.2,1.6,5.6,0.1,9.9c-0.9,2.5-1,3-0.9,4c0.2,2.8,2.1,3.9,5.1,3.1c1.1-0.3,3.1-1.5,5-2.8c3.1-2.2,4.5-3.7,6-5.8
		c1.4-2.1,1.8-4.4,1.3-6.8C532.2,46.5,531,44.1,530.2,43.2z"/>
	<path class="st2" d="M539.4,60.7c-1.5-1.4-3.3-2.1-5.2-2.3c-3.7-0.3-6.5,1.9-5.8,4.8c0.6,2.3,2.5,4,5.3,4.8
		c1.2,0.3,1.8,0.3,2.8,0.3c1.3-0.1,1.4-0.1,2.4-0.8c1.6-1,2.2-2.1,2-3.6C540.8,62.9,540,61.2,539.4,60.7z"/>
	<path class="st2" d="M628.3,64c-0.5-1-1-1.5-2.2-2.2c-1.2-0.7-2.9-1.1-4.5-1c-1.3,0-3.7,0.7-4.6,1.3c-1.4,0.9-2.3,2.1-2.5,3.1
		c-0.2,1,0.2,2.2,0.9,3c2.4,2.9,8.5,3.1,11.6,0.4C628.7,67.2,629.1,65.6,628.3,64z"/>
	<path class="st2" d="M624.9,77c-1.2-2.7-4.9-4.8-8.2-4.6c-1.3,0.1-2.7,0.6-3.5,1.2c-0.9,0.7-1.5,1.9-1.4,2.9c0.1,3.3,3.7,6.2,8,6.5
		c2,0.2,3.9-0.6,4.9-2C625.5,80.1,625.6,78.3,624.9,77z"/>
	<path class="st2" d="M618.9,53.2c-1.5-2.3-5.8-2.9-9.1-1.3c-1.8,0.9-3.3,2.6-3.6,4c-0.1,0.6-0.1,0.8,0.1,1.5c0.3,1,0.8,1.6,1.8,2.1
		c1.6,0.9,3.4,1,5.5,0.5c2.1-0.5,3.8-1.5,4.9-3.1C619.3,56.1,619.5,54.1,618.9,53.2z"/>
	<path class="st2" d="M607.3,62.9c-1.2-2.4-4.2-5.3-7.4-7.1c-1.9-1.1-2.7-1.3-4-1c-1.6,0.3-2.6,1.2-3,2.7c-0.3,1.2-0.4,2.3-0.2,4.6
		c0.5,4.5,0.1,5.9-2.5,9.5c-1.5,2.1-1.8,2.6-1.9,3.6c-0.5,2.8,1,4.3,4.1,4.3c1.2,0,3.4-0.6,5.5-1.4c3.5-1.3,5.4-2.4,7.3-4.1
		c1.9-1.6,2.9-3.8,3-6.2C608.4,66.6,607.8,64,607.3,62.9z"/>
	<path class="st2" d="M611.6,82.2c-1.1-1.7-2.6-2.9-4.4-3.6c-3.5-1.3-6.8,0.2-6.8,3.1c-0.1,2.4,1.3,4.6,3.9,6c1.1,0.6,1.6,0.8,2.7,1
		c1.3,0.2,1.4,0.2,2.5-0.1c1.8-0.5,2.7-1.4,2.9-2.9C612.4,84.7,612,82.9,611.6,82.2z"/>
	<path class="st2" d="M83.8,177.5c-0.6-0.6-1.1-0.7-2.2-0.8c-1.9-0.1-3.8,0.5-5.4,1.8c-1.6,1.3-2.6,2.8-2.9,4.6
		c-0.2,1.3-0.1,2,0.6,2.9c2.3,3.1,8.6,1.1,10.6-3.4c0.2-0.5,0.5-1.2,0.5-1.5C85.3,179.9,84.7,178.2,83.8,177.5z"/>
</g>
</svg>
