<svg width="20" height="20" fill="none" xmlns="http://www.w3.org/2000/svg"><g clip-path="url(#clip0)"><path d="M.622 13.478a10.004 10.004 0 0018.756 0L10 12.608l-9.378.87z" fill="#FFDA44"/><path d="M10 0C5.7 0 2.035 2.714.622 6.522l9.378.87 9.378-.87A10.003 10.003 0 0010 0z" fill="#000" fill-opacity=".87"/><path d="M.622 6.521A9.979 9.979 0 000 10c0 1.223.22 2.395.622 3.478h18.756A9.978 9.978 0 0020 10c0-1.223-.22-2.395-.622-3.479H.622z" fill="#CB3D40"/></g><defs><clipPath id="clip0"><path fill="#fff" d="M0 0h20v20H0z"/></clipPath></defs></svg>