<svg width="20" height="20" viewBox="0 0 20 20" fill="none" xmlns="http://www.w3.org/2000/svg">
<g clip-path="url(#clip0)">
<path d="M0.621994 13.4779C2.03492 17.2859 5.70035 19.9997 10 19.9997C14.2997 19.9997 17.9651 17.2859 19.378 13.4779L10 12.6084L0.621994 13.4779Z" fill="#FFDA44"/>
<path d="M10 0C5.70035 0 2.03492 2.71375 0.621994 6.52176L10 7.39129L19.378 6.52172C17.9651 2.71375 14.2997 0 10 0Z" fill="black" fill-opacity="0.87"/>
<path d="M0.621992 6.52148C0.220039 7.6048 0 8.77652 0 9.99973C0 11.2229 0.220039 12.3946 0.621992 13.478H19.378C19.78 12.3946 20 11.2229 20 9.99973C20 8.77652 19.78 7.6048 19.378 6.52148H0.621992Z" fill="#CB3D40"/>
</g>
<defs>
<clipPath id="clip0">
<rect width="20" height="20" fill="white"/>
</clipPath>
</defs>
</svg>
