<svg width="100" height="26" viewBox="0 0 100 26" fill="none" xmlns="http://www.w3.org/2000/svg">
<path d="M28.9076 22.6034C29.0463 23.5975 28.6683 24.5471 27.9838 25.1422C27.8567 25.254 27.7191 25.352 27.5723 25.4363C27.4393 25.5116 27.3006 25.5765 27.1538 25.6278C26.8208 25.7453 26.474 25.7886 26.1329 25.767C26.1236 25.767 26.1144 25.767 26.1052 25.7647C25.4185 25.7157 24.7571 25.4056 24.289 24.9097C23.5294 24.1059 23.5514 23.1073 23.5605 22.8987C23.5605 22.7983 23.5652 22.7003 23.5767 22.6034H15.3221C15.3338 22.7003 15.3383 22.7983 15.3383 22.8987C15.3476 23.1073 15.3696 24.1059 14.61 24.9097C14.1418 25.4056 13.4805 25.7157 12.7938 25.7647C12.7845 25.767 12.7752 25.767 12.7659 25.767C12.425 25.7886 12.0782 25.7453 11.7452 25.6278C11.5983 25.5765 11.4596 25.5116 11.3266 25.4363C11.1798 25.352 11.0422 25.254 10.9151 25.1434C10.9139 25.1434 10.9139 25.1422 10.9139 25.1422C10.2306 24.5459 9.8526 23.5975 9.99133 22.6034H7.01782C7.03747 22.5304 7.05828 22.4563 7.07793 22.3833C7.44789 21.0279 7.81784 19.6712 8.1878 18.3156L8.43058 18.3043L11.2711 18.1789C11.3995 18.1732 11.4977 18.0671 11.492 17.9418C11.4862 17.8151 11.381 17.7172 11.2503 17.724L8.55659 17.8425L8.31498 17.8539C8.44908 17.3592 8.58435 16.8656 8.71845 16.3719L8.95314 16.3913L11.2341 16.5793H11.2538C11.3729 16.5793 11.4746 16.4894 11.4839 16.3708C11.4943 16.2454 11.4006 16.1348 11.2735 16.1245L9.07569 15.9433L8.841 15.9239C8.97742 15.4234 9.11385 14.9229 9.25026 14.4236L9.46761 14.5068L11.6318 15.331C11.6584 15.3413 11.6873 15.347 11.7151 15.347C11.8075 15.347 11.8954 15.2912 11.9302 15.2011C11.9763 15.0837 11.9174 14.9515 11.7983 14.9059L9.589 14.0633L9.37165 13.9812C10.5705 9.58754 11.7706 5.19384 12.9695 0.80127C13.8354 3.42792 14.7001 6.05456 15.5649 8.68008C16.1754 8.37455 17.5985 7.74866 19.4413 7.77717H19.4575C21.3003 7.74866 22.7236 8.37455 23.334 8.68008C24.1988 6.05456 25.0635 3.42792 25.9295 0.80127C27.1283 5.19384 28.3284 9.58754 29.5272 13.9812L29.3099 14.0633L27.1006 14.9059C26.9815 14.9515 26.9214 15.0837 26.9676 15.2011C27.0035 15.2912 27.0913 15.347 27.1839 15.347C27.2116 15.347 27.2393 15.3413 27.267 15.331L29.4313 14.5068L29.6487 14.4236C29.785 14.9229 29.9215 15.4234 30.0579 15.9239L29.8232 15.9433L27.6255 16.1245C27.4983 16.1348 27.4035 16.2454 27.4138 16.3708C27.4243 16.4894 27.526 16.5793 27.6439 16.5793H27.6637L29.9458 16.3913L30.1805 16.3719C30.3146 16.8656 30.4498 17.3592 30.5839 17.8539L30.3423 17.8425L27.6474 17.724C27.5168 17.7194 27.4116 17.8151 27.4058 17.9418C27.4 18.0671 27.4995 18.1732 27.6267 18.1789L30.4684 18.3043L30.7111 18.3156C31.0811 19.6712 31.4511 21.0279 31.821 22.3833C31.8406 22.4563 31.8614 22.5304 31.881 22.6034H28.9076Z" fill="#F4E041"/>
<path d="M32.1816 22.8316L32.1215 22.6127L32.059 22.3835L30.9514 18.3261L30.711 18.3159L30.4683 18.3045L31.5792 22.3755H28.6416L28.6774 22.6344C28.7872 23.4175 28.5514 24.1768 28.0785 24.724C27.9883 24.8289 27.8889 24.9258 27.7825 25.0124C27.7502 25.0398 27.7166 25.066 27.6832 25.09C27.6138 25.1424 27.5421 25.1892 27.4669 25.2313C27.3433 25.3032 27.2127 25.3647 27.075 25.4126C26.8461 25.4935 26.6079 25.5368 26.3687 25.5437C26.29 25.546 26.2114 25.5437 26.1328 25.5391C26.0565 25.5346 25.9801 25.5254 25.9039 25.5129C25.3628 25.4274 24.846 25.1652 24.4576 24.7537C23.8125 24.0707 23.7767 23.2363 23.7917 22.8988C23.7917 22.7997 23.7963 22.7118 23.8056 22.6297L23.8356 22.3755H15.0619L15.0919 22.6297C15.1012 22.7118 15.107 22.7997 15.107 22.9079C15.1208 23.2363 15.085 24.0707 14.4399 24.7537C14.0514 25.1652 13.5347 25.4274 12.9947 25.5129C12.9185 25.5254 12.8422 25.5346 12.7658 25.5391C12.6873 25.5437 12.6087 25.546 12.53 25.5437C12.2896 25.5368 12.0514 25.4935 11.8225 25.4126C11.6861 25.3647 11.5554 25.3043 11.4329 25.2325H11.4317C11.3566 25.1902 11.2837 25.1424 11.2144 25.09C11.1808 25.066 11.1473 25.0398 11.1149 25.0124C11.0086 24.9258 10.9092 24.8289 10.819 24.724C10.3461 24.1768 10.1103 23.4175 10.2201 22.6344L10.256 22.3755H7.31944L8.43045 18.3045L8.18767 18.3159L7.94604 18.3261L6.83849 22.3835L6.77607 22.6127L6.71594 22.8316H9.7357C9.6594 24.1711 10.4409 25.4115 11.6664 25.8424C12.7335 26.2186 13.9844 25.9063 14.7787 25.0649C15.5428 24.2554 15.5856 23.2728 15.5695 22.8988C15.5695 22.876 15.5683 22.8532 15.5683 22.8316H23.3293V22.8886C23.3119 23.2728 23.3547 24.2554 24.1189 25.0649C24.69 25.6691 25.4946 25.9997 26.2981 25.9997C26.6138 25.9997 26.9294 25.9484 27.2311 25.8424C28.4566 25.4115 29.2381 24.1711 29.1619 22.8316H32.1816ZM8.71832 16.372L8.48364 16.3527L8.07207 17.8644L8.31485 17.8541L8.55648 17.8428L8.95301 16.3914L8.71832 16.372ZM25.9502 0L25.7085 0.730765C24.9871 2.92191 24.2645 5.11308 23.5432 7.30309L23.1952 8.3599C22.3153 7.95177 21.0112 7.52197 19.4574 7.54933H19.4448C17.8863 7.52426 16.5821 7.95177 15.7024 8.3599L15.3544 7.30309C14.6329 5.11308 13.9116 2.92191 13.189 0.730765L12.9474 0L9.15418 13.8982L9.37153 13.9815L9.58888 14.0635L12.9902 1.60176C13.6318 3.55007 14.2734 5.49727 14.9139 7.44445L15.4284 9.00402L15.6689 8.88317C16.4966 8.4682 17.8273 7.97571 19.4412 8.00535H19.4608C21.0794 7.97799 22.4008 8.4682 23.2286 8.88317L23.4702 9.00402L23.9836 7.44445C24.6241 5.49727 25.2657 3.55007 25.9085 1.60176L29.3097 14.0635L29.5271 13.9815L29.7434 13.8982L25.9502 0ZM9.03278 14.3406L8.60618 15.9046L8.84087 15.924L9.07556 15.9434L9.46749 14.507L9.25014 14.4238L9.03278 14.3406ZM29.8647 14.3416L29.6486 14.4238L29.4312 14.507L29.8231 15.9434L30.0578 15.924L30.2914 15.9058L29.8647 14.3416ZM30.4139 16.3527L30.1804 16.372L29.9456 16.3914L30.3422 17.8428L30.5838 17.8541L30.8254 17.8644L30.4139 16.3527Z" fill="black" fill-opacity="0.87"/>
<path d="M21.2818 14.9493C21.0102 14.9493 20.7905 14.7326 20.7905 14.4647V11.528C20.7905 11.2601 21.0102 11.0435 21.2818 11.0435C21.5535 11.0435 21.7731 11.2601 21.7731 11.528V14.4647C21.7731 14.7315 21.5535 14.9493 21.2818 14.9493Z" fill="black" fill-opacity="0.87"/>
<path d="M17.9056 14.4365C17.6362 14.4649 17.3934 14.2722 17.3645 14.0055L17.1251 11.7893C17.0963 11.5236 17.2917 11.2842 17.5622 11.2557C17.8316 11.2272 18.0744 11.4199 18.1033 11.6867L18.3425 13.9029C18.3715 14.1696 18.1761 14.4079 17.9056 14.4365Z" fill="black" fill-opacity="0.87"/>
<path d="M11.9285 15.2013C11.8939 15.2914 11.806 15.3472 11.7135 15.3472C11.6858 15.3472 11.6569 15.3416 11.6303 15.3313L9.46606 14.507L9.24871 14.4238L9.03135 14.3406L5.88674 13.1424C5.7665 13.0968 5.70754 12.9646 5.75378 12.8471C5.80003 12.7297 5.93414 12.6716 6.05322 12.7172L9.15275 13.8982L9.3701 13.9814L9.58744 14.0635L11.7968 14.9061C11.9159 14.9517 11.9748 15.0839 11.9285 15.2013Z" fill="black" fill-opacity="0.87"/>
<path d="M11.482 16.3708C11.4727 16.4894 11.371 16.5795 11.2519 16.5795H11.2323L8.95126 16.3914L8.71657 16.372L8.48188 16.3526L5.09564 16.0733C4.96847 16.063 4.87366 15.9525 4.88523 15.827C4.89563 15.7017 5.00547 15.6081 5.13494 15.6196L8.60443 15.9046L8.83912 15.9239L9.07381 15.9433L11.2716 16.1246C11.3987 16.1348 11.4924 16.2455 11.482 16.3708Z" fill="black" fill-opacity="0.87"/>
<path d="M11.4901 17.9422C11.4959 18.0677 11.3977 18.1736 11.2693 18.1793L8.42877 18.3047L8.18598 18.3162L7.94435 18.3264L5.11766 18.4519H5.10726C4.98471 18.4519 4.88182 18.356 4.8772 18.2341C4.87142 18.1075 4.96969 18.0015 5.09685 17.9958L8.07037 17.8647L8.31315 17.8545L8.55478 17.8431L11.2485 17.7245C11.3792 17.7176 11.4844 17.8157 11.4901 17.9422Z" fill="black" fill-opacity="0.87"/>
<path d="M33.0088 13.1424L29.863 14.3417L29.6468 14.4238L29.4295 14.507L27.2653 15.3313C27.2375 15.3416 27.2097 15.3472 27.182 15.3472C27.0896 15.3472 27.0016 15.2914 26.9658 15.2013C26.9196 15.0839 26.9796 14.9517 27.0987 14.9061L29.3081 14.0635L29.5255 13.9814L29.7416 13.8982L32.8423 12.7172C32.9602 12.6716 33.0955 12.7297 33.1418 12.8471C33.1869 12.9646 33.1279 13.0968 33.0088 13.1424Z" fill="black" fill-opacity="0.87"/>
<path d="M34.0089 15.8273C34.0193 15.9527 33.9245 16.0633 33.7973 16.0735L30.4111 16.3529L30.1775 16.3723L29.9428 16.3916L27.6606 16.5797H27.641C27.5231 16.5797 27.4214 16.4897 27.4109 16.3711C27.4005 16.2457 27.4954 16.1351 27.6225 16.1248L29.8203 15.9436L30.055 15.9242L30.2885 15.906L33.7591 15.6198C33.8863 15.6072 33.9985 15.7018 34.0089 15.8273Z" fill="black" fill-opacity="0.87"/>
<path d="M34.0173 18.2338C34.0114 18.3558 33.9097 18.4516 33.786 18.4516H33.7756L30.9489 18.3262L30.7085 18.3159L30.4657 18.3045L27.624 18.1792C27.4968 18.1734 27.3973 18.0674 27.4031 17.942C27.4089 17.8154 27.5141 17.7196 27.6448 17.7243L30.3397 17.8428L30.5813 17.8542L30.8229 17.8645L33.7965 17.9955C33.9247 18.0012 34.023 18.1073 34.0173 18.2338Z" fill="black" fill-opacity="0.87"/>
<path d="M26.0371 23.5796C26.125 23.8304 26.2012 24.136 26.2255 24.486C26.2544 24.8976 26.2024 25.2555 26.1307 25.5393L26.0371 23.5796Z" fill="#F4E041"/>
<path d="M26.1322 25.7672C26.1137 25.7672 26.0952 25.7649 26.0767 25.7604C25.9531 25.7306 25.8767 25.6064 25.908 25.4845C25.9889 25.1595 26.0189 24.8289 25.9958 24.5017C25.9761 24.2178 25.9161 23.9328 25.8189 23.6546C25.7772 23.5361 25.8409 23.4061 25.9622 23.3651C26.0837 23.324 26.2143 23.3867 26.2558 23.5065C26.3668 23.8222 26.4339 24.1471 26.457 24.4709C26.4837 24.846 26.4489 25.2233 26.3565 25.595C26.3298 25.6976 26.235 25.7672 26.1322 25.7672Z" fill="black" fill-opacity="0.87"/>
<path d="M27.5447 23.4893C27.6857 23.7139 27.8084 23.9874 27.8465 24.3009C27.8928 24.6692 27.8095 24.9896 27.695 25.2449L27.5447 23.4893Z" fill="#F4E041"/>
<path d="M27.6951 25.4718C27.6638 25.4718 27.6326 25.465 27.6013 25.4524C27.4846 25.4011 27.4314 25.2666 27.4834 25.1515C27.606 24.8779 27.65 24.6008 27.6164 24.3272C27.5863 24.0878 27.4962 23.8461 27.3471 23.6078C27.28 23.5007 27.3135 23.3604 27.4222 23.2943C27.5309 23.2282 27.6731 23.2613 27.7402 23.3684C27.9251 23.6625 28.0372 23.967 28.0754 24.2725C28.1193 24.6282 28.0627 24.9862 27.9066 25.3361C27.8684 25.4217 27.7841 25.4718 27.6951 25.4718Z" fill="black" fill-opacity="0.87"/>
<path d="M12.8595 23.5796C12.7716 23.8304 12.6953 24.136 12.671 24.486C12.6421 24.8976 12.6941 25.2555 12.7657 25.5393L12.8595 23.5796Z" fill="#F4E041"/>
<path d="M12.764 25.7673C12.66 25.7673 12.5663 25.6976 12.5397 25.594C12.4472 25.2235 12.4125 24.845 12.4391 24.4698C12.4611 24.145 12.5293 23.8211 12.6403 23.5054C12.682 23.3868 12.8138 23.3229 12.9339 23.364C13.0542 23.405 13.1189 23.535 13.0773 23.6536C12.9802 23.9317 12.92 24.2156 12.9004 24.5006C12.8773 24.8278 12.9074 25.1585 12.9883 25.4834C13.0184 25.6054 12.9432 25.7295 12.8195 25.7593C12.801 25.765 12.7825 25.7673 12.764 25.7673Z" fill="black" fill-opacity="0.87"/>
<path d="M11.3514 23.4893C11.2103 23.7139 11.0878 23.9874 11.0496 24.3009C11.0034 24.6692 11.0866 24.9896 11.2011 25.2449L11.3514 23.4893Z" fill="#F4E041"/>
<path d="M11.2009 25.4718C11.1119 25.4718 11.0275 25.4205 10.9893 25.3361C10.8333 24.9872 10.7754 24.6293 10.8205 24.2725C10.8587 23.967 10.9708 23.6637 11.1558 23.3684C11.2229 23.2613 11.3651 23.2282 11.4737 23.2943C11.5824 23.3604 11.6159 23.5007 11.5489 23.6078C11.3997 23.845 11.3096 24.0878 11.2795 24.3272C11.246 24.6008 11.2899 24.8779 11.4125 25.1515C11.4645 25.2666 11.4113 25.4011 11.2945 25.4524C11.2633 25.4661 11.2321 25.4718 11.2009 25.4718Z" fill="black" fill-opacity="0.87"/>
<path d="M8.39277 22.7983H0.245942C0.110674 22.7983 0 22.7109 0 22.6042C0 22.4974 0.110674 22.4102 0.245942 22.4102H8.39277C8.52803 22.4102 8.63871 22.4974 8.63871 22.6042C8.63871 22.7109 8.52803 22.7983 8.39277 22.7983Z" fill="black" fill-opacity="0.87"/>
<path d="M38.0543 22.8397H30.3951C30.2679 22.8397 30.1638 22.7372 30.1638 22.6118C30.1638 22.4864 30.2679 22.3838 30.3951 22.3838H38.0543C38.1815 22.3838 38.2855 22.4864 38.2855 22.6118C38.2855 22.7372 38.1826 22.8397 38.0543 22.8397Z" fill="black" fill-opacity="0.87"/>
<path d="M21.8015 18.6444C21.635 19.0707 21.25 19.5324 20.7611 19.6021C20.309 19.6647 19.8927 19.4264 19.5934 19.0559C19.5645 19.1345 19.5286 19.2155 19.4824 19.2964C19.4072 19.4288 19.0038 20.083 18.3309 20.083H18.3123C17.6719 20.0717 17.1159 19.496 17.0187 18.7424C17.0037 18.617 17.0927 18.503 17.2198 18.4881C17.3448 18.4722 17.4627 18.5611 17.4777 18.6854C17.5517 19.2668 17.9645 19.6213 18.3204 19.6271H18.3297C18.7541 19.6271 19.0465 19.1312 19.0789 19.0742C19.2384 18.7914 19.2349 18.5018 19.206 18.3115C19.1957 18.2762 19.1864 18.2408 19.1771 18.2055C18.7321 18.2568 18.3483 18.1029 18.2777 17.8223C18.1979 17.5032 18.5552 17.1407 19.0766 17.013C19.5991 16.8853 20.087 17.0403 20.1668 17.3596C20.2338 17.6229 20.0037 17.9147 19.6292 18.0812C19.6407 18.1233 19.6512 18.1736 19.6604 18.2282C19.8476 18.8416 20.3264 19.2007 20.6962 19.1505C20.983 19.1095 21.2523 18.7822 21.3691 18.4813C21.4686 18.2259 21.4547 17.9854 21.4258 17.8292C21.4039 17.705 21.487 17.5864 21.6119 17.5636C21.7391 17.5419 21.8582 17.624 21.8813 17.7471C21.9206 17.9615 21.9391 18.2898 21.8015 18.6444Z" fill="black" fill-opacity="0.87"/>
<path d="M47.5268 11.1482C47.5268 11.9244 47.2737 12.6243 46.7661 13.251C46.2583 13.8776 45.581 14.3032 44.7338 14.5258C44.3681 14.6218 43.9699 14.6904 43.5378 14.7331C43.1058 14.7758 42.6244 14.7972 42.0935 14.7972L42.1089 18.167H40.7788C40.7835 17.8483 40.7927 17.2582 40.8035 16.3952C40.8143 15.5321 40.819 14.1979 40.819 12.3925C40.819 11.8192 40.8158 11.1147 40.8112 10.2821C40.8051 9.44653 40.7943 8.51943 40.7788 7.49933C41.0103 7.49475 41.2356 7.4917 41.4593 7.4917C41.6831 7.4917 41.8636 7.4917 42.0025 7.4917C42.9314 7.4917 43.7215 7.54964 44.3742 7.66706C45.027 7.78446 45.5748 7.9827 46.0207 8.26478C46.5099 8.56671 46.8817 8.96163 47.1394 9.44805C47.3971 9.93294 47.5268 10.5002 47.5268 11.1482ZM46.1565 11.1482C46.1565 10.6008 46.03 10.1358 45.7769 9.74997C45.5239 9.36571 45.1366 9.06075 44.6165 8.83812C44.294 8.69936 43.9453 8.61397 43.5687 8.5789C43.1923 8.54383 42.8049 8.52706 42.4083 8.52706C42.3605 8.52706 42.3112 8.52706 42.2633 8.52706C42.2155 8.52706 42.163 8.52706 42.1106 8.52706C42.1106 8.585 42.1043 8.98451 42.0951 9.72252C42.0843 10.4605 42.0797 11.0445 42.0797 11.4746C42.0797 11.868 42.0812 12.3315 42.0843 12.8683C42.0873 13.405 42.089 13.7099 42.089 13.7847C42.1368 13.7847 42.1938 13.7847 42.2587 13.7847C42.3235 13.7847 42.3744 13.7847 42.4115 13.7847C42.771 13.7847 43.1552 13.7603 43.5611 13.7129C43.9669 13.6657 44.3141 13.5773 44.6057 13.4507C45.1102 13.2388 45.4961 12.9429 45.763 12.5663C46.0238 12.1897 46.1565 11.717 46.1565 11.1482Z" fill="black" fill-opacity="0.87"/>
<path d="M56.4453 18.1673H55.2124V17.2432L55.2047 17.2356C54.8282 17.4796 54.3591 17.7311 53.7973 17.9889C53.2357 18.2466 52.6833 18.3746 52.1401 18.3746C51.3978 18.3746 50.8176 18.1566 50.398 17.722C49.9782 17.2858 49.7683 16.676 49.7683 15.8892C49.7683 15.4638 49.773 14.959 49.7806 14.3719C49.7884 13.7849 49.7931 13.3594 49.7931 13.0926C49.7931 12.6093 49.7869 12.013 49.773 11.304C49.759 10.5949 49.7529 10.1954 49.7529 10.1055H51.026C51.026 10.1741 51.0214 10.5568 51.0106 11.2521C50.9998 11.9475 50.9936 12.5025 50.9936 12.9173C50.9936 13.2832 50.9966 13.7407 51.0013 14.2881C51.0059 14.8355 51.0089 15.2228 51.0089 15.4515C51.0197 16.0783 51.1293 16.5372 51.3392 16.8299C51.5491 17.1228 51.887 17.2676 52.3546 17.2676C52.8329 17.2676 53.3576 17.1395 53.93 16.8848C54.5026 16.6302 54.9223 16.4075 55.1923 16.2154C55.1923 16.1514 55.1954 15.8586 55.2 15.3356C55.2047 14.8126 55.2078 14.16 55.2078 13.3793C55.2078 12.8212 55.2016 12.1533 55.1877 11.3756C55.1738 10.598 55.1676 10.1741 55.1676 10.1055H56.4407C56.4407 10.1954 56.4361 10.4943 56.4253 11.0021C56.4145 11.5098 56.4082 12.3744 56.4082 13.5959C56.4082 14.2804 56.4114 14.8827 56.416 15.3997C56.4268 15.9166 56.4345 16.8391 56.4453 18.1673Z" fill="black" fill-opacity="0.87"/>
<path d="M66.4772 13.8885C66.4772 14.7119 66.2919 15.4118 65.9201 15.9882C65.5482 16.5646 65.0498 17.0205 64.4203 17.3544C63.8725 17.6411 63.2706 17.8439 62.6148 17.9597C61.959 18.0772 61.3355 18.1351 60.7445 18.1351L60.7769 21.7917H59.4946C59.5009 21.7017 59.507 20.9668 59.5147 19.5883C59.5225 18.2099 59.527 16.8283 59.527 15.4423C59.527 14.7469 59.524 13.9372 59.5193 13.0163C59.5132 12.0953 59.5054 11.1026 59.4946 10.0413C59.6675 10.0367 59.8372 10.0337 60.0069 10.0337C60.1767 10.0337 60.3063 10.0337 60.3974 10.0337C61.5253 10.0337 62.4019 10.0916 63.0253 10.2091C63.6486 10.3265 64.2149 10.5323 64.7257 10.8297C65.2689 11.1438 65.6963 11.5616 66.0081 12.0846C66.3213 12.6076 66.4772 13.2099 66.4772 13.8885ZM65.1871 13.9327C65.1871 13.4127 65.0636 12.9568 64.8168 12.5649C64.5699 12.173 64.2474 11.862 63.8492 11.6348C63.4897 11.4335 63.0792 11.2856 62.6194 11.1926C62.1596 11.0996 61.6611 11.0538 61.1241 11.0538C61.0655 11.0538 61.0054 11.0538 60.9467 11.0538C60.8881 11.0538 60.8264 11.0538 60.7616 11.0538C60.7616 11.1438 60.7569 11.4579 60.7492 11.9961C60.7415 12.5344 60.7369 13.4646 60.7369 14.7851C60.7369 15.0611 60.7384 15.4483 60.7415 15.947C60.7445 16.4456 60.7461 16.8436 60.7461 17.141C61.2507 17.141 61.7568 17.0951 62.2614 17.0021C62.766 16.9092 63.1827 16.7825 63.5113 16.624C64.0591 16.3587 64.4758 16.0065 64.7612 15.5658C65.0436 15.1236 65.1871 14.5807 65.1871 13.9327Z" fill="black" fill-opacity="0.87"/>
<path d="M75.6218 10.4117C74.9181 11.9899 74.1713 13.6627 73.3842 15.4299C72.5973 17.1971 72.1899 18.109 72.1621 18.1685H71.2193C71.1931 18.1044 70.7996 17.2413 70.0419 15.5778C69.2843 13.9142 68.5126 12.2201 67.7288 10.4925L68.9108 9.96338L71.7439 16.5995H71.7594L74.5107 9.97711L75.6218 10.4117Z" fill="black" fill-opacity="0.87"/>
<path d="M84.8162 14.1355C84.8162 14.7515 84.7051 15.3416 84.4814 15.9043C84.2576 16.467 83.9368 16.9473 83.5185 17.3468C83.1636 17.6808 82.7701 17.9369 82.338 18.1123C81.906 18.2876 81.4153 18.3745 80.866 18.3745C80.3505 18.3745 79.8661 18.2876 79.4155 18.1153C78.9633 17.943 78.5606 17.6899 78.2057 17.3544C77.7968 16.9672 77.4819 16.4884 77.2582 15.9211C77.0344 15.3523 76.9233 14.7531 76.9233 14.1203C76.9233 13.5104 77.0191 12.9476 77.2089 12.4353C77.4002 11.923 77.6965 11.4625 78.0993 11.0523C78.4588 10.6802 78.8784 10.3951 79.3568 10.1954C79.8352 9.9956 80.3414 9.89648 80.8721 9.89648C81.4307 9.89648 81.9385 9.98797 82.392 10.171C82.8458 10.3539 83.25 10.6284 83.605 10.9959C84.0139 11.4152 84.3179 11.8864 84.5153 12.4094C84.7159 12.9339 84.8162 13.5088 84.8162 14.1355ZM83.5263 14.1919C83.5263 13.6933 83.4445 13.2069 83.2809 12.7342C83.1173 12.2615 82.8627 11.8635 82.5187 11.5387C82.3088 11.3374 82.0604 11.1819 81.7733 11.0721C81.4863 10.9639 81.1854 10.909 80.8737 10.909C80.5033 10.909 80.1808 10.9669 79.9062 11.0843C79.6315 11.2017 79.3738 11.3847 79.1315 11.6348C78.8461 11.9215 78.6224 12.2874 78.4588 12.7342C78.2952 13.1809 78.2134 13.643 78.2134 14.1203C78.2134 14.6615 78.2967 15.1602 78.4634 15.6146C78.63 16.069 78.8985 16.4609 79.2688 16.7903C79.4787 16.9762 79.721 17.118 79.9941 17.2172C80.2673 17.3163 80.5589 17.365 80.8644 17.365C81.2024 17.365 81.5187 17.3071 81.8118 17.1898C82.1051 17.0723 82.3612 16.9031 82.5819 16.6805C82.889 16.3724 83.122 16.0004 83.284 15.5658C83.4445 15.1266 83.5263 14.6692 83.5263 14.1919Z" fill="black" fill-opacity="0.87"/>
<path d="M91.5722 17.1787L91.4271 18.1897C91.3901 18.1959 91.2976 18.2004 91.1493 18.2065C91.0012 18.2111 90.8732 18.2141 90.7667 18.2141C89.6649 18.2141 88.8317 17.9869 88.2669 17.5325C87.7021 17.0781 87.4197 16.3813 87.4197 15.442C87.4197 14.8519 87.4243 14.2206 87.4321 13.5467C87.4398 12.8726 87.4444 12.0355 87.4444 11.0368H86.0896V10.1051H87.517V8.21582H88.6867V10.1036H91.5737V11.0352H88.6867C88.6867 11.1465 88.682 11.479 88.6742 12.0309C88.6666 12.5829 88.6619 12.9916 88.6619 13.2585C88.6619 13.4811 88.6619 13.7555 88.6619 14.0787C88.6619 14.4021 88.6619 14.7878 88.6619 15.2346C88.6619 15.9254 88.8501 16.4224 89.2267 16.729C89.6032 17.0339 90.1834 17.1864 90.9688 17.1864C91.0661 17.1864 91.1818 17.1849 91.316 17.1819C91.4487 17.1802 91.5352 17.1787 91.5722 17.1787Z" fill="black" fill-opacity="0.87"/>
<path d="M99.9999 13.8411H94.1716C94.1763 14.4038 94.2982 14.9207 94.5343 15.3903C94.7704 15.8601 95.1329 16.2489 95.6221 16.5568C95.9338 16.7536 96.2888 16.9014 96.6869 16.9991C97.0849 17.0982 97.5633 17.1469 98.1219 17.1469C98.429 17.1469 98.7083 17.1394 98.9645 17.1226C99.2191 17.1058 99.3765 17.0967 99.4366 17.0905L99.2916 18.1504C99.2484 18.1564 99.1065 18.1656 98.8642 18.1778C98.6219 18.1915 98.338 18.1976 98.0093 18.1976C97.1498 18.1976 96.4014 18.0878 95.7641 17.8667C95.1268 17.6456 94.6052 17.3422 94.1963 16.9548C93.8476 16.6316 93.5497 16.2169 93.306 15.7121C93.0606 15.2074 92.9387 14.6478 92.9387 14.0317C92.9387 13.4264 93.0297 12.879 93.2133 12.391C93.3955 11.9031 93.6701 11.4487 94.0358 11.0294C94.3538 10.668 94.7472 10.3889 95.2163 10.1922C95.6869 9.99553 96.1746 9.89795 96.6792 9.89795C97.1791 9.89795 97.622 9.97266 98.0093 10.1206C98.3966 10.27 98.7315 10.4957 99.017 10.7976C99.3333 11.1376 99.5756 11.5554 99.7423 12.0525C99.9089 12.5496 99.9952 13.1459 99.9999 13.8411ZM98.7516 12.9491C98.6651 12.2904 98.4383 11.7735 98.0695 11.3999C97.7007 11.0248 97.2161 10.8388 96.6143 10.8388C96.0125 10.8388 95.5095 11.0294 95.1067 11.4091C94.704 11.7887 94.4247 12.3026 94.2688 12.9507H98.7516V12.9491Z" fill="black" fill-opacity="0.87"/>
</svg>
