<svg viewBox="0 0 387 340" fill="none" xmlns="http://www.w3.org/2000/svg">
<path d="M184.04 19.34H94.49C92.2809 19.34 90.49 21.1309 90.49 23.34V106.39C90.49 108.599 92.2808 110.39 94.49 110.39H184.04C186.249 110.39 188.04 108.599 188.04 106.39V23.34C188.04 21.1309 186.249 19.34 184.04 19.34Z" fill="#112B46"/>
<path d="M184.04 19.34H94.49C92.2809 19.34 90.49 21.1309 90.49 23.34V24.97C90.49 27.1792 92.2808 28.97 94.49 28.97H184.04C186.249 28.97 188.04 27.1792 188.04 24.97V23.34C188.04 21.1309 186.249 19.34 184.04 19.34Z" fill="#1D262D"/>
<path d="M166.95 24.27C166.95 25.24 166.16 26.04 165.18 26.04C164.2 26.04 163.41 25.25 163.41 24.27C163.41 23.29 164.2 22.5 165.18 22.5C166.16 22.5 166.95 23.29 166.95 24.27Z" fill="#606BF1"/>
<path d="M174.32 24.27C174.32 25.24 173.53 26.04 172.55 26.04C171.58 26.04 170.78 25.25 170.78 24.27C170.78 23.29 171.57 22.5 172.55 22.5C173.53 22.5 174.32 23.29 174.32 24.27Z" fill="#F4E041"/>
<path d="M181.17 24.45C181.17 25.42 180.38 26.22 179.4 26.22C178.42 26.22 177.63 25.43 177.63 24.45C177.63 23.48 178.42 22.68 179.4 22.68C180.38 22.69 181.17 23.48 181.17 24.45Z" fill="#EA5924"/>
<path d="M121.65 37.92H107.83V39.08H121.65V37.92Z" fill="#EA5924"/>
<path d="M137.87 37.92H124.05V39.08H137.87V37.92Z" fill="#F4E041"/>
<path d="M133.54 44.1801H112.11V45.3401H133.54V44.1801Z" fill="#606BF1"/>
<path d="M147.97 44.1801H137.08V45.3401H147.97V44.1801Z" fill="#EA5924"/>
<path d="M128.95 50.4401H119.54V51.6001H128.95V50.4401Z" fill="#F4E041"/>
<path d="M165.61 50.4401H134.39V51.6001H165.61V50.4401Z" fill="#F4E041"/>
<path d="M162.53 56.6901H126.85V57.8501H162.53V56.6901Z" fill="#606BF1"/>
<path d="M128.91 62.9501H117.93V64.1101H128.91V62.9501Z" fill="#EA5924"/>
<path d="M144.59 62.9501H133.61V64.1101H144.59V62.9501Z" fill="#606BF1"/>
<path d="M123.8 95.4001H107.83V96.5601H123.8V95.4001Z" fill="#EA5924"/>
<path d="M145.37 95.4001H129.4V96.5601H145.37V95.4001Z" fill="#F4E041"/>
<path d="M166.36 95.4001H150.39V96.5601H166.36V95.4001Z" fill="#EA5924"/>
<path d="M143.33 89.1501H112.11V90.3101H143.33V89.1501Z" fill="#606BF1"/>
<path d="M179.41 89.1501H148.19V90.3101H179.41V89.1501Z" fill="#EA5924"/>
<path d="M150.52 82.8901H119.54V84.0501H150.52V82.8901Z" fill="#EA5924"/>
<path d="M161.84 82.8901H153.22V84.0501H161.84V82.8901Z" fill="#F4E041"/>
<path d="M129.18 76.6401H117.52V77.8001H129.18V76.6401Z" fill="#F4E041"/>
<path d="M147.03 76.6401H135.37V77.8001H147.03V76.6401Z" fill="#606BF1"/>
<path d="M166.19 76.6401H154.53V77.8001H166.19V76.6401Z" fill="#EA5924"/>
<path d="M147.38 70.3801H131.03V71.5401H147.38V70.3801Z" fill="#F4E041"/>
<path d="M124.86 70.3801H108.51V71.5401H124.86V70.3801Z" fill="#606BF1"/>
<path d="M100.28 36.8101H98.79V38.3001H100.28V36.8101Z" fill="#F9FBFC"/>
<path d="M100.28 91.35H98.79V88.32H100.28V91.35ZM100.28 83.77H98.79V80.74H100.28V83.77ZM100.28 76.19H98.79V73.16H100.28V76.19ZM100.28 68.61H98.79V65.58H100.28V68.61ZM100.28 61.03H98.79V58H100.28V61.03ZM100.28 53.46H98.79V50.43H100.28V53.46ZM100.28 45.88H98.79V42.85H100.28V45.88Z" fill="#F9FBFC"/>
<path d="M100.28 95.9001H98.79V97.3901H100.28V95.9001Z" fill="#F9FBFC"/>
<path d="M285.36 0H213.03C210.821 0 209.03 1.79086 209.03 4V45.51C209.03 47.7191 210.821 49.51 213.03 49.51H285.36C287.569 49.51 289.36 47.7191 289.36 45.51V4C289.36 1.79086 287.569 0 285.36 0Z" fill="#EA5924"/>
<path d="M240.23 19.92L230.67 24L240.23 28.02L238.98 30.91L227.52 25.79V22.25L238.98 17.1L240.23 19.92Z" fill="#F9FBFC"/>
<path d="M254.31 10.48L247.37 37.13L244.07 36.36L251.04 9.73999L254.31 10.48Z" fill="#F9FBFC"/>
<path d="M270.9 22.24V25.78L259.44 30.9L258.19 28.01L267.72 23.99L258.19 19.91L259.44 17.08L270.9 22.24Z" fill="#F9FBFC"/>
<path d="M328.35 95.93H290.6C288.391 95.93 286.6 97.7209 286.6 99.93V124.53C286.6 126.739 288.391 128.53 290.6 128.53H328.35C330.559 128.53 332.35 126.739 332.35 124.53V99.93C332.35 97.7209 330.559 95.93 328.35 95.93Z" fill="#606BF1"/>
<path d="M305.74 102.96C304.27 102.96 303.78 103.36 303.78 104.46V109.37C303.78 111.29 302.99 111.87 301.65 112.24C302.98 112.59 303.78 113.17 303.78 115.07V119.98C303.78 121.08 304.29 121.48 305.74 121.48V123.63C302.03 123.63 300.97 122.44 300.97 119.96V115.31C300.97 113.98 300.62 113.46 299.41 113.46V111C300.62 111 300.97 110.46 300.97 109.13V104.48C300.97 101.98 302.02 100.81 305.74 100.81V102.96Z" fill="#F1F2F2"/>
<path d="M317.98 104.48V109.13C317.98 110.46 318.33 111 319.57 111V113.45C318.33 113.45 317.98 113.96 317.98 115.3V119.95C317.98 122.43 316.93 123.62 313.21 123.62V121.47C314.66 121.47 315.17 121.07 315.17 119.97V115.06C315.17 113.17 315.96 112.58 317.3 112.23C315.97 111.86 315.17 111.27 315.17 109.36V104.45C315.17 103.35 314.68 102.95 313.21 102.95V100.8C316.93 100.81 317.98 101.98 317.98 104.48Z" fill="#F1F2F2"/>
<path d="M106.77 7.09998H63.4399C61.2308 7.09998 59.4399 8.89084 59.4399 11.1V37.43C59.4399 39.6391 61.2308 41.43 63.4399 41.43H106.77C108.979 41.43 110.77 39.6391 110.77 37.43V11.1C110.77 8.89084 108.979 7.09998 106.77 7.09998Z" fill="#F4E041"/>
<path d="M76.43 16.96C73.98 20.03 74.02 24.51 76.51 27.54C79.35 30.98 84.21 31.54 87.7 29.21L93.09 34.6C93.32 34.83 93.69 34.83 93.91 34.6L95.42 33.09C95.65 32.86 95.65 32.49 95.42 32.27L90.03 26.88C92.21 23.61 91.86 19.14 88.98 16.25C85.47 12.73 79.61 12.97 76.43 16.96ZM87.24 26.41C84.92 28.73 81.14 28.73 78.82 26.41C76.5 24.09 76.5 20.31 78.82 17.99C81.14 15.67 84.92 15.67 87.24 17.99C89.56 20.3 89.56 24.08 87.24 26.41Z" fill="#F9FBFC"/>
<path d="M260.08 113.15C259.97 114.28 258.42 126.12 246.24 126.12C233.46 126.12 235.6 113.47 235.6 113.47L235.58 113.39C236.83 113.13 238.17 113.04 239.59 113.2V107.21L254.1 99.09H254.63V113.07C254.63 113.07 256.93 112.8 260.08 113.15Z" fill="url(#paint0_radial)"/>
<path d="M253.04 72.34C255.1 74.43 256.65 77.13 257.4 80.42C258.79 86.57 257.48 93.07 255.7 98.99C255.4 100 255.05 101.03 254.42 101.88C253.97 102.49 253.4 102.99 252.83 103.49C250.25 105.74 247.67 107.99 245.09 110.24C243.34 111.77 232.6 113.04 230.55 111.57C222.65 105.92 221.13 89.55 222.71 81.18C225.34 67.31 243.18 62.34 253.04 72.34Z" fill="url(#paint1_radial)"/>
<path d="M248.6 90.11C248.71 88.77 250.08 87.31 251.46 88.18C252.89 89.08 252.55 91.45 251.96 92.76C251.5 93.78 249.94 94.91 248.89 93.95C248.01 93.15 249.38 92.21 249.42 91.48C249.46 90.82 248.15 90.35 248.69 89.65" fill="#F7B094"/>
<path d="M248.85 96.29C250.29 96.72 252.73 95.62 253.35 93.62C253.97 91.61 253.9 89.32 253.9 89.32C253.9 89.32 254.63 91.14 254.25 94.06C253.87 96.98 252.85 99.76 250.56 99.8C248.27 99.83 248.85 96.29 248.85 96.29Z" fill="#F7B094"/>
<path d="M247.08 94.21C247.03 94.23 246.98 94.25 246.92 94.26C246.03 94.38 245.67 93.31 245.54 92.63C245.23 91.05 245.28 89.46 245.22 87.86C245.21 87.46 245.24 86.96 245.08 86.59C244.58 85.44 243.24 84.7 242.84 83.51C242.37 82.13 243.7 80.76 243.17 79.25C242.36 76.94 239.39 76.41 237.24 76.43C234.02 76.47 230.88 77.07 227.7 77.56C224.34 78.08 220.06 78.57 217.1 76.45C213.54 73.89 212.05 67.23 214.71 63.58C216.16 61.59 218.91 60.53 221.32 60.48C223.87 60.42 226.03 61.94 228.37 62.71C230.24 63.32 232.04 61.54 233.78 61.19C235.97 60.75 236.9 63.14 238.84 63.21C240.72 63.27 242.57 61.8 244.4 61.47C248.05 60.8 247.84 64.47 250.28 65.72C251.8 66.5 253.77 66.03 255.31 66.82C256.48 67.42 256.64 68.48 256.9 69.67C257.12 70.7 257.13 71.9 257.47 72.88C257.78 73.76 258.52 74.32 259.1 75.01C259.73 75.76 260.14 76.65 260.46 77.59C261.17 79.69 261.33 81.95 261.13 84.15C260.8 87.84 259.62 91.47 258.39 94.94C257.59 97.19 257.29 99.54 256.07 101.67C255.74 102.24 254.27 103.92 253.73 102.67C253.61 102.4 253.63 102.1 253.65 101.81C253.81 99.49 255.97 84.52 250.31 86.32C249.12 86.7 248.32 87.69 247.88 88.82C247.35 90.17 247.31 91.53 247.38 92.96C247.39 93.16 247.39 93.37 247.39 93.57C247.38 93.83 247.31 94.09 247.08 94.21Z" fill="#3D3D7A"/>
<path d="M239.6 111.82C246.05 110.78 250.3 105.69 250.3 105.69C250.3 105.69 248.56 114.27 239.21 114.73L239.6 111.82Z" fill="#F7B094"/>
<path d="M250.18 228.8H259.41V317.33C259.41 318.23 258.68 318.96 257.78 318.96H251.81C250.91 318.96 250.18 318.23 250.18 317.33V228.8Z" fill="#0A2033"/>
<path d="M229.42 230.06H280.16V231.45C280.16 234.94 277.33 237.76 273.85 237.76H235.74C232.25 237.76 229.43 234.93 229.43 231.45V230.06H229.42Z" fill="#30475E"/>
<path d="M250.18 308.45H259.41V328.96C259.41 329.86 258.68 330.59 257.78 330.59H251.81C250.91 330.59 250.18 329.86 250.18 328.96V308.45Z" fill="#0A2033"/>
<path d="M206.91 325.19C206.91 328.17 209.33 330.59 212.31 330.59C215.29 330.59 217.71 328.17 217.71 325.19C217.71 322.21 215.29 319.79 212.31 319.79C209.33 319.79 206.91 322.21 206.91 325.19Z" fill="#0A2033"/>
<path d="M291.87 325.19C291.87 328.17 294.29 330.59 297.27 330.59C300.25 330.59 302.67 328.17 302.67 325.19C302.67 322.21 300.25 319.79 297.27 319.79C294.29 319.79 291.87 322.21 291.87 325.19Z" fill="#0A2033"/>
<path d="M245.514 317.791H264.074V301.571H245.514V317.791Z" fill="#30475E"/>
<path d="M206.91 321.61H302.67V319.73C302.67 316.55 300.09 313.98 296.92 313.98H212.66C209.48 313.98 206.91 316.55 206.91 319.73V321.61Z" fill="#F4E041"/>
<path d="M254.79 239.58H251.59V300.13H254.79V239.58Z" fill="#30475E"/>
<path d="M291.04 164.63C288.83 164.56 287.03 166.39 287.15 168.6C287.78 179.59 285.45 206.4 275.22 215.55C262.7 226.73 227.23 225.21 227.23 225.21C227.23 225.21 221.37 232.4 233.09 234C244.81 235.6 277.83 234.53 285.81 227.08C293.54 219.86 298.13 200.95 294.67 168.04C294.48 166.15 292.94 164.69 291.04 164.63Z" fill="#F4E041"/>
<path d="M224.58 300.13L228.8 309.75L215.87 315.42L211.64 305.77L224.58 300.13Z" fill="url(#paint2_radial)"/>
<path d="M285.53 193.22C284.73 194.82 227.3 193.25 221.88 193.75C221.88 193.75 186.73 210.53 181.68 226.23C181.17 227.81 181.03 229.9 181.18 232.4C182.59 254.51 207.77 307.46 207.77 307.46L211.64 305.77L224.58 300.13L226.42 299.33C226.42 299.33 206.45 239.82 210.44 236.62C214.43 233.42 259.7 225.44 275.4 221.19C291.12 216.92 285.53 193.22 285.53 193.22Z" fill="#56548C"/>
<path d="M175.3 302.6L176.31 317.05H162.2L161.2 302.57L175.3 302.6Z" fill="url(#paint3_radial)"/>
<path d="M221.59 193.26L221.08 193.48C221.08 193.48 162.24 201.74 152.65 218.24C146.42 228.98 158.48 307.43 158.48 307.43L179.3 307.48C179.3 307.48 176.19 242.13 177.22 238.49C178.39 234.34 180.38 232.83 181.18 232.4C181.02 229.91 181.16 227.81 181.68 226.23C186.73 210.52 221.88 193.75 221.88 193.75C221.77 193.67 221.67 193.5 221.59 193.26Z" fill="#3D3D7A"/>
<path d="M278.43 138.89L274.48 139.43C274.48 139.43 273.52 150.07 271.17 160.71L222.01 179.37L221.34 182.93C221.13 182.91 220.92 182.9 220.73 182.88C220.75 183.61 220.75 184.33 220.78 185C220.89 189.11 221.16 192.06 221.59 193.24C221.67 193.48 221.77 193.66 221.88 193.74C223.22 194.83 240.6 192.72 259.4 199.62C275.7 205.61 284.84 212.14 285.26 211.27C290.39 200.63 281.06 158.83 278.43 138.89Z" fill="#EA5924"/>
<path d="M273.3 163.27C271.99 169.56 268.6 182.09 261.96 183.77C253.28 185.97 236.51 185.86 220.79 185.02C220.76 184.35 220.76 183.63 220.74 182.9C220.93 182.92 221.14 182.93 221.35 182.95L222.02 179.39L271.18 160.73C273.53 150.09 274.49 139.45 274.49 139.45C274.49 139.45 274.49 139.51 274.51 139.63C274.59 141.25 275.26 153.97 273.3 163.27Z" fill="#F4675D"/>
<path d="M224.02 123.18C223.14 124.78 221.88 141.87 221.19 158.84L211.14 149.46C215.41 141.2 224.02 123.18 224.02 123.18Z" fill="#F4675D"/>
<path d="M218 171.24C209.52 172.71 201.72 173.97 201.72 173.97L201.7 174.39C192.26 166.85 177.89 145.49 177.89 145.49C177.89 145.49 182.19 140.33 183.26 138.97C183.42 138.76 206.84 154.88 208.04 154.74C208.34 154.71 209.54 152.6 211.14 149.47L221.19 158.85C221.03 162.89 220.9 166.92 220.82 170.74C219.88 170.9 218.94 171.06 218 171.24Z" fill="#F7B094"/>
<path d="M201.72 173.97L201.51 180.97H175.95C175.95 180.97 178.49 170.98 185.41 170.98C192.33 170.98 195 174.64 195 174.64L201.72 173.97Z" fill="url(#paint4_radial)"/>
<path d="M183.07 138.81L183.26 138.97C182.19 140.33 177.89 145.49 177.89 145.49L175.22 143.6C175.22 143.6 172.28 145.39 168.86 143.52C165.3 141.59 167.5 136.97 167.68 136.42C166.99 136.61 162.72 140.07 162.05 139.7C161.38 139.33 160.88 138.12 165.66 133.41C170.42 128.7 176.91 134.75 177.1 134.75L183.07 138.81Z" fill="#F7B094"/>
<path d="M169.42 142.72C169.42 142.72 168.39 144.65 170.22 145.49C172.05 146.33 175.61 146.93 177.14 146.79C178.67 146.65 179.89 144.5 179.89 144.5L175.26 140.15H171.55L169.42 142.72Z" fill="#F7B094"/>
<path d="M169.15 143.66C169.42 142.71 172.06 143.22 173.69 143.26C174.89 143.29 175.55 142.97 175.92 142.06C176.29 141.14 174.55 139.69 174.2 140.14C173.86 140.6 174.83 141.24 174.86 141.85C174.89 142.46 173.14 142.66 171.8 142.66C170.46 142.66 168.14 143.01 168.14 143.01L169.15 143.66Z" fill="#E8987C"/>
<path d="M268.68 169.79L243.64 160.92C241.82 164.32 239.87 166.88 237.94 167.39C235.02 168.16 227.95 169.48 220.83 170.73C219.89 170.91 218.94 171.07 218 171.24C209.52 172.71 201.72 173.97 201.72 173.97L201.7 174.39V174.66L201.51 180.97V182.57C201.51 182.57 210.01 182.14 220.73 182.89C235.73 183.96 255.08 184.6 261.49 181.58C264.49 180.16 266.89 175.49 268.78 169.74C268.74 169.75 268.71 169.77 268.68 169.79Z" fill="url(#paint5_radial)"/>
<path d="M243.64 160.92L268.68 169.79L267.54 173.13L242.76 162.5L243.64 160.92Z" fill="#F7B094"/>
<path d="M243.64 160.92C241.82 164.32 239.87 166.88 237.94 167.39C235.02 168.16 227.95 169.48 220.83 170.73C220.91 166.91 221.04 162.89 221.2 158.84C221.89 141.87 223.15 124.78 224.03 123.18C225.47 120.51 229.4 114.71 235.6 113.39L235.62 113.47C235.62 113.47 233.48 126.12 246.26 126.12C258.43 126.12 259.98 114.28 260.1 113.15C266.36 113.85 275.97 116.98 277.29 129.57C277.56 132.06 277.95 135.26 278.44 138.88L274.49 139.42C274.49 139.42 272.89 157.15 268.79 169.73C268.76 169.75 268.73 169.76 268.69 169.78L243.64 160.92Z" fill="#EA5924"/>
<path d="M243.38 158.61L253.38 134.41L246.01 159.59L243.38 158.61Z" fill="#6D4B35"/>
<path d="M260.08 113.15H254.63C254.63 113.15 246.88 121.66 241.89 121.66C236.9 121.66 239.59 113.19 239.59 113.19H237.16C230.17 113.19 224.3 118.44 223.51 125.38C223.42 126.17 223.34 126.93 223.27 127.61C222.74 132.76 243.6 136.51 243.6 136.51L254.34 135.91L260.86 123.18L262.16 117.97L260.08 113.15Z" fill="#EA5924"/>
<path d="M194.34 326.49C194.83 329.09 196.63 330.94 199.23 330.46L233.93 323.99C234.81 323.83 235.39 322.98 235.22 322.1L234.65 319.02C234.65 319.02 198.15 325.41 194.32 326.47L194.34 326.49Z" fill="#F1F2F2"/>
<path d="M204.66 317.75C205.02 317.44 205.37 317.12 205.73 316.81C206.43 316.19 207.11 315.58 207.77 314.99C208.12 314.68 208.47 314.37 208.79 314.07C209.42 313.5 210.02 312.97 210.56 312.49C210.94 312.14 211.3 311.81 211.63 311.52C212.22 310.99 212.71 310.55 213.05 310.25C213.34 309.99 213.78 309.97 214.08 310.23C215.51 311.43 220.12 314.17 228.47 309C228.87 308.75 229.39 308.88 229.61 309.3L234.66 319.01C234.66 319.01 198.16 325.4 194.33 326.46C195.58 325.68 200.24 321.65 204.66 317.75Z" fill="#3D3D7A"/>
<path d="M139.69 326.15C139.75 328.8 141.24 330.91 143.89 330.85L179.18 329.99C180.07 329.97 180.78 329.23 180.76 328.33L180.68 325.2C180.68 325.2 143.63 325.69 139.68 326.13L139.69 326.15Z" fill="#F1F2F2"/>
<path d="M151.27 319.17C151.68 318.92 152.07 318.67 152.48 318.41C153.27 317.91 154.04 317.42 154.78 316.94C155.17 316.69 155.57 316.44 155.93 316.2C156.65 315.74 157.32 315.31 157.92 314.92C158.36 314.64 158.76 314.37 159.13 314.13C159.8 313.7 160.35 313.35 160.73 313.1C161.06 312.89 161.49 312.94 161.75 313.24C162.97 314.65 167.08 318.09 176.15 314.32C176.58 314.14 177.08 314.35 177.22 314.79L180.66 325.18C180.66 325.18 143.61 325.67 139.66 326.11C141.04 325.55 146.28 322.31 151.27 319.17Z" fill="#3D3D7A"/>
<path d="M114.58 182.57L95.7397 132.31H149.39L168.24 182.57H114.58Z" fill="#ABB5BA"/>
<path d="M171.55 182.57H168.24L149.39 132.31L152.4 132.44L169.84 177.94L171.55 182.57Z" fill="#8495A0"/>
<path d="M170.51 182.57H205.96L205.86 179.4C205.86 179.4 170.37 179.4 169.78 179.4" fill="#8495A0"/>
<path d="M321.56 192.16H313.02V332.39H321.56V192.16Z" fill="#8495A0"/>
<path d="M275.23 192.16H266.69V332.39H275.23V192.16Z" fill="#ABB5BA"/>
<path d="M126.79 192.16H118.25V332.39H126.79V192.16Z" fill="#8495A0"/>
<path d="M80.4599 192.16H71.9199V332.39H80.4599V192.16Z" fill="#ABB5BA"/>
<path d="M330.1 192.69H63.7398C61.4498 192.69 59.5898 190.83 59.5898 188.54V186.72C59.5898 184.43 61.4498 182.57 63.7398 182.57H330.1C332.39 182.57 334.25 184.43 334.25 186.72V188.54C334.25 190.83 332.39 192.69 330.1 192.69Z" fill="#141B56"/>
<path d="M104.7 137.59L105.61 140.04H116.3L115.38 137.59H104.7Z" fill="#8495A0"/>
<path d="M211.14 149.46L210.38 150.95L221.19 162.12V158.84L211.14 149.46Z" fill="#E8987C"/>
<path d="M383 330H4C1.79086 330 0 331.791 0 334V336C0 338.209 1.79086 340 4 340H383C385.209 340 387 338.209 387 336V334C387 331.791 385.209 330 383 330Z" fill="#A5B7C6"/>
<path d="M363.44 257.44C361.72 265.77 362.24 279.95 351.23 282.19C348.26 282.79 345.4 280.74 343.68 278.38C341.42 275.3 340.88 268.77 340.92 265.04C340.95 262.08 341.96 258.78 342.28 255.8C342.63 252.58 342.92 249.35 343.29 246.13C344.64 234.52 350.71 224.79 360.97 219C361.76 222.81 363.57 226.04 365.17 229.69C365.9 231.36 366.55 233.12 367.03 234.87C367.87 237.97 366.85 241.09 366.1 244.06C364.98 248.44 364.35 253.01 363.44 257.44Z" fill="url(#paint6_linear)"/>
<path d="M349.36 282.47C349.44 281.77 349.52 281.07 349.62 280.38C350.94 280.38 352.31 279.63 353.41 279.06C355.33 278.07 356.88 276.64 358.38 275.12C358.46 275.04 358.32 274.91 358.24 274.98C356.74 276.24 355.18 277.46 353.4 278.29C352.4 278.75 350.95 279.51 349.72 279.66C349.84 278.83 349.96 277.99 350.1 277.16C351.47 276.99 352.73 276.09 353.89 275.4C355.86 274.23 357.56 272.72 359.32 271.26C359.34 271.24 359.32 271.21 359.3 271.23C356.61 273.18 353.61 275.96 350.21 276.57C350.39 275.53 350.58 274.49 350.8 273.46C350.81 273.41 350.82 273.35 350.83 273.3C354.77 272.3 357.43 269.22 360.45 266.72C360.5 266.68 360.45 266.6 360.39 266.64C357.42 268.95 354.63 271.58 350.96 272.7C351.28 271.23 351.61 269.76 351.94 268.29C355.5 266.98 358.35 264.89 360.84 261.98C360.88 261.93 360.81 261.86 360.77 261.91C358.19 264.59 355.35 266.13 352.09 267.66C352.42 266.21 352.75 264.75 353.06 263.3C354.6 262.54 356.22 262.08 357.65 261.08C359.05 260.1 360.31 258.93 361.22 257.46C361.27 257.38 361.15 257.31 361.1 257.38C359.11 260.25 356.1 261.14 353.2 262.64C353.48 261.28 353.75 259.92 353.98 258.55C357.22 256.77 360.73 255.12 362.57 251.7C362.59 251.67 362.54 251.63 362.52 251.67C360.58 254.81 357.18 256.16 354.1 257.87C354.14 257.63 354.18 257.38 354.22 257.14C354.42 255.87 354.6 254.6 354.79 253.32C356.65 252.58 358.42 251.52 360.1 250.43C361.29 249.66 362.56 248.89 363.33 247.68C363.38 247.6 363.27 247.53 363.21 247.6C361.47 250.09 357.67 251.52 354.86 252.77C355.04 251.48 355.22 250.2 355.41 248.91C358.53 247.02 362.19 245.98 364.11 242.58C364.17 242.48 364.02 242.39 363.96 242.48C361.97 245.58 358.48 246.54 355.5 248.3C355.61 247.5 355.73 246.71 355.85 245.91C359.21 244.67 363.13 241.86 364.9 238.82C365 238.65 364.76 238.5 364.65 238.66C362.84 241.33 359.21 244.23 355.95 245.29C356.15 244 356.36 242.71 356.59 241.43C356.61 241.39 356.63 241.36 356.64 241.32C358.15 240.88 359.64 239.81 360.95 239.01C362.52 238.04 364.02 236.91 365 235.32C365.11 235.14 364.82 234.98 364.72 235.16C363.23 237.83 359.68 239.61 356.74 240.63C356.83 240.16 356.91 239.69 357 239.23C357.14 238.53 357.28 237.83 357.42 237.13C358.62 236.3 360.15 235.9 361.36 235.03C362.41 234.27 363.33 233.35 364.22 232.42C364.31 232.33 364.18 232.18 364.08 232.27C362.86 233.42 361.61 234.51 360.13 235.31C359.3 235.75 358.36 236.01 357.55 236.49C357.78 235.35 358.02 234.2 358.24 233.06C358.25 233.06 358.27 233.05 358.28 233.05C358.29 233.05 358.31 233.06 358.32 233.06C358.4 233.08 358.47 233.05 358.52 233C360.15 232.59 361.41 231.18 362.5 229.98C362.53 229.95 362.49 229.91 362.46 229.94C361.31 231.01 360 232.19 358.45 232.64C358.44 232.64 358.44 232.63 358.43 232.63C358.39 232.62 358.35 232.62 358.31 232.61C358.49 231.68 358.66 230.75 358.81 229.81C358.93 229.79 359.03 229.69 359 229.57C359.87 228.99 360.65 228.25 361.39 227.52C361.45 227.47 361.37 227.38 361.31 227.43C360.54 228.09 359.78 228.64 358.92 229.12C359.23 227.19 359.46 225.25 359.57 223.28C359.58 223.1 359.31 223.1 359.29 223.28C359.12 225.17 358.84 227.04 358.52 228.9C357.62 227.72 356.61 226.5 356.06 225.14C356.03 225.07 355.92 225.1 355.94 225.17C356.21 226.01 356.67 226.75 357.13 227.49C357.54 228.16 357.87 228.94 358.4 229.53C358.22 230.53 358.02 231.53 357.82 232.52C356.72 232.34 355.72 232.14 354.81 231.34C353.7 230.37 353.07 229.05 352.96 227.58C352.95 227.4 352.66 227.4 352.68 227.58C352.8 228.94 353.35 230.22 354.28 231.24C355.26 232.31 356.41 232.65 357.73 232.92C357.49 234.07 357.24 235.22 356.99 236.36C355.99 235.76 355.07 234.98 354.17 234.27C352.72 233.12 351.87 231.73 350.61 230.43C350.48 230.3 350.28 230.49 350.4 230.62C351.58 231.87 352.37 233.23 353.72 234.35C354.68 235.16 355.75 236.18 356.9 236.77C356.89 236.83 356.87 236.89 356.86 236.95C356.85 236.96 356.83 236.97 356.82 236.98C356.73 237.07 356.74 237.16 356.79 237.24C356.55 238.34 356.31 239.44 356.07 240.54C356.06 240.61 356.04 240.68 356.03 240.75C353.47 239.58 349.64 237.54 349.3 234.57C349.27 234.29 348.85 234.37 348.91 234.66C349.67 238.02 353.36 239.51 355.91 241.35C355.66 242.6 355.43 243.84 355.22 245.1C353.57 244.53 351.99 243.83 350.6 242.72C349.34 241.72 347.55 240.5 346.98 238.95C346.96 238.9 346.89 238.93 346.91 238.98C347.44 240.53 349.04 241.59 350.21 242.65C351.69 243.99 353.21 245.13 355.11 245.66C355.1 245.71 355.09 245.77 355.11 245.83C354.98 246.62 354.85 247.42 354.73 248.21C351.62 247.97 347.27 245.61 345.68 243.26C345.67 243.25 345.66 243.26 345.66 243.27C346.74 245.07 348.38 246.12 350.23 247.03C351.61 247.71 353.1 248.51 354.66 248.63C354.44 250.1 354.22 251.58 354 253.05C352.65 252.55 351.22 252.31 349.88 251.77C347.89 250.98 346.38 249.55 345.21 247.79C345.14 247.68 344.96 247.77 345.03 247.88C347.18 251.3 350.28 252.31 353.91 253.59C353.73 254.8 353.54 256.01 353.34 257.21C350.37 256.64 346.53 254.83 345.02 252.25C344.91 252.06 344.61 252.22 344.72 252.41C345.67 254.06 347.31 255.11 348.97 255.95C350.17 256.56 351.83 257.56 353.26 257.67C353.25 257.71 353.25 257.75 353.24 257.79C352.95 259.53 352.6 261.25 352.23 262.97C348.91 262.14 346.77 259.68 344.35 257.38C344.18 257.22 343.92 257.46 344.09 257.63C346.55 260.05 348.71 262.59 352.12 263.48C351.81 264.88 351.49 266.28 351.15 267.67C348.32 266.88 345.53 264.87 343.7 262.57C343.57 262.41 343.34 262.63 343.47 262.79C345.37 265.29 348.11 267.18 351.03 268.21C350.66 269.7 350.28 271.2 349.9 272.69C347 272.25 344.76 270.43 342.97 268.13C342.93 268.08 342.83 268.15 342.87 268.2C344.46 270.41 346.86 272.96 349.75 273.23C349.63 273.71 349.5 274.18 349.38 274.66C349.31 274.95 349.23 275.24 349.15 275.53C346.96 274.89 344.93 274.1 343.12 272.62C343.07 272.58 343.01 272.66 343.06 272.7C344.78 274.25 346.83 275.29 349.03 275.96C348.79 276.85 348.53 277.78 348.27 278.71C347.73 278.46 347.2 278.18 346.61 278C345.52 277.67 344.82 276.98 343.87 276.41C343.78 276.36 343.69 276.48 343.77 276.54C344.6 277.08 345.19 277.78 346.14 278.14C346.84 278.4 347.51 278.74 348.19 279.04C347.19 282.76 346.31 286.71 346.79 290.28C346.9 291.07 348.22 291.28 348.43 290.44C349.1 287.88 349.07 285.12 349.36 282.47Z" fill="#747DED"/>
<path d="M328.58 255.06C330.54 263.33 336.99 275.97 327.96 282.65C325.53 284.45 322.06 283.8 319.5 282.39C316.15 280.55 312.91 274.86 311.37 271.46C310.15 268.76 309.67 265.35 308.71 262.51C307.67 259.44 306.56 256.39 305.54 253.31C301.87 242.21 303.26 230.84 310.11 221.25C312.44 224.37 315.44 226.53 318.43 229.17C319.79 230.37 321.13 231.69 322.3 233.08C324.37 235.53 324.77 238.8 325.34 241.8C326.18 246.24 327.54 250.65 328.58 255.06Z" fill="url(#paint7_linear)"/>
<path d="M326.39 283.69C326.17 283.02 325.95 282.35 325.74 281.68C326.93 281.12 327.86 279.87 328.62 278.88C329.94 277.17 330.74 275.22 331.47 273.21C331.51 273.1 331.33 273.04 331.28 273.14C330.45 274.92 329.56 276.68 328.29 278.19C327.58 279.03 326.58 280.33 325.53 280.98C325.28 280.18 325.05 279.37 324.82 278.56C325.99 277.83 326.75 276.48 327.51 275.37C328.8 273.48 329.7 271.39 330.68 269.32C330.69 269.3 330.66 269.28 330.64 269.3C329.03 272.21 327.48 275.99 324.66 277.98C324.38 276.96 324.12 275.94 323.88 274.91C323.87 274.86 323.86 274.8 323.84 274.75C326.99 272.19 328.1 268.26 329.78 264.73C329.81 264.67 329.72 264.62 329.69 264.68C327.97 268.02 326.55 271.59 323.7 274.15C323.37 272.68 323.05 271.21 322.73 269.74C325.41 267.05 327.1 263.95 328.13 260.27C328.15 260.21 328.06 260.17 328.04 260.24C326.84 263.76 324.91 266.35 322.59 269.12C322.28 267.66 321.96 266.21 321.62 264.76C322.7 263.42 323.97 262.32 324.84 260.82C325.7 259.34 326.35 257.74 326.55 256.03C326.56 255.94 326.43 255.92 326.41 256.01C325.81 259.45 323.46 261.53 321.47 264.12C321.15 262.77 320.82 261.42 320.45 260.08C322.63 257.1 325.12 254.12 325.34 250.25C325.34 250.21 325.29 250.2 325.28 250.24C324.84 253.9 322.33 256.56 320.26 259.41C320.19 259.17 320.13 258.93 320.06 258.69C319.7 257.45 319.33 256.22 318.96 254.99C320.33 253.53 321.49 251.83 322.55 250.13C323.3 248.93 324.13 247.7 324.32 246.27C324.33 246.18 324.2 246.16 324.18 246.25C323.66 249.24 320.82 252.14 318.8 254.46C318.42 253.22 318.04 251.98 317.67 250.73C319.7 247.71 322.58 245.21 322.89 241.32C322.9 241.2 322.73 241.18 322.71 241.3C322.22 244.95 319.45 247.29 317.5 250.15C317.27 249.38 317.04 248.61 316.81 247.84C319.34 245.3 321.7 241.09 322.02 237.59C322.04 237.4 321.75 237.36 321.72 237.55C321.21 240.73 319.13 244.9 316.63 247.23C316.27 245.98 315.91 244.72 315.58 243.46C315.59 243.42 315.59 243.38 315.58 243.34C316.76 242.3 317.67 240.7 318.51 239.42C319.53 237.88 320.41 236.22 320.62 234.36C320.64 234.15 320.32 234.13 320.3 234.33C320.07 237.38 317.61 240.5 315.38 242.66C315.26 242.2 315.14 241.74 315.03 241.27C314.86 240.58 314.69 239.88 314.53 239.19C315.27 237.93 316.49 236.93 317.21 235.62C317.84 234.49 318.28 233.27 318.71 232.04C318.75 231.92 318.57 231.84 318.52 231.97C317.9 233.52 317.23 235.05 316.22 236.39C315.66 237.14 314.91 237.77 314.38 238.55C314.11 237.41 313.84 236.28 313.56 235.15C313.57 235.14 313.58 235.13 313.59 235.12C313.6 235.12 313.62 235.11 313.63 235.11C313.71 235.09 313.76 235.03 313.78 234.97C315.09 233.91 315.63 232.1 316.12 230.55C316.13 230.51 316.08 230.49 316.06 230.53C315.46 231.98 314.78 233.6 313.57 234.67C313.56 234.67 313.56 234.67 313.55 234.67C313.51 234.68 313.47 234.69 313.44 234.7C313.21 233.78 312.97 232.86 312.72 231.95C312.82 231.88 312.87 231.75 312.79 231.65C313.33 230.76 313.73 229.75 314.09 228.78C314.12 228.71 314.01 228.66 313.98 228.73C313.56 229.65 313.11 230.47 312.52 231.27C311.98 229.39 311.38 227.53 310.65 225.7C310.58 225.53 310.33 225.65 310.39 225.81C311.03 227.59 311.57 229.41 312.06 231.23C310.74 230.54 309.32 229.86 308.25 228.86C308.19 228.81 308.11 228.88 308.16 228.94C308.76 229.59 309.49 230.06 310.22 230.54C310.88 230.97 311.5 231.54 312.23 231.86C312.49 232.84 312.73 233.83 312.96 234.82C311.89 235.12 310.89 235.36 309.74 235.02C308.33 234.61 307.2 233.68 306.48 232.39C306.39 232.23 306.13 232.35 306.23 232.51C306.92 233.69 307.95 234.63 309.22 235.15C310.56 235.7 311.75 235.53 313.06 235.22C313.33 236.36 313.59 237.51 313.84 238.65C312.69 238.53 311.52 238.21 310.4 237.94C308.6 237.5 307.24 236.61 305.55 235.96C305.38 235.9 305.27 236.15 305.44 236.22C307.04 236.86 308.33 237.75 310.02 238.21C311.24 238.54 312.63 239.01 313.93 239.07C313.94 239.13 313.96 239.19 313.97 239.25C313.96 239.27 313.96 239.28 313.95 239.3C313.91 239.42 313.96 239.5 314.04 239.54C314.28 240.64 314.53 241.74 314.78 242.83C314.8 242.9 314.81 242.97 314.83 243.04C312.01 243.06 307.68 242.83 306.12 240.28C305.97 240.04 305.62 240.29 305.8 240.52C307.91 243.25 311.89 243.04 314.97 243.63C315.27 244.86 315.59 246.09 315.92 247.32C314.18 247.5 312.46 247.53 310.73 247.11C309.16 246.73 307.03 246.39 305.86 245.22C305.82 245.18 305.77 245.24 305.81 245.28C306.94 246.46 308.84 246.75 310.35 247.21C312.26 247.8 314.11 248.19 316.06 247.87C316.07 247.93 316.09 247.98 316.13 248.02C316.35 248.79 316.57 249.57 316.79 250.34C313.87 251.44 308.93 251.13 306.49 249.67C306.48 249.66 306.47 249.68 306.48 249.69C308.22 250.86 310.15 251.12 312.21 251.17C313.75 251.2 315.44 251.3 316.91 250.75C317.33 252.18 317.75 253.61 318.18 255.03C316.74 255.14 315.35 255.53 313.91 255.61C311.77 255.73 309.8 255.07 308 253.98C307.89 253.91 307.77 254.07 307.88 254.14C311.28 256.34 314.51 255.94 318.34 255.57C318.69 256.74 319.02 257.92 319.35 259.09C316.42 259.83 312.17 259.81 309.72 258.1C309.54 257.97 309.33 258.24 309.51 258.37C311.07 259.47 312.99 259.73 314.86 259.79C316.21 259.83 318.13 260.05 319.47 259.54C319.48 259.58 319.49 259.62 319.5 259.66C319.97 261.36 320.38 263.07 320.77 264.78C317.41 265.42 314.43 264.1 311.27 263.03C311.05 262.96 310.92 263.29 311.14 263.37C314.39 264.53 317.42 265.91 320.89 265.28C321.2 266.68 321.5 268.08 321.78 269.49C318.88 269.97 315.5 269.33 312.87 268.01C312.68 267.92 312.57 268.21 312.75 268.31C315.53 269.77 318.81 270.33 321.89 270.03C322.19 271.54 322.47 273.05 322.75 274.57C319.93 275.39 317.14 274.69 314.54 273.36C314.48 273.33 314.42 273.43 314.48 273.47C316.85 274.8 320.11 276.1 322.84 275.13C322.93 275.61 323.02 276.1 323.11 276.58C323.16 276.87 323.22 277.17 323.27 277.47C321.01 277.81 318.84 277.95 316.58 277.38C316.52 277.36 316.5 277.46 316.56 277.48C318.77 278.16 321.07 278.23 323.35 277.92C323.51 278.83 323.66 279.78 323.83 280.73C323.23 280.73 322.64 280.7 322.02 280.79C320.89 280.95 319.96 280.63 318.86 280.51C318.76 280.5 318.72 280.65 318.83 280.67C319.81 280.81 320.64 281.2 321.65 281.12C322.4 281.06 323.14 281.09 323.89 281.08C324.56 284.87 325.42 288.83 327.37 291.87C327.8 292.54 329.09 292.17 328.92 291.32C328.43 288.71 327.24 286.21 326.39 283.69Z" fill="#747DED"/>
<path d="M347.67 248.64C348.14 259.15 353.06 276.01 340.52 282.04C337.14 283.66 333.08 282.07 330.3 279.76C326.66 276.75 324.03 269.08 322.95 264.59C322.09 261.03 322.3 256.77 321.79 253.09C321.23 249.12 320.6 245.15 320.07 241.18C318.18 226.84 322.5 213.33 333.05 203.27C335.16 207.6 338.31 210.92 341.33 214.83C342.71 216.61 344.03 218.52 345.13 220.48C347.08 223.94 346.81 228 346.8 231.79C346.8 237.38 347.42 243.05 347.67 248.64Z" fill="url(#paint8_linear)"/>
<path d="M338.37 282.95C338.25 282.09 338.14 281.22 338.04 280.36C339.62 279.96 341.04 278.64 342.19 277.62C344.19 275.85 345.62 273.67 346.96 271.39C347.03 271.27 346.83 271.15 346.75 271.26C345.33 273.23 343.83 275.16 341.94 276.71C340.89 277.57 339.37 278.92 337.94 279.47C337.83 278.43 337.73 277.4 337.64 276.36C339.23 275.74 340.47 274.28 341.65 273.1C343.66 271.1 345.24 268.77 346.9 266.48C346.92 266.45 346.88 266.42 346.86 266.45C344.23 269.61 341.47 273.85 337.58 275.61C337.48 274.31 337.4 273 337.34 271.7C337.34 271.63 337.34 271.56 337.33 271.5C341.75 269.11 344.01 264.6 346.87 260.69C346.92 260.63 346.83 260.54 346.78 260.61C343.92 264.28 341.37 268.28 337.3 270.73C337.23 268.86 337.19 267 337.14 265.14C341.02 262.48 343.8 259.12 345.9 254.87C345.94 254.8 345.83 254.74 345.79 254.81C343.51 258.81 340.57 261.52 337.12 264.34C337.07 262.5 337.03 260.65 336.96 258.81C338.58 257.43 340.38 256.39 341.79 254.76C343.18 253.16 344.33 251.37 344.97 249.34C345 249.23 344.84 249.18 344.81 249.29C343.29 253.33 339.95 255.31 336.92 258C336.85 256.28 336.75 254.57 336.62 252.85C339.96 249.73 343.68 246.68 344.85 242.03C344.86 241.98 344.79 241.96 344.78 242.01C343.4 246.36 339.74 249.01 336.55 252C336.52 251.69 336.5 251.39 336.48 251.08C336.33 249.5 336.17 247.91 336 246.33C338.01 244.87 339.81 243.07 341.49 241.26C342.68 239.97 343.97 238.67 344.54 236.97C344.58 236.86 344.42 236.8 344.38 236.91C343.05 240.42 338.93 243.3 335.93 245.64C335.76 244.04 335.59 242.45 335.42 240.85C338.59 237.64 342.67 235.28 343.94 230.62C343.98 230.48 343.77 230.42 343.73 230.55C342.29 234.87 338.38 237.08 335.35 240.1C335.25 239.11 335.14 238.12 335.05 237.13C338.71 234.63 342.55 230.06 343.76 225.87C343.83 225.64 343.49 225.53 343.41 225.75C342.05 229.5 338.57 234.08 334.98 236.34C334.83 234.73 334.69 233.13 334.57 231.52C334.59 231.47 334.6 231.42 334.6 231.37C336.28 230.38 337.75 228.65 339.07 227.29C340.66 225.65 342.12 223.84 342.81 221.63C342.89 221.39 342.49 221.28 342.43 221.53C341.45 225.18 337.73 228.4 334.52 230.52C334.48 229.93 334.44 229.34 334.41 228.75C334.36 227.87 334.32 226.99 334.28 226.1C335.47 224.74 337.18 223.8 338.36 222.38C339.39 221.15 340.21 219.77 341.01 218.38C341.09 218.24 340.89 218.11 340.8 218.25C339.69 219.99 338.52 221.69 336.98 223.09C336.12 223.87 335.06 224.46 334.25 225.29C334.19 223.85 334.12 222.41 334.04 220.96C334.06 220.95 334.07 220.94 334.09 220.94C334.11 220.94 334.13 220.94 334.14 220.94C334.24 220.93 334.32 220.88 334.36 220.81C336.2 219.82 337.27 217.75 338.22 215.98C338.24 215.94 338.18 215.9 338.16 215.94C337.1 217.57 335.89 219.38 334.17 220.4C334.16 220.4 334.16 220.4 334.15 220.4C334.1 220.4 334.05 220.41 334 220.41C333.93 219.24 333.85 218.07 333.76 216.9C333.9 216.84 333.99 216.69 333.92 216.55C334.78 215.59 335.5 214.46 336.17 213.37C336.22 213.29 336.1 213.21 336.05 213.29C335.33 214.32 334.58 215.2 333.69 216.04C333.47 213.63 333.17 211.23 332.7 208.84C332.66 208.62 332.33 208.7 332.36 208.92C332.73 211.24 332.97 213.56 333.14 215.9C331.7 214.75 330.13 213.6 329.05 212.14C328.99 212.06 328.87 212.13 328.92 212.22C329.5 213.15 330.28 213.89 331.06 214.65C331.76 215.33 332.39 216.16 333.2 216.72C333.29 217.97 333.35 219.23 333.41 220.49C332.04 220.61 330.77 220.67 329.45 219.99C327.83 219.16 326.67 217.77 326.09 216.04C326.02 215.83 325.68 215.92 325.75 216.13C326.31 217.73 327.35 219.1 328.78 220.04C330.28 221.02 331.76 221.08 333.43 221.01C333.49 222.46 333.54 223.91 333.59 225.37C332.21 224.96 330.87 224.3 329.57 223.71C327.48 222.76 326.04 221.36 324.13 220.18C323.94 220.06 323.75 220.35 323.94 220.47C325.73 221.62 327.1 223 329.05 223.94C330.45 224.62 332.04 225.52 333.6 225.88C333.6 225.96 333.6 226.03 333.61 226.11C333.6 226.13 333.58 226.14 333.57 226.16C333.49 226.29 333.53 226.41 333.62 226.48C333.66 227.87 333.71 229.26 333.76 230.65C333.76 230.74 333.77 230.82 333.77 230.91C330.34 230.28 325.13 229 323.82 225.53C323.7 225.2 323.21 225.42 323.38 225.75C325.31 229.56 330.2 230.22 333.81 231.65C333.89 233.22 333.99 234.79 334.11 236.35C331.95 236.17 329.85 235.8 327.85 234.9C326.03 234.08 323.52 233.17 322.36 231.47C322.32 231.42 322.25 231.48 322.28 231.53C323.38 233.23 325.63 234.02 327.35 234.93C329.53 236.09 331.7 236.99 334.14 237.06C334.14 237.13 334.15 237.2 334.19 237.26C334.27 238.25 334.36 239.24 334.46 240.23C330.65 240.89 324.72 239.37 322.09 237.03C322.08 237.02 322.06 237.04 322.07 237.05C323.92 238.88 326.2 239.64 328.69 240.17C330.55 240.57 332.59 241.08 334.5 240.75C334.68 242.58 334.87 244.42 335.05 246.25C333.28 246.06 331.49 246.2 329.72 245.96C327.1 245.61 324.84 244.36 322.91 242.6C322.79 242.49 322.61 242.65 322.73 242.77C326.35 246.23 330.37 246.49 335.12 246.93C335.27 248.43 335.41 249.94 335.53 251.45C331.79 251.67 326.63 250.66 324.05 248.02C323.86 247.83 323.55 248.11 323.74 248.3C325.38 250 327.66 250.75 329.92 251.26C331.55 251.62 333.84 252.33 335.59 252.02C335.59 252.07 335.6 252.12 335.6 252.17C335.77 254.34 335.89 256.52 335.96 258.69C331.73 258.7 328.41 256.4 324.81 254.37C324.56 254.23 324.32 254.6 324.57 254.75C328.25 256.91 331.61 259.3 335.98 259.33C336.04 261.1 336.07 262.88 336.09 264.65C332.46 264.56 328.49 263 325.6 260.79C325.39 260.63 325.19 260.97 325.39 261.13C328.43 263.55 332.29 264.99 336.1 265.34C336.11 267.24 336.11 269.15 336.1 271.05C332.48 271.4 329.25 269.9 326.4 267.68C326.33 267.63 326.24 267.74 326.31 267.8C328.89 269.97 332.54 272.3 336.09 271.75C336.09 272.36 336.08 272.97 336.08 273.57C336.08 273.94 336.07 274.31 336.07 274.69C333.25 274.58 330.57 274.25 327.96 273.03C327.89 273 327.84 273.11 327.91 273.14C330.44 274.47 333.22 275.1 336.06 275.25C336.04 276.4 336.01 277.58 335.99 278.78C335.26 278.64 334.55 278.47 333.78 278.43C332.37 278.37 331.32 277.75 330.01 277.36C329.89 277.32 329.81 277.5 329.93 277.54C331.09 277.94 332.01 278.6 333.25 278.74C334.17 278.84 335.07 279.05 335.98 279.2C335.91 283.97 336.05 288.98 337.71 293.12C338.08 294.04 339.74 293.89 339.73 292.81C339.7 289.52 338.82 286.21 338.37 282.95Z" fill="#747DED"/>
<path d="M354.59 286.89L354.13 295.43L353.4 308.73L352.21 330.59H322.62L321.43 308.73L320.7 295.43L320.24 286.89H354.59Z" fill="#95A8B5"/>
<path d="M354.13 295.43L354.03 297.14L353.94 298.91L353.4 308.73H321.43L320.89 298.91L320.8 297.14L320.7 295.43H354.13Z" fill="#A5B7C6"/>
<path d="M354.03 297.14L353.94 298.91H320.89L320.8 297.14H354.03Z" fill="#95A8B5"/>
<defs>
<radialGradient id="paint0_radial" cx="0" cy="0" r="1" gradientUnits="userSpaceOnUse" gradientTransform="translate(247.775 112.604) scale(12.9255)">
<stop stop-color="#FFC8AF"/>
<stop offset="1" stop-color="#FFBB9C"/>
</radialGradient>
<radialGradient id="paint1_radial" cx="0" cy="0" r="1" gradientUnits="userSpaceOnUse" gradientTransform="translate(240.297 89.208) rotate(-12.1516) scale(20.3776)">
<stop stop-color="#FFC8AF"/>
<stop offset="1" stop-color="#FFBB9C"/>
</radialGradient>
<radialGradient id="paint2_radial" cx="0" cy="0" r="1" gradientUnits="userSpaceOnUse" gradientTransform="translate(220.218 307.773) scale(8.1259)">
<stop stop-color="#FFC8AF"/>
<stop offset="1" stop-color="#FFBB9C"/>
</radialGradient>
<radialGradient id="paint3_radial" cx="0" cy="0" r="1" gradientUnits="userSpaceOnUse" gradientTransform="translate(168.754 309.811) scale(7.4015)">
<stop stop-color="#FFC8AF"/>
<stop offset="1" stop-color="#FFBB9C"/>
</radialGradient>
<radialGradient id="paint4_radial" cx="0" cy="0" r="1" gradientUnits="userSpaceOnUse" gradientTransform="translate(213.816 170.923) scale(41.4442)">
<stop stop-color="#FFC8AF"/>
<stop offset="1" stop-color="#FFBB9C"/>
</radialGradient>
<radialGradient id="paint5_radial" cx="0" cy="0" r="1" gradientUnits="userSpaceOnUse" gradientTransform="translate(213.816 170.923) scale(41.444)">
<stop stop-color="#FFC8AF"/>
<stop offset="1" stop-color="#FFBB9C"/>
</radialGradient>
<linearGradient id="paint6_linear" x1="354.125" y1="218.998" x2="354.127" y2="282.299" gradientUnits="userSpaceOnUse">
<stop stop-color="#606BF1"/>
<stop offset="1" stop-color="#58479F"/>
</linearGradient>
<linearGradient id="paint7_linear" x1="303.916" y1="224.138" x2="330.635" y2="281.522" gradientUnits="userSpaceOnUse">
<stop stop-color="#606BF1"/>
<stop offset="1" stop-color="#58479F"/>
</linearGradient>
<linearGradient id="paint8_linear" x1="324.843" y1="205.345" x2="344.037" y2="281.295" gradientUnits="userSpaceOnUse">
<stop stop-color="#606BF1"/>
<stop offset="1" stop-color="#58479F"/>
</linearGradient>
</defs>
</svg>
