<svg viewBox="0 0 478 414" fill="none" xmlns="http://www.w3.org/2000/svg">
<path d="M459.311 382.363H422.44V382.64H459.311V382.363Z" fill="#EBEBEB"/>
<path d="M327.189 385.37H317.515V385.647H327.189V385.37Z" fill="#EBEBEB"/>
<path d="M421.326 372.058H399.963V372.335H421.326V372.058Z" fill="#EBEBEB"/>
<path d="M64.9364 373.922H16.8545V374.199H64.9364V373.922Z" fill="#EBEBEB"/>
<path d="M81.9031 373.922H74.8561V374.199H81.9031V373.922Z" fill="#EBEBEB"/>
<path d="M209.105 378.603H104.814V378.88H209.105V378.603Z" fill="#EBEBEB"/>
<path d="M232.749 36.0232C216.562 53.9381 208.547 78.3423 209.916 102.414C211.285 126.485 220.192 149.536 231.035 171.089C240.531 189.969 251.875 211.379 244.104 231.024C239.763 242.006 229.866 250.137 218.922 254.663C207.979 259.189 195.978 260.498 184.144 261.086C163.972 262.095 143.499 261.174 123.872 265.889C104.245 270.603 84.9186 282.251 77.3262 300.898C68.3866 322.873 78.5396 349.163 96.4409 364.77C114.353 380.378 138.378 387.078 161.945 390.395C194.965 395.031 228.797 393.867 261.416 386.978C287.611 381.443 313.383 372.025 334.758 355.951C356.121 339.878 372.798 316.627 377.373 290.337C381.938 264.047 373.076 234.973 352.169 218.312C343.475 211.379 332.988 206.642 325.362 198.555C317.736 190.469 313.862 177.002 320.942 168.438C325.618 162.781 333.5 161.05 340.803 160.174C376.728 155.903 416.527 163.28 446.574 143.191C463.774 131.688 474.907 112.076 477.356 91.576C479.805 71.0765 475.363 48.8908 462.405 32.7841C427.081 -11.0659 276.011 -11.8535 232.749 36.0232Z" fill="#E5F7FF"/>
<path d="M236.769 414C355.981 414 452.62 408.378 452.62 401.443C452.62 394.508 355.981 388.886 236.769 388.886C117.558 388.886 20.9182 394.508 20.9182 401.443C20.9182 408.378 117.558 414 236.769 414Z" fill="#E5F7FF"/>
<path d="M219.036 225.41L221.82 209.403L227.286 210.989L219.036 225.41Z" fill="#00BDD3"/>
<path d="M220.873 230.525L236.526 226.021L234.355 220.774L220.873 230.525Z" fill="#00BDD3"/>
<path d="M223.657 224.513L232.574 207.707L238.575 211.867L223.657 224.513Z" fill="#00BDD3"/>
<path d="M76.3377 249.715H69.2908C68.979 249.715 68.7341 249.471 68.7341 249.16C68.7341 248.85 68.979 248.606 69.2908 248.606H76.3377C76.6495 248.606 76.8944 248.85 76.8944 249.16C76.8944 249.471 76.6495 249.715 76.3377 249.715Z" fill="#00BDD3"/>
<path d="M64.6039 249.715H29.28C28.9682 249.715 28.7233 249.471 28.7233 249.16C28.7233 248.85 28.9682 248.606 29.28 248.606H64.5927C64.9045 248.606 65.1494 248.85 65.1494 249.16C65.1494 249.471 64.9045 249.715 64.6039 249.715Z" fill="#00BDD3"/>
<path d="M189.845 313.898C189.711 313.898 189.578 313.854 189.466 313.754C189.244 313.544 189.221 313.2 189.433 312.967L192.728 309.395C192.94 309.173 193.285 309.162 193.519 309.362C193.741 309.572 193.763 309.916 193.552 310.149L190.257 313.721C190.145 313.843 190.001 313.898 189.845 313.898Z" fill="#00BDD3"/>
<path d="M159.664 342.329C159.464 342.329 159.264 342.218 159.163 342.03C159.03 341.753 159.13 341.42 159.408 341.287C169.728 336.084 186.071 316.627 186.238 316.428C186.438 316.195 186.784 316.161 187.017 316.361C187.251 316.561 187.285 316.905 187.084 317.138C186.405 317.947 170.419 336.96 159.898 342.274C159.843 342.307 159.754 342.329 159.664 342.329Z" fill="#00BDD3"/>
<path d="M239.774 336.25L247.723 329.694L227.706 310.77L219.168 318.036L239.774 336.25Z" fill="#F6B69E"/>
<path d="M254.157 327.176C253.623 326.844 252.532 326.999 251.407 327.31C250.873 327.465 250.316 327.642 249.827 327.82C249.437 327.964 249.081 328.108 248.78 328.23C248.335 328.419 248.012 328.563 247.901 328.618C247.8 328.641 247.734 328.74 247.723 328.851C247.711 328.885 247.734 328.929 247.756 328.962C247.789 329.018 247.845 329.062 247.912 329.073C249.036 329.373 250.194 329.561 251.363 329.65C251.931 329.728 252.521 329.683 253.066 329.528C253.1 329.517 253.122 329.517 253.144 329.506C253.456 329.406 253.768 329.273 254.046 329.107C254.413 328.807 254.614 328.352 254.569 327.875C254.558 327.598 254.413 327.321 254.157 327.176ZM254.046 327.897C254.102 328.219 253.957 328.541 253.69 328.729C253.478 328.907 253.178 329.018 252.788 329.095C252.409 329.173 251.953 329.195 251.43 329.162C250.817 329.14 250.105 329.04 249.314 328.896C249.147 328.862 248.969 328.829 248.791 328.796C249.738 328.341 250.728 327.997 251.753 327.764C252.298 327.642 252.844 327.554 253.4 327.498C253.567 327.498 253.723 327.531 253.868 327.609C253.99 327.676 254.057 327.786 254.046 327.897Z" fill="#00BDD3"/>
<path d="M250.518 323.006C250.005 323.083 249.538 323.394 249.248 323.815C249.159 323.948 249.081 324.082 249.026 324.237C248.358 325.668 248.703 327.831 248.781 328.23C248.792 328.264 248.792 328.275 248.792 328.286C248.803 328.374 248.87 328.452 248.959 328.474C249.004 328.496 249.059 328.508 249.115 328.485C249.148 328.485 249.182 328.463 249.215 328.43C249.404 328.275 249.605 328.064 249.827 327.809C250.15 327.432 250.484 326.977 250.774 326.478C251.464 325.357 251.954 324.093 251.653 323.438C251.531 323.183 251.241 322.884 250.518 323.006ZM251.186 323.66C251.375 324.093 251.007 325.08 250.44 326.056C250.072 326.677 249.649 327.276 249.226 327.72C249.137 327.021 249.048 325.69 249.393 324.703C249.46 324.481 249.56 324.27 249.683 324.104C249.872 323.838 250.139 323.627 250.451 323.538L250.607 323.516C251.074 323.438 251.163 323.605 251.186 323.66Z" fill="#00BDD3"/>
<path d="M246.688 329.229L236.713 334.243C236.312 334.431 236.123 334.875 236.245 335.285L239.184 344.581C239.507 345.491 240.509 345.968 241.433 345.646C241.489 345.624 241.556 345.602 241.611 345.58C258.7 339.6 263.932 335.363 265.725 334.398C270.812 331.636 267.951 328.042 266.059 328.485C257.542 330.515 254.681 329.994 250.996 329.04C249.026 328.741 247.289 328.929 246.688 329.229Z" fill="#0E1F3D"/>
<path opacity="0.2" d="M227.706 310.781L237.848 319.733L229.298 326.999L219.168 318.047L227.706 310.781Z" fill="black"/>
<path d="M224.555 326.932L237.302 315.218L234.496 310.304L219.757 322.917L224.555 326.932Z" fill="#00BDD3"/>
<path opacity="0.5" d="M224.555 326.932L237.302 315.218L234.496 310.304L219.757 322.917L224.555 326.932Z" fill="white"/>
<path d="M232.494 312.024L230.791 313.488L228.241 315.673L226.716 316.96L222.274 320.765L221.417 321.486C221.417 321.486 203.259 311.292 193.151 302.584C186.227 296.616 185.603 294.397 184.879 294.952C175.116 302.351 146.216 327.931 129.84 341.242C129.305 341.298 128.782 341.353 128.237 341.386C119.486 342.03 112.606 341.065 107.263 339.035C107.207 331.957 113.285 315.429 113.786 313.832C113.786 313.832 137.955 289.893 177.109 269.66C177.499 269.46 177.899 269.305 178.289 269.139C178.801 268.917 179.302 268.706 179.825 268.518C181.874 267.741 183.878 267.264 185.826 267.164C187.574 267.076 189.277 267.386 190.913 267.963C191.837 268.285 192.75 268.684 193.63 269.15C194.409 269.538 195.166 269.993 195.901 270.459C197.114 271.224 198.283 272.078 199.385 272.921C201.879 274.841 220.793 299.123 230.969 310.326C230.969 310.338 230.969 310.338 230.969 310.338C231.503 310.97 232.015 311.524 232.494 312.024Z" fill="#00BDD3"/>
<g opacity="0.1">
<g opacity="0.1">
<g opacity="0.1">
<g opacity="0.1">
<path opacity="0.1" d="M232.494 312.024L230.791 313.488L228.241 315.673L226.716 316.96L222.274 320.765L221.417 321.486C221.417 321.486 203.259 311.292 193.151 302.584C186.227 296.616 185.603 294.397 184.879 294.952C175.116 302.351 146.216 327.931 129.84 341.242C129.305 341.298 128.782 341.353 128.237 341.386C119.486 342.03 112.606 341.065 107.263 339.035C107.207 331.957 113.285 315.429 113.786 313.832C113.786 313.832 137.955 289.893 177.109 269.66C177.499 269.46 177.899 269.305 178.289 269.139C178.801 268.917 179.302 268.706 179.825 268.518C181.874 267.741 183.878 267.264 185.826 267.164C187.574 267.076 189.277 267.386 190.913 267.963C191.837 268.285 192.75 268.684 193.63 269.15C194.409 269.538 195.166 269.993 195.901 270.459C197.114 271.224 198.283 272.078 199.385 272.921C201.879 274.841 220.793 299.123 230.969 310.326C230.969 310.338 230.969 310.338 230.969 310.338C231.503 310.97 232.015 311.524 232.494 312.024Z" fill="black"/>
</g>
</g>
</g>
</g>
<path d="M103.523 209.837C105.048 216.748 106.651 226.831 101.898 231.568C107.798 241.928 114.89 251.568 123.028 260.298C133.459 242.228 123.573 231.057 123.573 231.057C115.758 229.393 115.88 226.254 117.105 220.841L103.523 209.837Z" fill="#F6B69E"/>
<path d="M97.0656 232.444C97.6445 230.569 98.8357 228.95 100.45 227.829C102.009 226.631 118.218 226.454 122.437 227.829C124.897 228.606 126.99 230.247 128.326 232.455L97.0656 232.444Z" fill="#00BDD3"/>
<path d="M171.844 259.954L176.041 258.046L176.253 264.857C176.253 264.857 174.293 266.599 172.145 267.264C170.085 267.897 168.126 266.011 168.638 263.925C169.05 262.195 170.23 260.731 171.844 259.954Z" fill="#F6B69E"/>
<path d="M181.395 259.976L181.172 262.472C181.116 263.249 180.549 263.892 179.792 264.058L176.207 264.857L175.995 258.046L179.636 258.102C180.604 258.09 181.384 258.856 181.395 259.821C181.395 259.876 181.395 259.921 181.395 259.976Z" fill="#F6B69E"/>
<path d="M118.619 279.333C124.92 282.428 132.646 284.203 140.227 282.927C149.156 281.43 164.708 272.5 171.477 267.375L169.195 263.992C165.821 264.713 138.257 278.668 120.445 266.044C117.127 263.692 104.102 254.008 99.493 254.208C92.023 254.541 92.6687 262.339 95.8749 265.589C99.6488 269.383 113.464 276.804 118.619 279.333Z" fill="#F6B69E"/>
<g opacity="0.2">
<path opacity="0.2" d="M181.173 262.472C181.106 263.238 180.55 263.892 179.793 264.058L176.23 264.857V264.868C176.23 264.868 174.271 266.61 172.134 267.275C171.911 267.342 171.688 267.386 171.477 267.386L171.466 267.397C164.697 272.522 149.156 281.441 140.227 282.938C132.646 284.203 124.92 282.439 118.619 279.333C113.464 276.804 99.6266 269.383 95.8749 265.589C92.6687 262.339 92.023 254.552 99.493 254.208C104.091 254.008 117.127 263.692 120.445 266.044C137.433 278.08 163.283 265.944 168.571 264.169C168.582 264.092 168.593 264.003 168.616 263.925C168.827 263.06 169.217 262.261 169.773 261.574C170.308 260.897 171.02 260.331 171.822 259.943L175.974 258.057L176.019 258.046L179.626 258.09C180.583 258.079 181.374 258.856 181.374 259.821C181.374 259.865 181.374 259.91 181.374 259.965L181.173 262.472Z" fill="black"/>
<path opacity="0.2" d="M176.029 258.046L175.995 258.057V258.046H176.029Z" fill="black"/>
</g>
<path d="M141.964 243.592C151.415 264.347 129.495 270.27 139.537 304.303L91.889 305.446C92.2118 287.209 98.7133 291.125 90.1411 256.837C89.4175 253.93 88.204 245.6 91.3101 238.012C92.5235 235.062 94.6721 232.555 97.4887 231.035C101.007 229.138 116.503 230.624 123.573 231.09C131.232 230.025 140.561 240.996 141.964 243.592Z" fill="#00BDD3"/>
<path opacity="0.5" d="M141.964 243.592C151.415 264.347 129.495 270.27 139.537 304.303L91.889 305.446C92.2118 287.209 98.7133 291.125 90.1411 256.837C89.4175 253.93 88.204 245.6 91.3101 238.012C92.5235 235.062 94.6721 232.555 97.4887 231.035C101.007 229.138 116.503 230.624 123.573 231.09C131.232 230.025 140.561 240.996 141.964 243.592Z" fill="white"/>
<path d="M132.858 202.415C132.724 203.325 133.091 204.068 133.659 204.146C134.227 204.223 134.806 203.591 134.928 202.715C135.062 201.839 134.695 201.062 134.127 200.984C133.559 200.918 132.98 201.55 132.858 202.415Z" fill="#0E1F3D"/>
<path d="M133.869 201.006L136.051 200.707C136.051 200.696 134.738 202.182 133.869 201.006Z" fill="#0E1F3D"/>
<path d="M133.002 203.613C133.002 203.613 133.937 207.585 135.317 209.615C134.004 210.524 132.111 209.748 132.111 209.748L133.002 203.613Z" fill="#A02724"/>
<path d="M136.007 196.314C136.174 196.248 136.297 196.093 136.33 195.915C136.375 195.627 136.174 195.372 135.896 195.327C134.248 195.039 132.556 195.571 131.376 196.747C131.165 196.947 131.154 197.268 131.343 197.479C131.543 197.69 131.866 197.701 132.078 197.512C132.1 197.49 132.122 197.468 132.144 197.435C133.102 196.525 134.438 196.126 135.74 196.359C135.829 196.37 135.929 196.359 136.007 196.314Z" fill="#0E1F3D"/>
<path d="M104.023 195.238C103.122 206.054 102.509 210.602 107.14 216.892C114.109 226.354 127.647 225.111 131.755 214.773C135.473 205.477 136.33 189.359 126.422 183.569C119.364 179.398 110.258 181.716 106.061 188.738C104.881 190.713 104.179 192.942 104.023 195.238Z" fill="#F6B69E"/>
<path d="M132 214.119C131.176 213.431 130.552 212.521 130.196 211.479C130.163 211.368 130.23 211.246 130.352 211.201C130.463 211.168 130.586 211.235 130.619 211.357C130.942 212.255 131.476 213.043 132.167 213.675L132 214.119Z" fill="#0E1F3D"/>
<path d="M96.2861 181.172C92.1448 186.763 90.2633 188.216 95.3844 203.091C97.4439 209.07 103.422 216.991 106.328 217.712C111.538 219.02 116.603 215.371 120.522 211.699C123.951 208.482 127.235 205.01 129.317 200.806C131.398 196.602 132.167 191.566 130.452 187.206C128.582 182.47 121.98 178.243 117.037 177.201C111.226 175.98 99.7261 176.524 96.2861 181.172Z" fill="#0E1F3D"/>
<path d="M128.748 201.728C128.748 201.728 130.05 203.957 128.403 205.621L128.436 202.648L128.748 201.728Z" fill="#0E1F3D"/>
<path d="M128.727 201.728C128.727 201.728 129.206 205.144 126.333 206.42L127.881 202.726L128.727 201.728Z" fill="#0E1F3D"/>
<path d="M109.612 216.448C109.612 216.448 106.451 217.879 106.907 220.974L109.212 217.701L109.612 216.448Z" fill="#0E1F3D"/>
<path d="M109.735 216.514C109.735 216.514 107.331 218.999 108.911 221.717L109.835 217.823L109.735 216.514Z" fill="#0E1F3D"/>
<path d="M133.079 197.269C134.204 196.115 135.35 194.939 136.174 193.552C137.009 192.166 137.51 190.524 137.265 188.938C136.942 186.875 135.384 185.177 133.569 184.135C131.755 183.103 129.673 182.637 127.624 182.182C126.622 181.96 125.498 181.75 124.618 182.282C123.761 182.792 123.394 183.868 123.45 184.856C123.494 185.843 123.895 186.775 124.251 187.695C125.665 191.301 126.556 195.006 127.235 198.799C127.58 200.718 127.313 201.983 129.216 201.251C130.485 200.752 132.111 198.267 133.079 197.269Z" fill="#0E1F3D"/>
<path d="M118.096 202.604C117.985 205.111 118.864 207.551 120.556 209.404C122.816 211.855 125.688 210.247 126.512 207.208C127.269 204.479 126.98 199.92 124.018 198.611C121.057 197.291 118.252 199.553 118.096 202.604Z" fill="#F6B69E"/>
<path d="M244.361 341.242L252.956 332.889L236.324 312.046L225.926 318.158L244.361 341.242Z" fill="#F6B69E"/>
<path d="M261.728 330.316C260.771 329.983 258.812 331.048 257.331 331.991C256.952 332.224 256.618 332.457 256.329 332.656L256.307 332.668C256.251 332.712 256.207 332.745 256.162 332.778C255.828 333.011 255.583 333.189 255.494 333.255C255.383 333.311 255.338 333.422 255.36 333.533C255.394 333.644 255.494 333.721 255.605 333.732C256.63 333.777 257.654 333.744 258.678 333.633C258.912 333.61 259.134 333.588 259.357 333.555C260.103 333.499 260.815 333.255 261.428 332.845C261.65 332.701 261.862 332.545 262.04 332.368C262.363 331.98 262.474 331.447 262.318 330.959C262.252 330.682 262.029 330.438 261.728 330.316ZM261.795 331.115C261.906 331.436 261.851 331.802 261.617 332.069C261.328 332.423 260.749 332.712 259.925 332.912C259.29 333.067 258.522 333.178 257.62 333.222C257.264 333.233 256.886 333.255 256.496 333.255C256.618 333.156 256.741 333.067 256.874 332.978C256.964 332.912 257.053 332.856 257.142 332.79C258.333 331.958 259.646 331.303 261.038 330.848C261.205 330.804 261.383 330.804 261.561 330.859C261.673 330.893 261.762 330.992 261.795 331.115Z" fill="#00BDD3"/>
<path d="M256.962 326.777C256.439 326.977 256.027 327.398 255.826 327.909C255.125 329.617 256.16 332.246 256.339 332.656C256.339 332.667 256.339 332.668 256.35 332.668C256.35 332.69 256.35 332.701 256.361 332.701C256.405 332.79 256.483 332.856 256.583 332.867C256.639 332.878 256.695 332.867 256.75 332.845C256.784 332.834 256.828 332.801 256.84 332.778C256.851 332.756 256.862 332.756 256.873 332.745C257.029 332.545 257.196 332.29 257.341 331.991C258.164 330.449 258.932 327.875 258.253 326.988C258.053 326.733 257.686 326.489 256.962 326.777ZM256.684 332.024C256.383 331.148 255.849 329.284 256.339 328.131C256.472 327.809 256.706 327.531 257.018 327.365L257.173 327.287C257.652 327.099 257.775 327.265 257.819 327.321C258.298 327.964 257.552 330.593 256.684 332.024Z" fill="#00BDD3"/>
<path opacity="0.2" d="M235.445 310.77L243.282 320.765L232.684 326.644L224.724 316.916L235.445 310.77Z" fill="black"/>
<path d="M91.4537 301.83L90.3516 306.134C90.1846 306.477 90.5965 306.799 91.142 306.788L140.215 305.634C140.649 305.612 140.994 305.401 141.016 305.135L139.792 300.62C139.825 300.332 139.435 300.088 138.968 300.099L92.2441 301.463C91.9324 301.43 91.6318 301.574 91.4537 301.83Z" fill="#0E1F3D"/>
<path d="M135.117 306.145L133.826 306.278C133.57 306.267 133.358 306.2 133.358 306.045L133.336 300.487C133.336 300.332 133.548 300.177 133.804 300.143L135.095 299.999C135.351 300.01 135.563 300.077 135.563 300.243L135.585 305.801C135.574 305.956 135.373 306.111 135.117 306.145Z" fill="#00BDD3"/>
<path d="M117.55 306.366L116.258 306.5C116.002 306.488 115.802 306.422 115.791 306.267L115.78 300.709C115.78 300.554 115.991 300.398 116.247 300.365L117.527 300.221C117.784 300.232 117.995 300.299 117.995 300.465L118.017 306.023C118.017 306.2 117.806 306.333 117.55 306.366Z" fill="#00BDD3"/>
<path d="M117.55 306.366L116.258 306.5C116.002 306.488 115.802 306.422 115.791 306.267L115.78 300.709C115.78 300.554 115.991 300.398 116.247 300.365L117.527 300.221C117.784 300.232 117.995 300.299 117.995 300.465L118.017 306.023C118.017 306.2 117.806 306.333 117.55 306.366Z" fill="#00BDD3"/>
<path d="M242.024 315.24L239.853 316.461L239.842 316.472L236.112 318.568L232.761 320.443L232.75 320.454L229.31 322.384V322.395L227.997 323.139C227.997 323.139 227.696 322.928 227.173 322.54C226.972 322.395 226.739 322.229 226.471 322.029C225.659 321.419 224.512 320.565 223.187 319.511C223.187 319.511 223.187 319.511 223.187 319.5C216.263 314.054 203.939 303.327 200.276 293.587C197.905 296.405 195.066 299.932 191.815 303.837C177.822 320.665 156.057 344.415 129.907 347.509C129.372 347.587 128.849 347.632 128.304 347.676C119.564 348.43 112.673 347.554 107.307 345.59C93.7367 340.643 89.9516 328.752 90.8868 318.646V318.613C90.9647 313.887 91.8998 305.457 91.8998 305.457L141.407 305.512C148.387 297.07 162.381 283.848 176.697 275.506C177.031 275.295 177.376 275.096 177.721 274.918C178.145 274.663 178.579 274.441 179.002 274.208C183.655 271.668 188.309 269.704 192.717 268.64C193.697 268.407 194.665 268.207 195.623 268.063C196.625 267.907 197.616 267.819 198.584 267.774V267.785C205.364 267.475 211.253 269.993 215.25 276.737L241.3 314.187L242.024 315.24Z" fill="#00BDD3"/>
<path d="M215.306 263.981L160.6 266.233L162.203 231.545L216.909 229.293L215.306 263.981Z" fill="#00BDD3"/>
<path d="M214.672 266.721L160.756 268.939C159.231 269.006 158.04 267.808 158.118 266.288L159.71 231.823C159.777 230.292 161.079 229.005 162.604 228.939L216.52 226.72C218.045 226.653 219.236 227.84 219.158 229.371L217.566 263.837C217.499 265.367 216.197 266.654 214.672 266.721Z" fill="#0E1F3D"/>
<path d="M215.306 263.981L160.6 266.233L162.203 231.545L216.909 229.293L215.306 263.981Z" fill="#00BDD3"/>
<path opacity="0.9" d="M215.306 263.981L160.6 266.233L162.203 231.545L216.909 229.293L215.306 263.981Z" fill="white"/>
<path opacity="0.1" d="M181.619 228.161L172.579 268.428L176.175 268.284L185.092 228.017L181.619 228.161Z" fill="white"/>
<path opacity="0.1" d="M187.162 227.939L178.122 268.206L185.258 267.907L194.175 227.651L187.162 227.939Z" fill="white"/>
<path d="M197.548 267.153L215.761 266.643C216.073 268.751 215.171 269.538 214.013 269.572L208.191 269.716L204.306 269.805L198.261 269.971L160.755 271.058L160.454 268.429L197.548 267.153Z" fill="#00BDD3"/>
<path d="M197.549 267.153L215.762 266.643C216.073 268.751 215.172 269.538 214.014 269.572L208.192 269.716L204.306 269.805L198.261 269.971L151.838 271.391C151.304 271.402 150.814 271.114 150.58 270.625C150.168 269.76 150.78 268.74 151.749 268.706L197.549 267.153Z" fill="#00BDD3"/>
<path opacity="0.2" d="M197.549 267.153L215.762 266.643C216.073 268.751 215.172 269.538 214.014 269.572L208.192 269.716L204.306 269.805L198.261 269.971L151.838 271.391C151.304 271.402 150.814 271.114 150.58 270.625C150.168 269.76 150.78 268.74 151.749 268.706L197.549 267.153Z" fill="black"/>
<path opacity="0.2" d="M215.762 266.643L215.874 267.375C216.041 268.507 215.172 269.538 214.014 269.572L208.192 269.716L197.382 270.104L197.56 267.153L215.762 266.643Z" fill="black"/>
<path opacity="0.2" d="M121.424 244.613C121.424 244.613 118.852 249.837 126.278 263.637L129.384 269.261C130.408 271.113 137.221 267.331 139.247 263.859C139.247 263.859 126.233 256.072 121.424 244.613Z" fill="black"/>
<path d="M184.4 260.697L189.576 259.177L188.742 267.153C188.742 267.153 181.516 271.967 179.012 267.364L180.014 264.79C180.793 262.838 182.396 261.34 184.4 260.697Z" fill="#F6B69E"/>
<path d="M195.521 262.317L194.876 265.19C194.686 266.077 193.929 266.732 193.016 266.809L188.708 267.142L189.543 259.166L193.773 259.832C194.898 259.976 195.699 261.008 195.544 262.128C195.544 262.195 195.532 262.25 195.521 262.317Z" fill="#F6B69E"/>
<path d="M141.295 274.186C144.902 279.067 149.979 283.138 155.957 284.303C162.993 285.678 176.53 275.761 182.875 269.338C182.553 266.632 182.742 265.167 180.026 264.79C180.026 264.79 173.045 269.893 159.864 272.955C155.612 273.942 152.773 269.605 149.054 263.293C147.206 260.142 141.217 247.241 138.957 244.368C135.339 239.754 125.019 243.059 129.116 254.163C130.841 258.833 138.345 270.193 141.295 274.186Z" fill="#F6B69E"/>
<path d="M137.444 236.814C144.769 243.514 148.331 255.362 148.331 255.362L131.232 265.745C131.232 265.745 118.73 248.262 120.956 242.172C122.715 237.447 125.977 234.341 130.263 234.075C132.924 233.919 135.484 235.017 137.444 236.814Z" fill="#00BDD3"/>
<path d="M98.2348 307.043L96.9434 307.076C96.6873 307.043 96.4869 306.954 96.4981 306.788L96.9656 301.253C96.9879 301.086 97.1994 300.953 97.4555 300.942L98.7469 300.909C99.0029 300.942 99.2033 301.042 99.1922 301.197L98.7246 306.744C98.7135 306.899 98.4908 307.065 98.2348 307.043Z" fill="#00BDD3"/>
<path d="M225.893 325.49L242.547 317.193L241.122 311.292L222.13 319.933L225.893 325.49Z" fill="#00BDD3"/>
<path opacity="0.5" d="M225.893 325.49L242.547 317.193L241.122 311.292L222.13 319.933L225.893 325.49Z" fill="white"/>
<path d="M252.287 331.98L240.798 335.452C240.342 335.574 240.052 336.006 240.108 336.472L241.489 346.855C241.667 347.876 242.635 348.575 243.659 348.397C243.726 348.386 243.793 348.375 243.86 348.353C263.053 345.169 269.387 341.664 271.447 340.965C277.336 338.979 274.987 334.642 272.894 334.775C263.498 335.352 260.57 334.276 256.841 332.59C254.848 331.891 252.978 331.78 252.287 331.98Z" fill="#0E1F3D"/>
<path d="M97.7999 195.105C94.3487 195.649 90.931 193.009 89.8512 189.703C88.7713 186.397 89.6619 182.704 91.432 179.697C92.7345 177.479 101.273 172.221 104.446 178.144C110.747 189.936 97.7999 195.105 97.7999 195.105Z" fill="#0E1F3D"/>
<path d="M214.816 241.185L181.139 242.616L181.295 239.288L214.971 237.857L214.816 241.185Z" fill="#00BDD3"/>
<g opacity="0.7">
<path opacity="0.7" d="M214.816 241.185L181.139 242.616L181.295 239.288L214.971 237.857L214.816 241.185Z" fill="white"/>
</g>
<path d="M214.616 245.811L180.939 247.231L181.084 243.903L214.76 242.483L214.616 245.811Z" fill="#00BDD3"/>
<g opacity="0.7">
<path opacity="0.7" d="M214.616 245.811L180.939 247.231L181.084 243.903L214.76 242.483L214.616 245.811Z" fill="white"/>
</g>
<path d="M214.405 250.425L180.729 251.856L180.884 248.529L214.561 247.098L214.405 250.425Z" fill="#00BDD3"/>
<g opacity="0.7">
<path opacity="0.7" d="M214.405 250.425L180.729 251.856L180.884 248.529L214.561 247.098L214.405 250.425Z" fill="white"/>
</g>
<path d="M214.193 255.051L180.517 256.471L180.673 253.143L214.349 251.723L214.193 255.051Z" fill="#00BDD3"/>
<g opacity="0.7">
<path opacity="0.7" d="M214.193 255.051L180.517 256.471L180.673 253.143L214.349 251.723L214.193 255.051Z" fill="white"/>
</g>
<path d="M213.992 259.666L180.316 261.097L180.461 257.769L214.137 256.338L213.992 259.666Z" fill="#00BDD3"/>
<g opacity="0.7">
<path opacity="0.7" d="M213.992 259.666L180.316 261.097L180.461 257.769L214.137 256.338L213.992 259.666Z" fill="white"/>
</g>
<path d="M167.548 244.475L164.845 244.591L164.893 245.699L167.596 245.582L167.548 244.475Z" fill="#00BDD3"/>
<g opacity="0.5">
<path opacity="0.5" d="M167.548 244.475L164.845 244.591L164.893 245.699L167.596 245.582L167.548 244.475Z" fill="white"/>
</g>
<path d="M167.425 247.681L164.722 247.797L164.77 248.904L167.473 248.788L167.425 247.681Z" fill="#00BDD3"/>
<g opacity="0.5">
<path opacity="0.5" d="M167.425 247.681L164.722 247.797L164.77 248.904L167.473 248.788L167.425 247.681Z" fill="white"/>
</g>
<path d="M167.29 250.875L164.587 250.991L164.634 252.098L167.337 251.982L167.29 250.875Z" fill="#00BDD3"/>
<g opacity="0.5">
<path opacity="0.5" d="M167.29 250.875L164.587 250.991L164.634 252.098L167.337 251.982L167.29 250.875Z" fill="white"/>
</g>
<path d="M167.168 254.081L164.466 254.198L164.513 255.305L167.216 255.189L167.168 254.081Z" fill="#00BDD3"/>
<g opacity="0.5">
<path opacity="0.5" d="M167.168 254.081L164.466 254.198L164.513 255.305L167.216 255.189L167.168 254.081Z" fill="white"/>
</g>
<path d="M167.035 257.275L164.332 257.391L164.38 258.499L167.083 258.383L167.035 257.275Z" fill="#00BDD3"/>
<g opacity="0.5">
<path opacity="0.5" d="M164.374 258.512L164.474 257.392L167.168 257.281L167.068 258.39L164.374 258.512Z" fill="white"/>
</g>
<path d="M166.906 260.474L164.203 260.588L164.25 261.695L166.953 261.581L166.906 260.474Z" fill="#00BDD3"/>
<g opacity="0.5">
<path opacity="0.5" d="M166.906 260.474L164.203 260.588L164.25 261.695L166.953 261.581L166.906 260.474Z" fill="white"/>
</g>
<path d="M170.352 241.418L164.763 243.492L164.819 242.028L167.914 241.529L164.852 241.318L164.908 239.854L170.352 241.418Z" fill="#00BDD3"/>
<path d="M204.473 236.127L181.139 237.114L181.251 234.807L204.585 233.819L204.473 236.127Z" fill="#00BDD3"/>
<g opacity="0.7">
<path opacity="0.7" d="M204.473 236.127L181.139 237.114L181.251 234.807L204.585 233.819L204.473 236.127Z" fill="white"/>
</g>
<path d="M172.991 237.324L169.573 237.468L170.954 236.593L171.332 236.947L171.744 236.582L172.991 237.324Z" fill="#00BDD3"/>
<path d="M170.82 236.491L169.439 237.367L169.54 235.338L170.82 236.491Z" fill="#00BDD3"/>
<path d="M173.214 235.272L173.103 237.201L171.845 236.469L173.214 235.272Z" fill="#00BDD3"/>
<path d="M171.38 236.118L171.304 236.199L171.312 236.206L171.388 236.126L171.38 236.118Z" fill="white"/>
<path d="M171.314 236.151L171.305 236.159L171.382 236.239L171.39 236.231L171.314 236.151Z" fill="white"/>
<path d="M173.213 235.083L171.743 236.413L171.331 236.768L170.953 236.425L169.672 235.272L169.572 235.172L173.213 235.083Z" fill="#00BDD3"/>
<path d="M167.559 235.44L164.856 235.555L164.871 235.887L167.573 235.773L167.559 235.44Z" fill="#00BDD3"/>
<path d="M167.562 236.281L164.859 236.396L164.873 236.729L167.576 236.614L167.562 236.281Z" fill="#00BDD3"/>
<path d="M167.559 237.138L164.856 237.253L164.87 237.586L167.573 237.471L167.559 237.138Z" fill="#00BDD3"/>
<path d="M324.395 68.6359H308.175C306.705 68.6359 305.514 67.449 305.514 65.9847C305.514 64.5205 306.705 63.3336 308.175 63.3336H324.395C325.865 63.3336 327.056 64.5205 327.056 65.9847C327.056 67.449 325.865 68.6359 324.395 68.6359Z" fill="#00BDD3"/>
<g opacity="0.7">
<path opacity="0.7" d="M324.395 68.6359H308.175C306.705 68.6359 305.514 67.449 305.514 65.9847C305.514 64.5205 306.705 63.3336 308.175 63.3336H324.395C325.865 63.3336 327.056 64.5205 327.056 65.9847C327.056 67.449 325.865 68.6359 324.395 68.6359Z" fill="white"/>
</g>
<path d="M383.899 123.113L321.712 237.147C320.911 238.611 319.063 239.155 317.593 238.356L211.777 181.062C210.308 180.263 209.762 178.422 210.564 176.957L291.443 28.6352C292.244 27.1709 294.092 26.6274 295.562 27.4261L366.866 66.0291L383.899 123.113Z" fill="#00BDD3"/>
<g opacity="0.2">
<path opacity="0.2" d="M383.899 123.113L321.712 237.147C320.911 238.611 319.063 239.155 317.593 238.356L211.777 181.062C210.308 180.263 209.762 178.422 210.564 176.957L291.443 28.6352C292.244 27.1709 294.092 26.6274 295.562 27.4261L366.866 66.0291L383.899 123.113Z" fill="white"/>
</g>
<path d="M349.011 148.707L269.981 106.225L267.338 111.106L346.368 153.589L349.011 148.707Z" fill="#00BDD3"/>
<path d="M338.211 168.653L259.182 126.17L256.539 131.051L335.568 173.534L338.211 168.653Z" fill="#00BDD3"/>
<path d="M327.415 188.598L248.385 146.115L245.743 150.997L324.772 193.479L327.415 188.598Z" fill="#00BDD3"/>
<path d="M366.956 65.9849L348.208 100.384C347.407 101.848 347.952 103.689 349.422 104.488L383.833 123.124L366.956 65.9849Z" fill="#00BDD3"/>
<path opacity="0.7" d="M366.956 65.9849L348.208 100.384C347.407 101.848 347.952 103.689 349.422 104.488L383.833 123.124L366.956 65.9849Z" fill="white"/>
<path d="M400.108 119.275L337.921 233.309C337.119 234.773 335.271 235.317 333.802 234.518L227.986 177.224C226.516 176.425 225.971 174.584 226.772 173.119L307.651 24.7972C308.453 23.333 310.301 22.7894 311.77 23.5881L383.075 62.1912L400.108 119.275Z" fill="#00BDD3"/>
<g opacity="0.5">
<path opacity="0.5" d="M400.108 119.275L337.921 233.309C337.119 234.773 335.271 235.317 333.802 234.518L227.986 177.224C226.516 176.425 225.971 174.584 226.772 173.119L307.651 24.7972C308.453 23.333 310.301 22.7894 311.77 23.5881L383.075 62.1912L400.108 119.275Z" fill="white"/>
</g>
<path d="M363.114 143.734L288.303 103.523C287.134 102.902 285.687 103.334 285.052 104.488L284.685 105.165C284.061 106.329 284.495 107.772 285.653 108.404L360.465 148.615C361.634 149.236 363.081 148.804 363.715 147.65L364.083 146.974C364.717 145.809 364.283 144.356 363.114 143.734Z" fill="#00BDD3"/>
<path d="M352.316 163.679L277.504 123.468C276.335 122.847 274.888 123.279 274.254 124.433L273.886 125.11C273.263 126.274 273.697 127.716 274.855 128.349L349.666 168.56C350.835 169.181 352.282 168.749 352.917 167.595L353.284 166.918C353.919 165.754 353.485 164.312 352.316 163.679Z" fill="#00BDD3"/>
<path d="M341.518 183.624L266.706 143.413C265.537 142.792 264.09 143.224 263.455 144.378L263.088 145.054C262.465 146.219 262.899 147.661 264.057 148.294L338.868 188.505C340.037 189.126 341.484 188.694 342.119 187.54L342.486 186.863C343.121 185.699 342.686 184.257 341.518 183.624Z" fill="#00BDD3"/>
<path d="M383.176 62.1467L364.417 96.5456C363.616 98.0098 364.161 99.8512 365.631 100.65L400.042 119.286L383.176 62.1467Z" fill="#00BDD3"/>
<path opacity="0.7" d="M383.176 62.1467L364.417 96.5456C363.616 98.0098 364.161 99.8512 365.631 100.65L400.042 119.286L383.176 62.1467Z" fill="white"/>
<path d="M378.878 9.86633L384.11 33.0171C364.294 38.4414 346.515 57.9759 333.724 76.4455C328.681 83.7335 324.406 92.1973 321.211 101.149C321.211 101.149 361.166 65.1308 383.198 63.0232L382.151 101.293C382.151 101.293 404.995 56.9554 449.37 40.7266C449.359 40.7155 412.198 14.0483 378.878 9.86633Z" fill="#EA5924"/>
<path d="M109.312 262.794L119.41 377.793H103.134L92.2681 254.042H99.727C104.726 254.042 108.878 257.835 109.312 262.794Z" fill="#00BDD3"/>
<path opacity="0.2" d="M109.411 263.825L119.419 377.793H103.143L92.278 254.042H98.6904C104.268 254.042 108.921 258.29 109.411 263.825Z" fill="black"/>
<path d="M98.7359 261.529L108.945 377.793H12.0459L1.95972 262.96C1.53667 258.168 5.33291 254.041 10.1645 254.041H90.52C94.8061 254.041 98.3685 257.292 98.7359 261.529Z" fill="#00BDD3"/>
<path opacity="0.2" d="M98.8459 262.794L108.943 377.793H12.0446L2.09197 264.469C1.60214 258.867 6.03293 254.042 11.6772 254.042H89.2495C94.2481 254.042 98.4117 257.835 98.8459 262.794Z" fill="white"/>
<path d="M269.267 377.793H12.4925L9.69824 345.901H256.186C261.875 345.901 266.885 350.494 267.375 356.162L269.267 377.793Z" fill="#00BDD3"/>
<path opacity="0.2" d="M269.267 377.793H12.4925L9.69824 345.901H256.186C261.875 345.901 266.885 350.494 267.375 356.162L269.267 377.793Z" fill="white"/>
<path d="M281.044 390.006H9.47405C5.95613 390.006 3.09503 387.167 3.09503 383.65C3.09503 380.145 5.945 377.294 9.47405 377.294H281.044C284.562 377.294 287.423 380.134 287.423 383.65C287.423 387.155 284.562 390.006 281.044 390.006Z" fill="#00BDD3"/>
<path opacity="0.2" d="M281.044 390.006H123.395C119.877 390.006 117.016 387.167 117.016 383.65C117.016 380.145 119.866 377.294 123.395 377.294H281.044C284.562 377.294 287.423 380.134 287.423 383.65C287.423 387.155 284.562 390.006 281.044 390.006Z" fill="black"/>
<path d="M13.0374 390.006L16.2548 400.922H22.6894L26.2296 390.006H13.0374Z" fill="#263238"/>
<path opacity="0.5" d="M13.0374 390.006L16.2548 400.922H22.6894L26.2296 390.006H13.0374Z" fill="white"/>
<path d="M105.249 390.006L108.466 400.922H114.901L118.441 390.006H105.249Z" fill="#263238"/>
<path opacity="0.5" d="M105.249 390.006L108.466 400.922H114.901L118.441 390.006H105.249Z" fill="white"/>
<path d="M175.83 390.006L179.048 400.922H185.482L189.023 390.006H175.83Z" fill="#263238"/>
<path opacity="0.5" d="M175.83 390.006L179.048 400.922H185.482L189.023 390.006H175.83Z" fill="white"/>
<path d="M268.042 390.006L271.259 400.922H277.694L281.234 390.006H268.042Z" fill="#263238"/>
<path opacity="0.5" d="M268.042 390.006L271.259 400.922H277.694L281.234 390.006H268.042Z" fill="white"/>
</svg>
