<svg width="20" height="20" fill="none" xmlns="http://www.w3.org/2000/svg"><path d="M10 20c5.523 0 10-4.477 10-10S15.523 0 10 0 0 4.477 0 10s4.477 10 10 10z" fill="#F0F0F0"/><path d="M2.067 3.912a9.963 9.963 0 00-1.723 3.48h5.203l-3.48-3.48zM19.655 7.392a9.964 9.964 0 00-1.722-3.48l-3.48 3.48h5.203zM.344 12.61a9.965 9.965 0 001.723 3.479l3.48-3.48H.344zM16.088 2.067a9.964 9.964 0 00-3.48-1.722v5.202l3.48-3.48zM3.912 17.933a9.964 9.964 0 003.48 1.722v-5.202l-3.48 3.48zM7.391.345a9.965 9.965 0 00-3.48 1.722l3.48 3.48V.345zM12.609 19.655a9.964 9.964 0 003.48-1.722l-3.48-3.48v5.202zM14.453 12.61l3.48 3.479a9.963 9.963 0 001.723-3.48h-5.203z" fill="#0052B4"/><path d="M19.915 8.696h-8.61V.085a10.1 10.1 0 00-2.61 0v8.61H.086a10.1 10.1 0 000 2.61h8.61v8.61a10.114 10.114 0 002.61 0v-8.61h8.61a10.115 10.115 0 000-2.61z" fill="#CB3D40"/><path d="M12.609 12.608l4.462 4.463c.205-.205.401-.42.588-.642l-3.82-3.82h-1.23zM7.391 12.608L2.93 17.071c.205.205.42.4.642.587l3.82-3.82v-1.23zM7.391 7.391L2.93 2.93c-.205.205-.401.42-.588.642l3.82 3.82h1.23zM12.609 7.391l4.462-4.462c-.205-.206-.42-.401-.642-.588l-3.82 3.82v1.23z" fill="#CB3D40"/></svg>