<svg width="22" height="19" viewBox="0 0 22 19" fill="none" xmlns="http://www.w3.org/2000/svg">
    <path
            d="M21.75 2.33765C20.9412 2.69815 20.0793 2.93711 19.1808 3.05313C20.1052 2.49235 20.8107 1.61111 21.1424 0.548938C20.2805 1.07105 19.329 1.43984 18.3149 1.64565C17.4965 0.760268 16.3302 0.211914 15.0578 0.211914C12.5892 0.211914 10.6018 2.24787 10.6018 4.74378C10.6018 5.1029 10.6317 5.44821 10.7051 5.77695C6.99806 5.59324 3.71789 3.78796 1.51434 1.0379C1.12964 1.71609 0.903984 2.49235 0.903984 3.328C0.903984 4.8971 1.69922 6.28801 2.88459 7.09327C2.1682 7.07946 1.46541 6.86813 0.87 6.53525C0.87 6.54906 0.87 6.56702 0.87 6.58498C0.87 8.78668 2.41561 10.6154 4.44244 11.0367C4.07948 11.1376 3.68391 11.1859 3.27338 11.1859C2.98791 11.1859 2.69972 11.1693 2.4292 11.1086C3.00694 12.9028 4.64634 14.2219 6.59569 14.2647C5.07863 15.4705 3.15239 16.1971 1.06711 16.1971C0.701438 16.1971 0.350719 16.1805 0 16.1349C1.97517 17.4291 4.31602 18.1681 6.84037 18.1681C15.0456 18.1681 19.5315 11.2619 19.5315 5.27556C19.5315 5.07528 19.5247 4.8819 19.5152 4.68991C20.4001 4.05177 21.1437 3.2548 21.75 2.33765Z"
            fill="#D0CFCF"/>
</svg>
