<svg version="1.1" id="Layer_1" xmlns="http://www.w3.org/2000/svg" x="0" y="0" viewBox="0 0 825 177" xml:space="preserve" enable-background="new 0 0 825 177"><style>.st2{fill:#f0eded}</style><defs><filter id="Adobe_OpacityMaskFilter" filterUnits="userSpaceOnUse" x="2.5" y="29.7" width="821.7" height="162.9"><feColorMatrix values="1 0 0 0 0 0 1 0 0 0 0 0 1 0 0 0 0 0 1 0"/></filter></defs><mask maskUnits="userSpaceOnUse" x="2.5" y="29.7" width="821.7" height="162.9" id="mask0_1_"><path fill="#c4c4c4" filter="url(#Adobe_OpacityMaskFilter)" d="M0 0h972v177H0z"/></mask><g mask="url(#mask0_1_)"><path class="st2" d="M409.6 45.1c-2.5.4-4.7 2.9-5.6 6.3-.7 2.7 0 5.9 1.5 7 .9.6 2.2.8 3.3.4 1.1-.4 2.5-1.5 3.3-2.6 2.3-3.4 2.6-7.5.7-9.9-.9-1.1-1.9-1.5-3.2-1.2zM419.8 53.2c-2.2.4-4.5 2.1-6 4.3-.7 1-1 1.9-1.1 3.2-.1 1.1-.1 1.3.2 2.2.6 1.8 1.4 2.4 3.4 2.5 1 .1 1.3 0 2.4-.3 1-.3 1.5-.6 2.5-1.5 1.3-1 2-1.9 2.9-3.6.5-1 .8-2.8.6-3.9-.2-1.1-1.1-2.3-1.9-2.6-.9-.3-2.1-.5-3-.3zM396.1 49.9c-1.4.3-2.9 1.9-3.8 4.1-.4 1-.7 3.1-.6 4.1.2 1.9 1.3 4.1 2.4 4.7 1.2.7 2.9.4 4.1-.7 1.4-1.3 2.3-3.1 2.6-5.2.5-3.7-1-6.7-3.4-7-.4-.1-1-.1-1.3 0zM401.3 64.2c-1.9 0-4.2.7-6.6 1.9-2.7 1.4-5.2 3.4-5.8 4.6-.8 1.9-.3 3.9 1.3 5.1.8.6 1.9 1 3.8 1.6 1.9.6 3 1 3.9 1.5 1.5.9 2.2 1.7 3.8 4.4.7 1.2 1.5 2.3 1.7 2.6 1.4 1.4 3.4 1.7 4.6.8 1.5-1.1 2.4-3.8 2.6-7.6.2-4.1 0-6.3-.8-8.8-.6-1.9-1.5-3.2-2.9-4.3-1.3-1-3.7-1.8-5.6-1.8zM420.1 67.5c-1.4.2-2.8.8-4.2 1.9-1.7 1.4-2.5 2.5-2.8 4.1-.3 1.4-.2 2.2.4 3.1.4.6.7.8 1.2 1.1 2.9 1.5 7-.1 9.2-3.4.7-1 .7-1.1.9-2.4.2-1.2.1-1.4-.1-2.1-.2-.4-.5-1-.7-1.2-.9-.8-2.4-1.2-3.9-1.1zM429.9 114.8c-.9-.8-1.5-1.1-2.8-1.3-1.3-.2-3 0-4.5.5-1.2.5-3.2 1.9-3.8 2.8-.9 1.3-1.4 2.8-1.2 3.8.2 1 .9 2 1.9 2.6 3.3 1.9 8.9.1 10.8-3.5 1.1-2 .9-3.6-.4-4.9zM431.5 128.3c-2.1-2.1-6.3-2.9-9.2-1.6-1.1.5-2.3 1.5-2.8 2.4-.6 1-.7 2.3-.3 3.2 1.3 3.1 5.7 4.6 9.8 3.5 1.9-.5 3.4-1.9 3.9-3.6.2-1.1-.4-2.8-1.4-3.9zM417.2 107.8c-2.2-1.7-6.4-.8-8.8 1.9-1.4 1.5-2.1 3.6-1.9 5 .1.6.2.8.7 1.4.7.9 1.4 1.3 2.4 1.4 1.8.3 3.5-.2 5.3-1.4 1.8-1.2 2.9-2.7 3.4-4.6.4-1.1-.2-3.1-1.1-3.7zM410 120.9c-2-1.9-5.9-3.7-9.4-4.2-2.2-.4-3-.3-4 .4-1.3.9-1.9 2-1.8 3.6.1 1.2.5 2.3 1.5 4.4 2.1 4.1 2.2 5.5 1.1 9.9-.6 2.5-.7 3.1-.5 4.1.5 2.8 2.5 3.8 5.4 2.7 1.1-.4 2.9-1.7 4.6-3.2 2.8-2.5 4.1-4 5.3-6.3 1.1-2.2 1.3-4.6.5-7-.3-1.3-1.7-3.5-2.7-4.4zM421 137.8c-1.6-1.2-3.4-1.9-5.4-1.9-3.7-.1-6.2 2.4-5.2 5.3.8 2.3 2.9 3.9 5.8 4.4 1.2.2 1.8.2 2.8 0 1.3-.2 1.3-.2 2.3-1 1.5-1.1 2-2.3 1.6-3.8-.2-.9-1.3-2.5-1.9-3zM513.5 89c-.9-.8-1.5-1.1-2.8-1.3-1.3-.2-3 0-4.5.5-1.2.5-3.2 1.9-3.8 2.8-.9 1.3-1.4 2.8-1.2 3.8.2 1 .9 2 1.9 2.6 3.3 1.9 8.9.1 10.8-3.5 1.1-2 1-3.6-.4-4.9zM515.1 102.5c-2.1-2.1-6.3-2.9-9.3-1.6-1.1.5-2.3 1.5-2.8 2.4-.6 1-.7 2.3-.3 3.2 1.3 3.1 5.7 4.6 9.8 3.5 1.9-.5 3.4-1.9 3.9-3.6.3-1.1-.2-2.8-1.3-3.9zM500.9 81.9c-2.2-1.7-6.4-.8-8.8 1.9-1.4 1.5-2.1 3.6-1.9 5 .1.6.2.8.7 1.4.7.9 1.4 1.3 2.4 1.4 1.8.3 3.5-.2 5.3-1.4 1.8-1.2 2.9-2.7 3.4-4.6.3-1-.2-3-1.1-3.7zM493.7 95c-2-1.9-5.9-3.7-9.4-4.2-2.2-.4-3-.3-4 .4-1.3.9-1.9 2-1.8 3.6.1 1.2.5 2.3 1.5 4.4 2.1 4.1 2.2 5.5 1.1 9.9-.6 2.5-.7 3.1-.5 4.1.5 2.8 2.5 3.8 5.4 2.7 1.1-.4 2.9-1.7 4.6-3.2 2.8-2.5 4.1-4 5.3-6.3 1.1-2.2 1.3-4.6.5-7-.4-1.2-1.8-3.5-2.7-4.4zM504.6 111.9c-1.6-1.2-3.4-1.9-5.4-1.9-3.7-.1-6.2 2.4-5.2 5.3.8 2.3 2.9 3.9 5.8 4.4 1.2.2 1.8.2 2.8 0 1.3-.2 1.3-.2 2.3-1 1.5-1.1 2-2.3 1.6-3.8-.2-.8-1.2-2.5-1.9-3zM585.2 116.3c-.5-1.1-1-1.5-2.2-2.2-1.2-.7-2.8-1.1-4.5-1-1.3 0-3.7.7-4.5 1.4-1.3.9-2.3 2.2-2.4 3.2-.2 1 .2 2.2.9 3.1 2.4 2.9 8.4 3.1 11.4.4 1.7-1.6 2.2-3.2 1.3-4.9zM582.1 129.6c-1.3-2.7-4.9-4.8-8.2-4.6-1.2.1-2.7.6-3.5 1.3-.9.7-1.4 1.9-1.4 3 .2 3.3 3.7 6.3 8 6.6 1.9.1 3.8-.7 4.8-2 .9-1.1 1-2.9.3-4.3zM575.8 105.4c-1.5-2.3-5.8-2.9-8.9-1.3-1.8 1-3.2 2.6-3.5 4.1-.1.6-.1.8.2 1.6.4 1 .8 1.6 1.8 2.1 1.6.9 3.4 1 5.4.5 2.1-.5 3.7-1.6 4.8-3.2.6-.8.7-2.9.2-3.8zM564.5 115.3c-1.2-2.5-4.3-5.4-7.4-7.2-1.9-1.1-2.7-1.3-3.9-1-1.5.4-2.5 1.3-2.9 2.7-.3 1.2-.3 2.3-.1 4.7.5 4.6.2 6-2.3 9.7-1.5 2.2-1.7 2.7-1.9 3.7-.5 2.8 1.1 4.4 4.1 4.4 1.1 0 3.3-.6 5.4-1.4 3.5-1.4 5.2-2.4 7.1-4.1 1.8-1.7 2.8-3.9 2.9-6.4.2-1.4-.4-4-1-5.1zM569.1 134.9c-1.1-1.7-2.6-3-4.4-3.6-3.5-1.3-6.6.2-6.7 3.2 0 2.4 1.4 4.6 3.9 6.1 1.1.6 1.6.8 2.6 1 1.3.2 1.3.2 2.5-.1 1.8-.6 2.7-1.5 2.8-3 .1-1-.3-2.9-.7-3.6zM657 126.1c-.7-1-1.2-1.4-2.5-1.8-1.3-.5-3-.6-4.6-.3-1.3.2-3.5 1.3-4.3 2.1-1.2 1.1-1.9 2.5-1.9 3.5s.6 2.1 1.4 2.9c2.9 2.5 8.8 1.8 11.3-1.4 1.5-1.8 1.6-3.4.6-5zM656 139.7c-1.7-2.5-5.6-4-8.8-3.3-1.2.3-2.5 1-3.2 1.8-.7.9-1.1 2.1-.9 3.1.7 3.3 4.7 5.6 8.9 5.3 1.9-.2 3.7-1.2 4.5-2.8.5-1 .3-2.8-.5-4.1zM645.9 116.8c-1.8-2.1-6.2-2-9 .1-1.6 1.2-2.8 3.1-2.8 4.6 0 .6.1.8.4 1.5.5 1 1.1 1.5 2.1 1.8 1.7.6 3.5.5 5.4-.3 2-.8 3.4-2.1 4.3-3.9.5-.9.4-3-.4-3.8zM636.4 128.3c-1.6-2.3-5-4.7-8.4-5.9-2.1-.8-2.9-.9-4-.4-1.5.6-2.3 1.6-2.5 3.1-.1 1.2 0 2.3.7 4.7 1.2 4.4 1.1 5.9-.8 9.9-1.1 2.4-1.3 2.9-1.3 3.9 0 2.8 1.8 4.2 4.8 3.7 1.1-.2 3.2-1.1 5.1-2.3 3.2-1.9 4.8-3.2 6.4-5.2 1.5-1.9 2.2-4.2 1.9-6.7-.2-1.3-1.2-3.8-1.9-4.8zM643.9 147c-1.4-1.5-3-2.5-4.9-2.9-3.6-.8-6.5 1.2-6.1 4.2.3 2.4 2.1 4.4 4.8 5.4 1.1.4 1.7.5 2.8.6 1.3 0 1.4 0 2.4-.5 1.7-.8 2.4-1.9 2.3-3.4-.1-1-.8-2.8-1.3-3.4zM723 174.9c.2-1.2.1-1.8-.5-3.1-.6-1.2-1.7-2.5-3-3.5-1-.7-3.4-1.6-4.5-1.6-1.6 0-3.1.4-3.8 1.2-.7.7-1.1 1.9-1 3 .3 3.8 4.9 7.4 9 7 2.2-.1 3.5-1.2 3.8-3zM712.7 183.8c.6-2.9-1.2-6.8-3.9-8.6-1-.7-2.5-1.1-3.5-1-1.1.1-2.3.7-2.8 1.6-1.8 2.8-.7 7.3 2.6 10 1.5 1.3 3.5 1.7 5.1 1.2 1.1-.3 2.2-1.7 2.5-3.2zM721.8 160.5c.2-2.8-2.9-5.8-6.5-6.3-2-.3-4.2.2-5.2 1.3-.4.4-.6.6-.8 1.4-.3 1-.3 1.8.2 2.8.8 1.7 2.1 2.8 4.1 3.6 2 .8 3.9.9 5.7.3 1.1-.5 2.4-2 2.5-3.1zM706.9 161.9c.5-2.7-.2-6.9-1.7-10.1-.9-2-1.4-2.6-2.6-3.1-1.5-.6-2.8-.5-4 .5-1 .8-1.6 1.7-2.8 3.8-2.2 4-3.3 4.9-7.6 6.5-2.5.9-2.9 1.2-3.7 1.9-2 2-1.7 4.2.8 6 .9.6 3 1.4 5.2 2 3.6.9 5.6 1.1 8.2.8 2.4-.3 4.5-1.5 6.1-3.4.8-1.3 1.9-3.7 2.1-4.9zM699 180.4c.1-2.1-.4-3.9-1.4-5.5-2-3.1-5.5-3.8-7.3-1.4-1.5 1.9-1.6 4.6-.4 7.2.5 1.1.8 1.6 1.5 2.4.9.9.9 1 2.1 1.3 1.8.6 3 .4 4-.8.7-.6 1.5-2.4 1.5-3.2zM704.1 90.6c-.6-1-1.1-1.5-2.3-2.1-1.2-.6-2.9-1-4.5-.9-1.3.1-3.6.9-4.5 1.5-1.3 1-2.2 2.3-2.3 3.3-.1 1 .3 2.2 1.1 3 2.5 2.8 8.5 2.8 11.4 0 1.6-1.6 2-3.2 1.1-4.8zM701.5 103.9c-1.3-2.7-5.1-4.7-8.3-4.4-1.2.1-2.6.7-3.4 1.4-.8.8-1.4 2-1.3 3 .3 3.3 4 6.1 8.2 6.3 1.9.1 3.8-.8 4.8-2.2.6-.9.6-2.7 0-4.1zM694.2 80c-1.6-2.3-5.9-2.7-9-.9-1.7 1-3.1 2.7-3.4 4.2-.1.6 0 .8.2 1.5.4 1 .9 1.6 1.9 2.1 1.6.8 3.4.9 5.4.3 2-.6 3.6-1.7 4.7-3.3.8-1 .8-3 .2-3.9zM683.4 90.3c-1.3-2.4-4.4-5.3-7.6-6.9-2-1-2.8-1.2-3.9-.9-1.5.4-2.5 1.4-2.8 2.8-.3 1.2-.3 2.3.1 4.7.7 4.5.4 6-2 9.8-1.4 2.2-1.6 2.7-1.7 3.7-.4 2.8 1.2 4.4 4.3 4.2 1.1-.1 3.3-.7 5.4-1.6 3.4-1.5 5.1-2.6 6.9-4.4 1.7-1.7 2.7-4 2.6-6.5-.1-1.2-.7-3.8-1.3-4.9zM688.6 109.7c-1.2-1.7-2.7-2.9-4.5-3.5-3.5-1.2-6.6.4-6.6 3.4.1 2.4 1.6 4.6 4.2 5.9 1.1.6 1.6.7 2.7.9 1.3.2 1.3.2 2.5-.2 1.8-.6 2.6-1.6 2.7-3.1 0-.8-.5-2.7-1-3.4zM774 130.4c-.1-1.2-.4-1.8-1.3-2.8-.9-1-2.3-2-3.9-2.5-1.2-.4-3.7-.5-4.7-.2-1.5.4-2.8 1.3-3.3 2.2-.5.9-.5 2.1-.1 3.2 1.3 3.6 6.8 5.7 10.6 4.2 2-.9 3-2.2 2.7-4.1zM766.7 141.9c-.3-3-3-6.2-6.1-7.1-1.2-.3-2.7-.3-3.7 0-1.1.4-2 1.3-2.3 2.3-1 3.2 1.4 7.2 5.3 8.9 1.8.8 3.8.7 5.2-.3 1-.6 1.7-2.3 1.6-3.8zM768.8 117c-.6-2.7-4.5-4.7-8-4.2-2 .3-3.9 1.4-4.7 2.7-.3.5-.4.8-.4 1.5 0 1.1.2 1.8 1 2.6 1.2 1.4 2.8 2.1 4.9 2.3 2.1.2 4-.2 5.6-1.4 1-.6 1.8-2.5 1.6-3.5zM754.9 122.5c-.3-2.8-2.2-6.5-4.5-9.2-1.4-1.7-2.1-2.1-3.3-2.3-1.6-.2-2.8.3-3.7 1.6-.7 1-1.1 2-1.6 4.4-1 4.5-1.8 5.7-5.4 8.4-2.1 1.6-2.5 1.9-3 2.8-1.4 2.5-.5 4.5 2.4 5.5 1.1.4 3.3.5 5.6.4 3.7-.1 5.7-.5 8.1-1.5 2.3-1 3.9-2.7 4.8-5 .4-1.2.7-3.8.6-5.1zM752.6 142.5c-.5-2-1.5-3.7-2.9-4.9-2.8-2.4-6.3-2.1-7.4.8-.8 2.3-.2 4.8 1.7 7 .8.9 1.2 1.3 2.1 1.8 1.1.6 1.2.7 2.4.7 1.9.1 3-.5 3.6-1.9.4-.7.7-2.7.5-3.5zM824 176.5c.9-2.6-1.3-6.3-4.6-7.8-1.9-.8-4.1-.9-5.4-.2-.5.3-.7.5-1.1 1.1-.6.9-.7 1.7-.5 2.8.3 1.8 1.3 3.3 3 4.6 1.7 1.3 3.5 1.9 5.5 1.8 1.1-.1 2.8-1.3 3.1-2.3zM809.3 173.9c1.2-2.5 1.6-6.7 1-10.2-.4-2.2-.7-2.9-1.7-3.7-1.2-1-2.6-1.2-4-.6-1.1.5-2 1.2-3.7 2.9-3.2 3.3-4.5 3.9-9 4.3-2.6.2-3.1.4-4 .8-2.5 1.4-2.8 3.6-.8 6 .7.9 2.5 2.2 4.5 3.3 3.2 1.8 5.2 2.6 7.7 2.9 2.4.4 4.8-.2 6.8-1.7 1-.7 2.7-2.8 3.2-4zM356.1 84.8c-1.7.2-3.2 1.1-4.4 2.7-2.1 2.8-2.7 6.1-1.6 8.8.6 1.4 1.2 1.9 2.5 2.1.9.2 1.2.2 1.8-.1 3.6-1.1 6.3-6.5 5.4-10.3-.5-2.1-2-3.4-3.7-3.2zM366 93.4c-2.8.2-6 2.6-7.3 5.4-.5 1.2-.7 2.1-.6 3.2.1 1 .5 1.9 1.1 2.6.4.5.6.5 1.7.8.9.2 1.4.3 2.1.2 2.4-.3 4.9-2.1 6.5-4.6.5-.9.6-1.2.8-2.2.3-1.5.2-2.4-.4-3.5-.2-.4-.6-.9-.9-1.1-.8-.5-2.2-.8-3-.8zM342.2 88.9c-2.1.4-4.2 3-4.7 6.1-.4 2.2-.1 4.1.9 5.6.7 1 1.4 1.5 2.4 1.6 1 .1 1.8-.2 2.8-1 1.4-1.1 2.4-2.9 2.7-5.1.4-2.1.1-4.1-.8-5.5-.6-1.1-2.1-1.9-3.3-1.7zM345.5 103.6c-1.3.1-4.4 1-6.2 1.9-1.7.8-4.2 2.6-4.9 3.5-1.3 1.6-1.1 4.1.4 5.5.7.7 1.8 1.2 4.2 2.1 4.3 1.6 5.2 2.3 7.2 6.2 1.6 3 2.4 3.8 4.1 4.1 2.7.5 4.5-2.3 5.1-7.9.8-8.1-.6-12.2-4.8-14.3-1.5-.8-3.6-1.2-5.1-1.1zM365.7 107.8c-2.2 0-4.5 1.1-6.3 3-.8.9-1.3 1.8-1.5 3-.4 2.3.5 3.8 2.8 4.4 2.3.7 5.6-.5 7.5-2.8 1.8-2 2.2-4.4 1-6.1-.5-.8-2-1.5-3.5-1.5zM290.2 114.8c-1.6-.4-3.3-.1-5 1-2.9 1.9-4.6 4.8-4.4 7.7.1 1.5.5 2.2 1.7 2.9.8.5 1 .6 1.7.6 3.7.2 8.1-3.8 8.5-7.8.2-2.2-.8-3.9-2.5-4.4zM296.7 126.5c-2.7-.8-6.5.3-8.6 2.5-.9 1-1.4 1.7-1.6 2.8-.3 1-.2 1.9.2 2.8.3.6.4.7 1.3 1.3.8.5 1.2.7 1.9.9 2.4.6 5.3-.2 7.6-2 .8-.6 1-.9 1.5-1.8.8-1.3 1-2.2.8-3.4-.1-.5-.3-1-.5-1.3-.6-.8-1.8-1.6-2.6-1.8zM275.8 113.7c-2.1-.4-4.9 1.3-6.4 4-1.1 1.9-1.4 3.8-1 5.6.3 1.2.8 1.9 1.8 2.4.9.5 1.8.5 3 .1 1.7-.6 3.2-1.9 4.2-3.8 1.1-1.9 1.4-3.8 1.1-5.5-.3-1.3-1.4-2.6-2.7-2.8zM274.1 128.6c-1.3-.4-4.5-.6-6.4-.4-1.9.2-4.8.9-5.7 1.5-1.7 1.1-2.4 3.4-1.5 5.3.4.9 1.3 1.8 3.2 3.5 3.5 3 4.1 4 4.7 8.4.5 3.4 1 4.4 2.5 5.3 2.4 1.5 5-.5 7.4-5.6 3.4-7.3 3.5-11.7.2-15.2-1.1-1.1-2.9-2.3-4.4-2.8zM291.7 139.9c-2.1-.8-4.6-.6-6.9.6-1.1.5-1.8 1.3-2.4 2.3-1.1 2-.7 3.7 1.2 5.2s5.4 1.5 8 .1c2.3-1.3 3.5-3.4 3-5.4-.3-1.1-1.5-2.3-2.9-2.8zM221.8 140.1c-1.3-1.2-2.9-1.6-4.9-1.4-3.4.3-6.1 2.2-7.2 4.9-.6 1.4-.5 2.2.3 3.4.5.8.7 1 1.3 1.4 3.2 1.9 8.9.3 10.9-3 1-2.2.9-4.1-.4-5.3zM222.6 153.5c-2.1-2-5.9-2.8-8.8-1.8-1.2.4-2 .9-2.7 1.7-.6.8-1 1.6-1 2.6 0 .6 0 .8.6 1.8.5.8.8 1.2 1.3 1.7 1.9 1.6 4.8 2.3 7.7 1.7 1-.2 1.3-.3 2.1-.9 1.2-.8 1.8-1.6 2.1-2.7.1-.4.2-1.1.1-1.4 0-.8-.7-2.1-1.4-2.7zM209.3 132.4c-1.7-1.3-5-1.1-7.4.6-1.8 1.2-2.9 2.8-3.3 4.6-.3 1.2-.1 2 .6 2.9.6.8 1.4 1.2 2.6 1.4 1.8.3 3.6-.2 5.4-1.4 1.7-1.2 2.9-2.7 3.3-4.4.4-1.3-.2-2.9-1.2-3.7zM201.5 145c-1-1-3.8-2.6-5.6-3.4-1.8-.7-4.7-1.4-5.8-1.3-2 .2-3.6 2-3.5 4 0 1 .4 2.2 1.4 4.6 1.9 4.3 1.9 5.5.7 9.7-1 3.3-1 4.4 0 5.9 1.5 2.4 4.7 1.9 9-1.6 6.2-4.9 8.1-8.9 6.6-13.5-.5-1.4-1.7-3.3-2.8-4.4zM212.5 163.2c-1.5-1.7-3.9-2.7-6.4-2.7-1.2 0-2.2.3-3.1.9-1.9 1.3-2.2 3-1.1 5.2s4.2 3.8 7.1 3.8c2.6-.1 4.5-1.4 4.9-3.4.1-1.1-.4-2.7-1.4-3.8zM128.7 120.7c-1.7-.1-3.3.7-4.7 2.1-2.4 2.5-3.4 5.7-2.6 8.5.4 1.4.9 2 2.2 2.4.9.3 1.1.3 1.8.2 3.7-.7 7.1-5.6 6.6-9.5-.2-2.2-1.5-3.6-3.3-3.7zM137.5 130.6c-2.8-.2-6.2 1.8-7.8 4.4-.7 1.1-1 2-1 3.1 0 1 .2 1.9.8 2.7.4.5.5.6 1.5 1 .9.3 1.3.4 2.1.4 2.4 0 5.1-1.4 7-3.8.6-.8.8-1.1 1.1-2.1.5-1.5.5-2.4 0-3.5-.2-.4-.5-.9-.8-1.2-.7-.5-2-1-2.9-1zM114.5 123c-2.2.1-4.5 2.5-5.4 5.4-.6 2.1-.6 4 .3 5.7.5 1.1 1.2 1.6 2.2 1.9 1 .2 1.8.1 2.9-.6 1.5-.9 2.7-2.5 3.3-4.7.6-2.1.6-4-.1-5.6-.6-1.2-2-2.1-3.2-2.1zM116 138c-1.3-.1-4.5.4-6.4 1.1-1.8.6-4.5 2-5.3 2.8-1.5 1.5-1.6 3.9-.3 5.5.6.7 1.6 1.4 3.9 2.6 4.1 2.1 4.8 3 6.4 7.1 1.2 3.2 1.9 4 3.6 4.6 2.7.9 4.8-1.7 6-7.1 1.8-7.9.9-12.2-3.1-14.8-1.2-1-3.3-1.7-4.8-1.8zM135.6 144.8c-2.2-.3-4.6.5-6.6 2.2-.9.8-1.5 1.7-1.8 2.8-.7 2.2.1 3.8 2.3 4.8 2.2 1 5.6.2 7.8-1.8 2-1.8 2.7-4.1 1.7-5.9-.6-1.1-2-1.9-3.4-2.1zM28 151.6c-1.7-.1-3.3.7-4.7 2.1-2.4 2.5-3.4 5.7-2.6 8.5.4 1.4.9 2 2.2 2.4.9.3 1.1.3 1.8.2 3.7-.7 7.1-5.6 6.6-9.5-.2-2.2-1.5-3.6-3.3-3.7zM36.8 161.4c-2.8-.2-6.2 1.8-7.8 4.4-.7 1.1-1 2-1 3.1 0 1 .2 1.9.8 2.7.4.5.5.6 1.5 1 .9.3 1.3.4 2.1.4 2.4 0 5.1-1.4 7-3.8.6-.8.8-1.1 1.1-2.1.5-1.5.5-2.4 0-3.5-.2-.4-.5-.9-.8-1.2-.7-.4-2-.9-2.9-1zM13.8 153.9c-2.2.1-4.5 2.5-5.4 5.4-.6 2.1-.6 4 .3 5.7.5 1.1 1.2 1.6 2.2 1.9 1 .2 1.8.1 2.9-.6 1.5-.9 2.7-2.5 3.3-4.7.6-2.1.6-4-.1-5.6-.6-1.3-2-2.2-3.2-2.1zM15.3 168.8c-1.3-.1-4.5.4-6.4 1.1-1.8.6-4.5 2-5.3 2.8-1.5 1.5-1.6 3.9-.3 5.5.6.7 1.6 1.4 3.9 2.6 4.1 2.1 4.8 3 6.4 7.1 1.2 3.2 1.9 4 3.6 4.6 2.7.9 4.8-1.7 6-7.1 1.8-7.9.9-12.2-3.1-14.8-1.2-1-3.3-1.7-4.8-1.8zM34.9 175.7c-2.2-.3-4.6.5-6.6 2.2-.9.8-1.5 1.7-1.8 2.8-.7 2.2.1 3.8 2.3 4.8 2.2 1 5.6.2 7.8-1.8 2-1.8 2.7-4.1 1.7-5.9-.6-1.1-2-1.9-3.4-2.1zM368.2 155.4c-1.3-1-2.8-1.4-4.8-1.2-3.6.4-6.4 2.4-7.3 5.2-.1.4-.2 1.1-.1 1.4.6 3.7 6.1 4.9 10.5 2.2 1.6-1 2.5-2 3-3.6.5-1.3-.1-3-1.3-4zM356.7 148c-.6-.6-1-.8-2.1-1.1-1.8-.4-3.8 0-5.6 1.1-1.7 1.1-2.9 2.5-3.4 4.2-.4 1.3-.3 2 .2 2.9 2 3.4 8.4 2.1 10.9-2 .3-.4.6-1.1.7-1.4.5-1.1.2-2.9-.7-3.7zM368.6 168.9c-1.4-1.2-3.3-1.9-5.4-2-4.6-.3-7.9 3-6.4 6.2 1.4 2.9 5.2 4.5 9 3.8 2.7-.5 4.7-2.5 4.6-4.7 0-.8-1-2.7-1.8-3.3zM348.8 160.7c-1.2-1.5-3.1-2.8-5.6-4-1.7-.9-5.3-1.9-6.4-1.8-.8.1-2.1.7-2.6 1.3-1.4 1.6-1.3 3.3.3 7.3 1.7 4.2 1.7 5.5.3 9.7-.8 2.5-.9 3-.8 4.1.1 1.1.8 2.5 1.5 2.9 2.1 1.3 5.6-.1 10.2-3.9 2.9-2.4 4.5-4.7 5.2-7.2.4-1.5.3-3-.1-4.5-.2-1-1.4-3.2-2-3.9zM358.1 178.1c-1.5-1.5-3.7-2.4-6.1-2.4-2.3-.1-4.4 1.4-4.8 3.3-.3 1.9 1.2 4.4 3.5 5.7 1.7.9 4.2 1.3 5.9.8 2.2-.6 3.6-2.5 3.1-4.4-.1-1-.9-2.3-1.6-3zM474.4 33.1c-1.1-.4-1.8-.3-3.1.1s-2.8 1.3-3.9 2.5c-.9.9-2.1 3.2-2.3 4.3-.3 1.6-.1 3.2.5 4 .6.8 1.7 1.4 2.8 1.4 3.7.3 8.1-3.9 8.4-8 .1-2.3-.7-3.7-2.4-4.3zM481.4 44.6c-2.8-1-6.9.2-9 2.7-.8 1-1.5 2.3-1.6 3.4-.1 1.1.3 2.4 1.1 3.1 2.4 2.2 7 1.7 10.3-1.2 1.5-1.3 2.3-3.2 2-4.9-.2-1.3-1.4-2.6-2.8-3.1zM460.1 32.4c-2.7-.5-6.1 2.2-7.2 5.6-.6 2-.5 4.2.4 5.4.3.5.5.6 1.2 1 1 .5 1.7.5 2.8.2 1.7-.6 3.1-1.7 4.2-3.6 1.1-1.9 1.5-3.8 1.2-5.7-.3-1.2-1.6-2.7-2.6-2.9zM458.9 47.5c-2.6-.8-6.8-.7-10.2.4-2.1.6-2.8 1.1-3.5 2.1-.9 1.4-.9 2.7-.2 4 .6 1.1 1.4 1.9 3.2 3.3 3.5 2.8 4.3 4 5.1 8.4.5 2.6.6 3.1 1.2 3.9 1.6 2.3 3.8 2.3 6 0 .8-.9 1.9-2.8 2.8-4.9 1.5-3.5 2-5.5 2.2-8.1.1-2.5-.7-4.7-2.4-6.5-.8-.8-3-2.2-4.2-2.6zM475.8 57.8c-2-.4-3.9-.2-5.7.7-3.4 1.6-4.6 5-2.5 7.1 1.7 1.7 4.2 2.2 7 1.4 1.2-.3 1.7-.6 2.6-1.2 1.1-.8 1.1-.8 1.7-1.9.9-1.7.9-3-.1-4.1-.6-.8-2.2-1.8-3-2zM550.7 38.7c-.8-.9-1.4-1.2-2.7-1.5-1.3-.3-3.1-.3-4.6.2-1.3.4-3.4 1.7-4.1 2.5-1.1 1.2-1.7 2.7-1.6 3.7.1 1 .7 2 1.7 2.7 3.1 2.1 9 .7 11.3-2.7 1.2-1.9 1.2-3.5 0-4.9zM550.9 52.2c-1.9-2.3-6-3.3-9.1-2.3-1.2.4-2.5 1.3-3.1 2.1-.7.9-.9 2.2-.6 3.2 1 3.1 5.2 5 9.5 4.2 1.9-.4 3.6-1.6 4.3-3.2.3-1.2 0-2.9-1-4zM538.8 30.8c-2-1.8-6.4-1.3-9.1 1.2-1.5 1.4-2.5 3.4-2.4 4.8 0 .6.1.8.5 1.4.6.9 1.2 1.3 2.3 1.6 1.8.4 3.6.1 5.5-.9s3.2-2.5 4-4.3c.4-1.1 0-3.1-.8-3.8zM530.2 43.2c-1.8-2-5.5-4-9-4.9-2.1-.5-3-.5-4.1.1-1.4.7-2.2 1.9-2.2 3.4 0 1.2.2 2.3 1.1 4.5 1.6 4.2 1.6 5.6.1 9.9-.9 2.5-1 3-.9 4 .2 2.8 2.1 3.9 5.1 3.1 1.1-.3 3.1-1.5 5-2.8 3.1-2.2 4.5-3.7 6-5.8 1.4-2.1 1.8-4.4 1.3-6.8-.4-1.4-1.6-3.8-2.4-4.7zM539.4 60.7c-1.5-1.4-3.3-2.1-5.2-2.3-3.7-.3-6.5 1.9-5.8 4.8.6 2.3 2.5 4 5.3 4.8 1.2.3 1.8.3 2.8.3 1.3-.1 1.4-.1 2.4-.8 1.6-1 2.2-2.1 2-3.6-.1-1-.9-2.7-1.5-3.2zM628.3 64c-.5-1-1-1.5-2.2-2.2-1.2-.7-2.9-1.1-4.5-1-1.3 0-3.7.7-4.6 1.3-1.4.9-2.3 2.1-2.5 3.1-.2 1 .2 2.2.9 3 2.4 2.9 8.5 3.1 11.6.4 1.7-1.4 2.1-3 1.3-4.6zM624.9 77c-1.2-2.7-4.9-4.8-8.2-4.6-1.3.1-2.7.6-3.5 1.2-.9.7-1.5 1.9-1.4 2.9.1 3.3 3.7 6.2 8 6.5 2 .2 3.9-.6 4.9-2 .8-.9.9-2.7.2-4zM618.9 53.2c-1.5-2.3-5.8-2.9-9.1-1.3-1.8.9-3.3 2.6-3.6 4-.1.6-.1.8.1 1.5.3 1 .8 1.6 1.8 2.1 1.6.9 3.4 1 5.5.5s3.8-1.5 4.9-3.1c.8-.8 1-2.8.4-3.7zM607.3 62.9c-1.2-2.4-4.2-5.3-7.4-7.1-1.9-1.1-2.7-1.3-4-1-1.6.3-2.6 1.2-3 2.7-.3 1.2-.4 2.3-.2 4.6.5 4.5.1 5.9-2.5 9.5-1.5 2.1-1.8 2.6-1.9 3.6-.5 2.8 1 4.3 4.1 4.3 1.2 0 3.4-.6 5.5-1.4 3.5-1.3 5.4-2.4 7.3-4.1 1.9-1.6 2.9-3.8 3-6.2.2-1.2-.4-3.8-.9-4.9zM611.6 82.2c-1.1-1.7-2.6-2.9-4.4-3.6-3.5-1.3-6.8.2-6.8 3.1-.1 2.4 1.3 4.6 3.9 6 1.1.6 1.6.8 2.7 1 1.3.2 1.4.2 2.5-.1 1.8-.5 2.7-1.4 2.9-2.9 0-1-.4-2.8-.8-3.5zM83.8 177.5c-.6-.6-1.1-.7-2.2-.8-1.9-.1-3.8.5-5.4 1.8-1.6 1.3-2.6 2.8-2.9 4.6-.2 1.3-.1 2 .6 2.9 2.3 3.1 8.6 1.1 10.6-3.4.2-.5.5-1.2.5-1.5.3-1.2-.3-2.9-1.2-3.6z"/></g></svg>