<svg version="1.1" id="Layer_1" xmlns="http://www.w3.org/2000/svg" x="0" y="0" viewBox="0 0 204 169" xml:space="preserve" enable-background="new 0 0 204 169"><style>.st0{fill:#00bdd3}.st6{fill:#1ac6da}.st8{fill:#dd00a0}.st9{fill:#f70400}.st11{fill:#0899fd}.st12{fill:#ffca06}</style><circle class="st0" cx="102" cy="94" r="75"/><defs><filter id="Adobe_OpacityMaskFilter" filterUnits="userSpaceOnUse" x="23.7" y="17" width="159.8" height="156.9"><feColorMatrix values="1 0 0 0 0 0 1 0 0 0 0 0 1 0 0 0 0 0 1 0"/></filter></defs><mask maskUnits="userSpaceOnUse" x="23.7" y="17" width="159.8" height="156.9" id="mask0_1_"><circle cx="102" cy="94" r="73" fill="#fff" filter="url(#Adobe_OpacityMaskFilter)" stroke="#ea5924" stroke-width="4"/></mask><g mask="url(#mask0_1_)"><defs><filter id="Adobe_OpacityMaskFilter_1_" filterUnits="userSpaceOnUse" x="23.7" y="17" width="159.8" height="156.9"><feColorMatrix values="1 0 0 0 0 0 1 0 0 0 0 0 1 0 0 0 0 0 1 0"/></filter></defs><mask maskUnits="userSpaceOnUse" x="23.7" y="17" width="159.8" height="156.9" id="mask1_1_"><path fill="none" filter="url(#Adobe_OpacityMaskFilter_1_)" d="M-218.4-68.6H358v365.9h-576.4z"/><path fill="#0e5058" fill-opacity=".8" d="M-218.4-68.6H358v365.9h-576.4z"/><path class="st0" d="M-218.4-68.6H358v365.9h-576.4z"/></mask><g mask="url(#mask1_1_)"><path class="st6" d="M33.7 91.5c-.4 0-.7-.3-.7-.7l.2-8.8c0-.4.3-.7.7-.7.4 0 .7.3.7.7l-.2 8.8c0 .4-.3.7-.7.7zM68.3 56.7h-.2l-5.4-1.8c-.3-.1-.5-.5-.4-.8.1-.3.5-.5.8-.4l5.4 1.8c.3.1.5.5.4.8-.1.2-.3.4-.6.4zM116.3 36.3c-.1 0-.3 0-.4-.1l-2.4-1.7c-.3-.2-.4-.6-.2-.9.2-.3.6-.4.9-.2l2.4 1.7c.3.2.4.6.2.9-.1.2-.3.3-.5.3zM101.1 26.2c-.1 0-.3 0-.4-.1l-5.4-3.6c-.3-.2-.4-.6-.2-.9.2-.3.6-.4.9-.2l5.4 3.6c.3.2.4.6.2.9-.1.2-.3.3-.5.3zM117.9 99c-.3 0-.6-.2-.7-.6l-.7-5.1c0-.4.2-.7.6-.8.4-.1.7.2.8.6l.7 5.1c0 .4-.2.7-.7.8.1 0 0 0 0 0zM90.2 77.6c-.3 0-.6-.2-.7-.5l-.7-2.8c-.1-.4.1-.7.5-.8.4-.1.7.1.8.5l.7 2.8c.1.4-.1.7-.5.8h-.1zM134.7 72.7c-.3 0-.6-.2-.7-.6l-.9-5.7c-.1-.4.2-.7.6-.8.4-.1.7.2.8.6l.9 5.7c.1.4-.2.7-.6.8h-.1zM64.3 33.2c-.1 0-.2 0-.4-.1-.3-.2-.4-.6-.2-.9l2.9-4.7c.2-.3.6-.4.9-.2.3.2.4.6.2.9l-2.9 4.7c0 .1-.3.3-.5.3zM102.2 100.3c-.3 0-.6-.2-.7-.5-.1-.4.1-.7.5-.8l2.7-.6c.4-.1.7.1.8.5.1.4-.1.7-.5.8l-2.7.6h-.1zM40.3 69.3c-.3 0-.6-.2-.6-.5-.1-.4.1-.7.5-.8l6.4-1.8c.4-.1.7.1.8.5.1.4-.1.7-.5.8l-6.4 1.8h-.2zM39.8 40c-.3 0-.5-.2-.6-.4l-2.4-5.7c-.1-.3 0-.7.4-.9.3-.1.7 0 .9.4l2.4 5.7c.1.3 0 .7-.4.9h-.3zM129.1 85.8c-.3 0-.6-.2-.7-.6 0-.4.2-.7.6-.8l5.3-.7c.4 0 .7.2.8.6s-.2.7-.6.8l-5.4.7zM97.4 57.8c-.3 0-.6-.2-.7-.6-.1-.4.2-.7.6-.8l1.8-.3c.4-.1.7.2.8.6.1.4-.2.7-.6.8l-1.8.3h-.1zM120.1 114.4c-.1 0-.2 0-.4-.1-.3-.2-.4-.6-.2-.9l2.2-3.5c.2-.3.6-.4.9-.2.3.2.4.6.2.9l-2.2 3.5c0 .2-.2.3-.5.3zM49.8 82.1c-.2 0-.4-.1-.5-.2l-2.7-3.1c-.2-.3-.2-.7.1-.9.3-.2.7-.2.9.1l2.7 3.1c.2.3.2.7-.1.9-.1 0-.3.1-.4.1zM89 94.7c-.1 0-.2 0-.3-.1-.3-.2-.5-.6-.3-.9l2.3-5.1c.2-.3.6-.5.9-.3.3.2.5.6.3.9l-2.3 5.1c0 .2-.3.4-.6.4zM74 45.6c-.2 0-.3-.1-.5-.2-.3-.2-.3-.7 0-.9l1.5-1.7c.2-.3.7-.3.9 0 .3.2.3.7 0 .9l-1.5 1.7c0 .1-.2.2-.4.2zM39 24.4h-.2c-.3-.1-.5-.5-.4-.9l2.1-6c.1-.3.5-.5.9-.4.3.1.5.5.4.9l-2.1 6c-.2.2-.4.4-.7.4zM105.7 44.1h-.3l-7.9-3.2c-.3-.1-.5-.5-.4-.9.1-.3.5-.5.9-.4l7.9 3.2c.3.1.5.5.4.9-.1.2-.3.4-.6.4zM30.2 63.3h-.1c-.4-.1-.6-.4-.5-.8l1.6-8c.1-.4.4-.6.8-.5.4.1.6.4.5.8l-1.6 8c-.1.3-.3.5-.7.5zM112.3 59.9h-.2c-.4-.1-.6-.5-.5-.8l2.6-9c.1-.4.5-.6.8-.5.4.1.6.5.5.8l-2.6 9c-.1.3-.3.5-.6.5zM103.1 86.2c-.3 0-.5-.2-.6-.4-.1-.3 0-.7.4-.9l4.4-1.7c.3-.1.7 0 .9.4.1.3 0 .7-.4.9l-4.4 1.7h-.3zM59.4 42.2c-.2 0-.3-.1-.5-.2l-4.3-4.1c-.3-.3-.3-.7 0-.9.3-.3.7-.3.9 0l4.3 4.1c.3.3.3.7 0 .9 0 .1-.2.2-.4.2zM77.1 67.6c-.2 0-.4-.1-.5-.2-.2-.3-.2-.7.1-.9l6-5c.3-.2.7-.2.9.1.2.3.2.7-.1.9l-6 5c-.1.1-.3.1-.4.1zM136 25.6c-.3 0-.5-.2-.6-.5l-.6-1.8c-.1-.3.1-.7.4-.9.3-.1.7.1.9.4l.6 1.8c.1.3-.1.7-.4.9-.1.1-.2.1-.3.1zM47.7 94.9h-.2l-1.6-.5c-.4-.1-.6-.5-.4-.8.1-.4.5-.6.8-.4l1.6.5c.4.1.6.5.4.8-.1.2-.3.4-.6.4zM87 34.5c-.2 0-.4-.1-.6-.3L84 30.6c-.2-.3-.1-.7.2-.9.3-.2.7-.1.9.2l2.5 3.6c.2.3.1.7-.2.9-.2.1-.3.1-.4.1zM77.9 83.7c-.1 0-.2 0-.3-.1L71 80.4c-.3-.2-.5-.6-.3-.9.2-.3.6-.5.9-.3l6.6 3.2c.3.2.5.6.3.9-.2.2-.4.4-.6.4zM87.1 50.1h-.2c-.4-.1-.6-.5-.5-.8l.5-2.1c.1-.4.5-.6.8-.5.4.1.6.5.5.8l-.5 2.1c0 .3-.3.5-.6.5zM28.8 113.2c-.2 0-.4-.1-.5-.2-.3-.3-.2-.7 0-.9l3.9-3.7c.3-.3.7-.2.9 0s.2.7 0 .9l-3.9 3.7c-.1.1-.3.2-.4.2zM104.7 70.3l-5-.4c-.4 0-.6-.4-.6-.7 0-.4.3-.6.7-.6l5 .4c.4 0 .6.4.6.7-.1.4-.3.6-.7.6zM104.7 113.8c-.2 0-.5-.1-.6-.4-.2-.3 0-.7.3-.9l2.4-1.2c.3-.2.7 0 .9.3.2.3 0 .7-.3.9l-2.4 1.2c-.1 0-.2.1-.3.1zM74.7 100c-.1 0-.3 0-.4-.1-.3-.2-.3-.6-.1-.9l2.5-3.3c.2-.3.6-.3.9-.1.3.2.3.6.1.9l-2.5 3.3c-.1.2-.3.2-.5.2zM133.1 100.4c-.3 0-.6-.2-.7-.6l-.5-3c-.1-.4.2-.7.6-.8.4-.1.7.2.8.6l.5 3c.1.4-.2.7-.6.8h-.1zM63.9 91.6c-.1 0-.2 0-.3-.1l-4.8-2.1c-.3-.1-.5-.5-.3-.9.1-.3.5-.5.9-.3l4.8 2.1c.3.1.5.5.3.9-.1.2-.3.4-.6.4zM117.9 77.5c-.1 0-.2 0-.3-.1-.3-.2-.5-.6-.3-.9l4.6-9c.2-.3.6-.5.9-.3.3.2.5.6.3.9l-4.6 9c-.1.2-.4.4-.6.4zM44.8 114.7c-.4 0-.7-.3-.7-.7l.2-9.9c0-.4.3-.7.7-.7.4 0 .7.3.7.7l-.2 9.9c0 .4-.3.7-.7.7zM49 54.8c-.2 0-.4-.1-.6-.3l-2.1-3.3c-.2-.3-.1-.7.2-.9.3-.2.7-.1.9.2l2.1 3.3c.2.3.1.7-.2.9-.1.1-.2.1-.3.1zM134 38l-2.1-.2c-.4 0-.6-.4-.6-.7 0-.4.4-.6.7-.6l2.1.2c.4 0 .6.4.6.7-.1.3-.3.6-.7.6zM124.3 26.9h-.2l-3.2-.8c-.4-.1-.6-.5-.5-.8.1-.4.5-.6.8-.5l3.2.8c.4.1.6.5.5.8 0 .3-.3.5-.6.5zM60.7 73.4c-.3 0-.6-.3-.7-.6l-.7-6.2c0-.4.2-.7.6-.7.4 0 .7.2.7.6l.7 6.2c.2.4-.1.7-.6.7.1 0 .1 0 0 0zM171.8 99.9c-.3 0-.5-.2-.6-.5l-1-2.9c-.1-.3.1-.7.4-.9.3-.1.7.1.9.4l1 2.9c.1.3-.1.7-.4.9-.1.1-.2.1-.3.1zM159.8 32.2c-.1 0-.2 0-.4-.1-.3-.2-.4-.6-.2-.9l3.6-5.9c.2-.3.6-.4.9-.2.3.2.4.6.2.9l-3.6 5.9c0 .2-.3.3-.5.3zM182.9 24.7c-.1 0-.3 0-.4-.1l-5.6-3.7c-.3-.2-.4-.6-.2-.9.2-.3.6-.4.9-.2l5.6 3.7c.3.2.4.6.2.9-.1.2-.3.3-.5.3zM148.6 40c-.1 0-.3 0-.4-.2-.3-.2-.3-.7-.1-.9l1.5-1.8c.2-.3.7-.3.9-.1s.3.7.1.9l-1.5 1.8c-.1.2-.3.3-.5.3zM140.9 20.3c-.3 0-.6-.2-.7-.6 0-.4.2-.7.6-.7l8.4-1c.4 0 .7.2.7.6 0 .4-.2.7-.6.7l-8.4 1c.1 0 0 0 0 0zM179.1 41.4c-.2 0-.4-.1-.5-.3l-4-5.4c-.2-.3-.2-.7.1-.9.3-.2.7-.2.9.1l4 5.4c.2.3.2.7-.1.9-.2.2-.3.2-.4.2zM174.3 84.7h-.1l-2.9-.5c-.4-.1-.6-.4-.5-.8.1-.4.4-.6.8-.5l2.9.5c.4.1.6.4.5.8-.1.2-.3.5-.7.5zM170.4 72c-.3 0-.6-.2-.7-.5l-2-9.2c-.1-.4.1-.7.5-.8.4-.1.7.1.8.5l2 9.2c.1.4-.1.7-.5.8h-.1zM164.9 48.7c-.2 0-.4-.1-.5-.3l-2.2-3.1c-.2-.3-.1-.7.2-.9.3-.2.7-.1.9.2l2.2 3.1c.2.3.1.7-.2.9-.2 0-.3.1-.4.1zM155.8 114.9c-.2 0-.3-.1-.5-.2l-1.7-1.7c-.3-.3-.3-.7 0-.9.3-.3.7-.3.9 0l1.7 1.7c.3.3.3.7 0 .9-.1.2-.2.2-.4.2zM141.5 92.9c-.3 0-.5-.2-.6-.5l-2.8-8.3c-.1-.3.1-.7.4-.9.4-.1.7.1.9.4l2.8 8.3c.1.3-.1.7-.4.9-.1 0-.2.1-.3.1zM156.3 62.2c-.2 0-.3-.1-.5-.2l-7.5-7.1c-.3-.3-.3-.7 0-.9.3-.3.7-.3.9 0l7.5 7.1c.3.3.3.7 0 .9 0 .2-.2.2-.4.2zM157.6 101.7c-.3 0-.6-.2-.7-.5l-1.6-7.8c-.1-.4.2-.7.5-.8s.7.2.8.5l1.6 7.8c.1.4-.2.7-.5.8 0-.1-.1 0-.1 0zM138.4 53.8c-.3 0-.6-.3-.7-.6l-.4-5.1c0-.4.2-.7.6-.7.4 0 .7.2.7.6l.4 5.1c.1.4-.2.7-.6.7.1 0 0 0 0 0zM158.4 80.3c-.1 0-.3 0-.4-.1l-6.9-4.5c-.3-.2-.4-.6-.2-.9.2-.3.6-.4.9-.2l6.9 4.5c.3.2.4.6.2.9-.1.1-.3.3-.5.3zM139.3 113h-.1c-.4-.1-.6-.4-.6-.8l1.2-7.7c.1-.4.4-.6.8-.6.4.1.6.4.6.8l-1.2 7.7c-.1.3-.4.6-.7.6zM155.1 164.6h-.2l-6.5-2.6c-.3-.1-.5-.5-.4-.9.1-.3.5-.5.9-.4l6.5 2.6c.3.1.5.5.4.9-.2.2-.5.4-.7.4zM160.2 150h-.2l-7.4-2.3c-.4-.1-.6-.5-.4-.8.1-.4.5-.6.8-.4l7.4 2.3c.4.1.6.5.4.8 0 .2-.3.4-.6.4zM137.6 161.4c-.4 0-.7-.3-.7-.6l-.3-6.6c0-.4.3-.7.6-.7.4 0 .7.3.7.6l.3 6.6c.1.4-.2.7-.6.7zM172.1 169.4c-.1 0-.2 0-.3-.1l-6.9-3.1c-.3-.2-.5-.6-.3-.9.2-.3.6-.5.9-.3l6.9 3.1c.3.2.5.6.3.9 0 .2-.3.4-.6.4zM171.1 140.6c-.3 0-.6-.3-.7-.6l-.9-10.1c0-.4.2-.7.6-.7.4 0 .7.2.7.6l.9 10.1c.1.3-.1.7-.6.7.1 0 0 0 0 0zM152.2 133.8c-.3 0-.6-.2-.7-.6-.1-.4.2-.7.5-.8l5.2-.9c.4-.1.7.2.8.5.1.4-.2.7-.5.8l-5.2.9c0 .1-.1.1-.1.1zM176.2 157.5c-.2 0-.5-.1-.6-.3l-2.5-4.2c-.2-.3-.1-.7.2-.9.3-.2.7-.1.9.2l2.5 4.2c.2.3.1.7-.2.9-.1.1-.2.1-.3.1zM89 117.3c-.1 0-.2 0-.4-.1l-3.4-2.1c-.3-.2-.4-.6-.2-.9.2-.3.6-.4.9-.2l3.4 2.1c.3.2.4.6.2.9-.1.2-.3.3-.5.3zM120.5 154.5h-.2c-.4-.1-.6-.4-.5-.8l.5-2.2c.1-.4.4-.6.8-.5.4.1.6.4.5.8l-.5 2.2c0 .3-.3.5-.6.5zM28.3 123.8c-.2 0-.5-.1-.6-.4l-3.9-7.5c-.2-.3 0-.7.3-.9.3-.2.7 0 .9.3l3.9 7.5c.2.3 0 .7-.3.9-.1.1-.2.1-.3.1zM112.7 122.1h-.1c-.4-.1-.6-.4-.6-.8l.9-5.3c.1-.4.4-.6.8-.6.4.1.6.4.6.8l-.9 5.3c-.1.4-.4.6-.7.6zM119.2 137.6c-.3 0-.6-.2-.7-.6l-.5-3c-.1-.4.2-.7.5-.8.4-.1.7.2.8.5l.6 3.1c.1.4-.2.7-.5.8h-.2zM48.8 131.4c-.2 0-.5-.1-.6-.3l-1-1.8c-.2-.3-.1-.7.3-.9.3-.2.7-.1.9.3l1 1.8c.2.3.1.7-.3.9h-.3zM89.4 131.5c-.2 0-.5-.1-.6-.3l-2.2-3.7c-.2-.3-.1-.7.2-.9.3-.2.7-.1.9.2l2.2 3.7c.2.3.1.7-.2.9-.1 0-.2.1-.3.1zM135 150c-.1 0-.1 0 0 0l-2.3-.2c-.4 0-.6-.4-.6-.7 0-.4.4-.6.7-.6l2.2.2c.4 0 .6.4.6.7 0 .4-.3.6-.6.6zM83.5 169.8c-.3 0-.6-.2-.7-.6l-1-5.3c-.1-.4.2-.7.5-.8.4-.1.7.2.8.5l1 5.3c.1.4-.2.7-.5.8-.1 0-.1.1-.1.1zM60.2 150.6c-.3 0-.6-.2-.6-.5l-2.6-8.9c-.1-.4.1-.7.5-.8.4-.1.7.1.8.5l2.6 8.9c.1.4-.1.7-.5.8h-.2zM33.7 135.9c-.3 0-.5-.2-.6-.4-.1-.3.1-.7.4-.9l3-1.1c.3-.1.7.1.9.4.1.3-.1.7-.4.9l-3 1.1h-.3zM75.9 154.7c-.2 0-.4-.1-.6-.3l-1.3-1.9c-.2-.3-.1-.7.2-.9.3-.2.7-.1.9.2l1.3 1.9c.2.3.1.7-.2.9-.1 0-.2.1-.3.1zM69 168c-.2 0-.3-.1-.4-.2l-4-3.4c-.3-.2-.3-.7-.1-.9.2-.3.7-.3.9-.1l4 3.4c.3.2.3.7.1.9-.1.2-.3.3-.5.3zM38.7 165.3c-.2 0-.3-.1-.5-.2l-1.4-1.2c-.3-.2-.3-.7-.1-.9.2-.3.7-.3.9-.1l1.4 1.2c.3.2.3.7.1.9-.1.2-.2.3-.4.3zM133.1 138.7c-.4 0-.7-.3-.7-.7l.5-9.1c0-.4.3-.7.7-.6.4 0 .7.3.6.7l-.5 9.1c.1.3-.2.6-.6.6zM61 128.1c-.3 0-.6-.2-.7-.6-.1-.4.2-.7.6-.8l5.8-.9c.4-.1.7.2.8.6.1.4-.2.7-.6.8l-5.8.9H61zM120.5 171.5c-.1 0-.2 0-.3-.1l-9.5-4.5c-.3-.2-.5-.6-.3-.9.2-.3.6-.5.9-.3l9.5 4.5c.3.2.5.6.3.9-.1.3-.3.4-.6.4zM107 153s-.1 0 0 0c-.4 0-.7-.4-.7-.7l.4-4.5c0-.4.4-.6.7-.6.4 0 .6.4.6.7l-.4 4.5c0 .3-.3.6-.6.6zM93 151.6c-.2 0-.4-.1-.5-.2l-5.3-6.3c-.2-.3-.2-.7.1-.9.3-.2.7-.2.9.1l5.3 6.3c.2.3.2.7-.1.9-.1 0-.3.1-.4.1zM35 151.8c-.3 0-.5-.2-.6-.4-.1-.3 0-.7.4-.9l8.9-3.6c.3-.1.7 0 .9.4.1.3 0 .7-.4.9l-8.9 3.6H35zM56.3 116.6c-.2 0-.5-.1-.6-.3-.2-.3-.1-.7.2-.9l2.4-1.4c.3-.2.7-.1.9.2.2.3.1.7-.2.9l-2.4 1.4s-.2.1-.3.1zM51.8 160.8c-.2 0-.5-.1-.6-.3l-1.2-1.9c-.2-.3-.1-.7.2-.9.3-.2.7-.1.9.2l1.2 1.9c.2.3.1.7-.2.9-.1.1-.2.1-.3.1zM105.7 134.8l-5.6-.7c-.4 0-.6-.4-.6-.8s.4-.6.8-.6l5.5.7c.4 0 .6.4.6.8-.1.3-.3.6-.7.6zM70.9 140.2c-.2 0-.4-.1-.6-.3-.2-.3-.1-.7.2-.9l7.2-5.1c.3-.2.7-.1.9.2.2.3.1.7-.2.9l-7.2 5.1s-.1.1-.3.1zM98.6 173.8c-.3 0-.6-.2-.7-.5l-2.4-9.4c-.1-.4.1-.7.5-.8.4-.1.7.1.8.5l2.4 9.4c.1.4-.1.7-.5.8h-.1z"/></g></g><path d="M64 59.9l5.6 72.2c.1 1.1.8 2 1.9 2.3l29.7 9.4c.5.2 1.1.2 1.6 0l29.7-9.4c1-.3 1.8-1.3 1.9-2.3l5.6-72.2c.1-1.6-1.1-2.9-2.7-2.9H66.7c-1.6 0-2.8 1.3-2.7 2.9zm61.5 22.4H88.8l1.1 10.2h34.9l-2.3 29.2-20.4 6.5-20.4-6.5-1.2-15.3h10.7v7.5l11.2 3 11.1-3 .9-11.9H80l-2.3-29.1h48.5l-.7 9.4z" fill="#fff"/><circle class="st8" cx="179.5" cy="97.5" r="8.5"/><circle class="st9" cx="181.5" cy="46.5" r="11.5"/><circle class="st8" cx="20.5" cy="46.5" r="10.5"/><circle class="st8" cx="184.5" cy="152.5" r="8.5"/><circle cx="75" cy="14" r="7" fill="#8be405"/><circle class="st11" cx="51" cy="7" r="7"/><circle class="st11" cx="175" cy="132" r="4"/><circle class="st11" cx="40" cy="39" r="4"/><circle class="st12" cx="193" cy="107" r="11"/><circle class="st11" cx="7" cy="96" r="7"/><circle class="st12" cx="25" cy="150" r="11"/><circle class="st9" cx="16" cy="122" r="4"/><circle class="st12" cx="117" cy="7" r="7"/><path d="M153.1 39.1c2.9-2 4.9-5.3 4.9-9.1 0-6.1-4.9-11-11-11-5.1 0-9.5 3.5-10.7 8.3 6.2 3.2 11.8 7.2 16.8 11.8z" fill-rule="evenodd" clip-rule="evenodd" fill="#0899fd"/><path d="M30.4 71.5c-1.2-3.2-4.3-5.5-7.9-5.5-4.7 0-8.5 3.8-8.5 8.5s3.8 8.5 8.5 8.5c2.2 0 4.1-.8 5.6-2.1.6-3.3 1.4-6.4 2.3-9.4z" fill-rule="evenodd" clip-rule="evenodd" fill="#8be405"/></svg>