<svg width="100" height="26" fill="none" xmlns="http://www.w3.org/2000/svg"><path d="M28.908 22.603a2.843 2.843 0 01-.924 2.54 2.527 2.527 0 01-.83.485c-.333.117-.68.16-1.021.139-.01 0-.019 0-.028-.002a2.793 2.793 0 01-1.816-.855c-.76-.804-.738-1.803-.729-2.011 0-.1.005-.199.017-.296h-8.255c.012.097.016.195.016.296.01.208.032 1.207-.728 2.01a2.794 2.794 0 01-1.816.856c-.01.002-.019.002-.028.002a2.573 2.573 0 01-1.44-.33 2.595 2.595 0 01-.41-.294h-.002a2.846 2.846 0 01-.923-2.54H7.018l.06-.22 1.11-4.067.243-.012 2.84-.125a.227.227 0 10-.02-.455l-2.694.119-.242.01c.134-.494.27-.987.403-1.481l.235.02 2.281.187h.02c.119 0 .22-.09.23-.208a.229.229 0 00-.21-.246l-2.198-.182-.235-.02.41-1.5.217.084 2.164.824a.23.23 0 00.298-.13.227.227 0 00-.132-.295l-2.209-.843-.217-.082C10.57 9.588 11.77 5.194 12.97.801l2.595 7.88c.61-.306 2.034-.932 3.876-.904h.017c1.842-.028 3.266.598 3.876.903L25.93.801l3.597 13.18-.217.082-2.21.843a.228.228 0 00.084.441.238.238 0 00.083-.016l2.164-.824.218-.083.409 1.5-.235.02-2.198.18a.23.23 0 00-.211.247.23.23 0 00.23.208h.02l2.282-.188.234-.02.404 1.483-.242-.011-2.695-.119a.229.229 0 00-.241.218.23.23 0 00.22.237l2.842.125.243.012 1.11 4.067.06.22h-2.973z" fill="#F4E041"/><path d="M32.182 22.832l-.06-.22-.063-.228-1.108-4.058-.24-.01-.243-.011 1.111 4.07h-2.937l.035.26a2.636 2.636 0 01-.599 2.089 2.337 2.337 0 01-.611.507 2.319 2.319 0 01-1.334.308 2.54 2.54 0 01-1.675-.785c-.645-.683-.681-1.518-.666-1.855 0-.1.004-.187.014-.27l.03-.254h-8.774l.03.255c.01.082.015.17.015.278.014.328-.022 1.163-.667 1.846a2.541 2.541 0 01-1.91.79 2.32 2.32 0 01-1.097-.311h-.001a1.938 1.938 0 01-.317-.22 2.342 2.342 0 01-.296-.289 2.636 2.636 0 01-.599-2.09l.036-.259H7.319l1.111-4.07-.242.01-.242.011-1.108 4.058-.062.229-.06.219h3.02c-.077 1.34.705 2.58 1.93 3.01 1.067.377 2.318.064 3.113-.777.764-.81.807-1.792.79-2.166v-.067h7.76v.057c-.017.384.026 1.366.79 2.176a3.018 3.018 0 002.18.935c.315 0 .63-.052.932-.158 1.226-.43 2.007-1.67 1.93-3.01h3.02zm-23.464-6.46l-.234-.02-.412 1.512.243-.01.241-.011.397-1.452-.235-.019zM25.95 0l-.241.73-2.166 6.573-.348 1.057c-.88-.408-2.184-.838-3.738-.81h-.012a8.62 8.62 0 00-3.743.81l-.348-1.057c-.721-2.19-1.442-4.381-2.165-6.572L12.947 0 9.154 13.898l.218.084.217.082L12.99 1.601l1.924 5.842.514 1.56.24-.12c.829-.416 2.16-.908 3.773-.879h.02c1.618-.027 2.94.463 3.768.878l.241.121.514-1.56c.64-1.947 1.282-3.894 1.924-5.842l3.402 12.461.217-.082.216-.083L25.95 0zM9.033 14.34l-.427 1.565.235.019.235.02.391-1.437-.217-.083-.217-.083zm20.832.002l-.216.082-.218.083.392 1.436.235-.019.233-.018-.426-1.564zm.549 2.01l-.234.02-.234.02.396 1.45.242.012.241.01-.411-1.511z" fill="#000" fill-opacity=".87"/><path d="M21.282 14.95a.488.488 0 01-.491-.485v-2.937c0-.268.22-.485.49-.485.273 0 .492.217.492.485v2.937c0 .267-.22.484-.491.484zM17.906 14.437a.49.49 0 01-.541-.431l-.24-2.217a.487.487 0 01.437-.533.49.49 0 01.541.43l.24 2.217a.486.486 0 01-.437.534zM11.928 15.201a.23.23 0 01-.298.13l-2.164-.824-.217-.083-.218-.083-3.144-1.199a.227.227 0 01-.133-.295.232.232 0 01.3-.13l3.099 1.181.217.083.217.082 2.21.843c.119.046.178.178.131.295zM11.482 16.37a.23.23 0 01-.23.21h-.02l-2.28-.189-.235-.019-.235-.02-3.386-.279a.228.228 0 11.039-.453l3.47.285.234.019.235.02 2.198.18c.127.01.22.122.21.247zM11.49 17.942a.228.228 0 01-.22.237l-2.841.126-.243.011-.242.01-2.826.126h-.01a.229.229 0 01-.01-.456l2.972-.131.243-.01.242-.012 2.694-.119a.227.227 0 01.241.218zM33.009 13.142l-3.146 1.2-.216.082-.217.083-2.165.824a.233.233 0 01-.3-.13.228.228 0 01.134-.295l2.21-.843.216-.082.217-.083 3.1-1.18a.233.233 0 01.3.13.229.229 0 01-.133.294zM34.009 15.827a.23.23 0 01-.212.246l-3.386.28-.234.02-.234.019-2.282.188h-.02a.231.231 0 01-.23-.209.23.23 0 01.211-.246l2.198-.181.235-.02.233-.018 3.471-.286a.228.228 0 01.25.207zM34.017 18.234a.23.23 0 01-.231.218h-.01l-2.827-.126-.24-.01-.243-.011-2.842-.126a.23.23 0 01-.22-.237.229.229 0 01.24-.218l2.696.119.241.011.242.01 2.974.131a.229.229 0 01.22.239z" fill="#000" fill-opacity=".87"/><path d="M26.037 23.58c.088.25.164.556.189.906.028.412-.024.77-.095 1.053l-.094-1.96z" fill="#F4E041"/><path d="M26.132 25.767a.227.227 0 01-.224-.283 3.146 3.146 0 00-.09-1.83.227.227 0 01.144-.289.23.23 0 01.294.142 3.592 3.592 0 01.1 2.088.233.233 0 01-.224.172z" fill="#000" fill-opacity=".87"/><path d="M27.545 23.49c.14.224.263.497.301.81a1.75 1.75 0 01-.151.945l-.15-1.756z" fill="#F4E041"/><path d="M27.695 25.472a.227.227 0 01-.212-.32c.123-.274.167-.551.133-.825-.03-.24-.12-.48-.269-.72a.226.226 0 01.075-.313.233.233 0 01.318.074c.185.295.297.599.335.905.044.355-.012.713-.168 1.063a.23.23 0 01-.212.136z" fill="#000" fill-opacity=".87"/><path d="M12.86 23.58a3.34 3.34 0 00-.094 1.96l.094-1.96z" fill="#F4E041"/><path d="M12.764 25.767a.231.231 0 01-.224-.173 3.59 3.59 0 01.1-2.089.232.232 0 01.294-.141c.12.041.185.171.143.29a3.146 3.146 0 00-.089 1.83.228.228 0 01-.168.275.187.187 0 01-.056.008z" fill="#000" fill-opacity=".87"/><path d="M11.351 23.49a1.982 1.982 0 00-.301.81c-.047.37.037.69.151.945l.15-1.756z" fill="#F4E041"/><path d="M11.2 25.472a.232.232 0 01-.21-.136 1.971 1.971 0 01-.17-1.063 2.22 2.22 0 01.336-.905.233.233 0 01.318-.074.226.226 0 01.075.314c-.15.237-.24.48-.27.72-.033.273.01.55.133.823a.23.23 0 01-.212.32zM8.393 22.798H.246c-.135 0-.246-.087-.246-.194 0-.107.11-.194.246-.194h8.147c.135 0 .246.087.246.194 0 .107-.111.194-.246.194zM38.054 22.84h-7.659a.23.23 0 01-.231-.228.23.23 0 01.231-.228h7.66a.23.23 0 01.23.228.23.23 0 01-.23.228zM21.802 18.644c-.167.427-.552.888-1.04.958-.453.063-.87-.176-1.169-.546-.029.078-.064.16-.11.24-.076.133-.48.787-1.152.787h-.019c-.64-.011-1.196-.587-1.293-1.34a.228.228 0 01.2-.255.23.23 0 01.259.197c.074.582.486.936.842.942h.01c.424 0 .717-.496.749-.553.16-.283.156-.572.127-.763l-.029-.105c-.445.05-.829-.103-.9-.384-.08-.319.278-.681.8-.809s1.01.027 1.09.347c.067.263-.163.555-.538.721.012.042.022.093.031.147.188.614.666.973 1.036.922.287-.04.556-.368.673-.669.1-.255.086-.496.057-.652a.23.23 0 01.186-.265.232.232 0 01.27.183c.039.215.057.543-.08.897zM47.527 11.148c0 .776-.253 1.476-.76 2.103-.509.627-1.186 1.052-2.033 1.275a7.694 7.694 0 01-1.196.207c-.432.043-.914.064-1.444.064l.015 3.37h-1.33c.004-.319.014-.909.024-1.772A358.104 358.104 0 0040.78 7.5c.231-.004.457-.007.68-.007h.543c.93 0 1.72.058 2.372.175.653.117 1.2.316 1.647.598.489.302.86.697 1.118 1.183.258.485.388 1.052.388 1.7zm-1.37 0c0-.547-.127-1.012-.38-1.398-.253-.384-.64-.69-1.16-.912a3.437 3.437 0 00-1.048-.26 12.52 12.52 0 00-1.16-.05h-.298l-.016 1.195a124.243 124.243 0 00-.01 3.145l.004.917h.322c.36 0 .744-.025 1.15-.072a3.694 3.694 0 001.045-.262c.504-.212.89-.508 1.157-.885.26-.376.394-.849.394-1.418zM56.445 18.167h-1.233v-.924l-.007-.007c-.377.244-.846.495-1.408.753a3.952 3.952 0 01-1.657.386c-.742 0-1.322-.218-1.742-.653-.42-.436-.63-1.046-.63-1.833 0-.425.005-.93.013-1.517.007-.587.012-1.013.012-1.28 0-.483-.006-1.079-.02-1.788-.014-.71-.02-1.109-.02-1.199h1.273l-.015 1.147c-.011.695-.017 1.25-.017 1.665 0 .366.003.824.007 1.371.005.547.008.935.008 1.163.01.627.12 1.086.33 1.379.21.293.548.438 1.016.438.478 0 1.003-.128 1.575-.383.573-.255.992-.478 1.262-.67l.008-.88c.005-.522.008-1.175.008-1.956 0-.558-.006-1.226-.02-2.003a165.55 165.55 0 01-.02-1.27h1.273a138.482 138.482 0 00-.032 3.49c0 .684.002 1.287.007 1.804.01.517.019 1.44.03 2.767zM66.477 13.889c0 .823-.185 1.523-.557 2.1a3.955 3.955 0 01-1.5 1.365 6.19 6.19 0 01-1.805.606c-.656.117-1.28.175-1.87.175l.032 3.657h-1.282c.006-.09.012-.825.02-2.204.008-1.378.012-2.76.012-4.146a490.007 490.007 0 00-.032-5.4c.172-.005.342-.008.512-.008h.39c1.128 0 2.005.058 2.628.175.624.117 1.19.323 1.7.62.544.315.971.733 1.283 1.256.313.523.47 1.125.47 1.803zm-1.29.044c0-.52-.123-.976-.37-1.368a2.727 2.727 0 00-.968-.93c-.36-.201-.77-.35-1.23-.442a7.547 7.547 0 00-1.495-.14h-.362c0 .09-.005.405-.013.943a222.27 222.27 0 00-.008 3.951c.004.499.005.897.005 1.194.505 0 1.01-.046 1.515-.139.505-.093.922-.22 1.25-.378.548-.265.965-.617 1.25-1.058.283-.442.426-.985.426-1.633zM75.622 10.412l-2.238 5.018a866.503 866.503 0 01-1.222 2.739h-.943c-.026-.065-.42-.928-1.177-2.591-.758-1.664-1.53-3.358-2.313-5.085l1.182-.53 2.833 6.636h.015l2.752-6.622 1.11.435zM84.816 14.136c0 .616-.11 1.206-.335 1.768a4.02 4.02 0 01-.962 1.443c-.355.334-.749.59-1.181.765-.432.176-.923.263-1.472.263-.516 0-1-.087-1.45-.26a3.62 3.62 0 01-1.21-.76 3.923 3.923 0 01-.948-1.434 4.87 4.87 0 01-.335-1.8c0-.61.096-1.173.286-1.686.191-.512.487-.973.89-1.383.36-.372.78-.657 1.258-.857.478-.2.984-.299 1.515-.299.559 0 1.067.092 1.52.275.454.183.858.457 1.213.825.409.42.713.89.91 1.413.2.525.301 1.1.301 1.726zm-1.29.056c0-.499-.081-.985-.245-1.458a2.936 2.936 0 00-.762-1.195 2.197 2.197 0 00-.746-.467 2.534 2.534 0 00-.9-.163c-.37 0-.692.058-.967.175-.275.118-.532.3-.775.55-.285.287-.509.653-.672 1.1a4 4 0 00-.246 1.386c0 .542.084 1.04.25 1.495.167.454.436.846.806 1.175.21.186.452.328.725.427.273.1.565.148.87.148.338 0 .655-.058.948-.175.293-.118.55-.287.77-.51.307-.308.54-.68.702-1.114.16-.44.242-.897.242-1.374zM91.572 17.179l-.145 1.01c-.037.007-.13.011-.278.017-.148.005-.276.008-.382.008-1.102 0-1.935-.227-2.5-.681-.565-.455-.847-1.152-.847-2.091 0-.59.004-1.221.012-1.895.008-.674.012-1.511.012-2.51H86.09v-.932h1.427v-1.89h1.17v1.889h2.887v.931h-2.887c0 .111-.005.444-.013.996-.007.552-.012.96-.012 1.227V15.236c0 .69.188 1.187.565 1.494.376.305.956.457 1.742.457.097 0 .213-.001.347-.004l.256-.003zM100 13.841h-5.828c.004.563.126 1.08.362 1.55s.599.858 1.088 1.166c.312.197.667.344 1.065.442.398.1.876.148 1.435.148.307 0 .586-.008.843-.024.254-.017.411-.026.472-.033l-.145 1.06a15.443 15.443 0 01-1.282.047c-.86 0-1.609-.11-2.246-.33-.637-.221-1.159-.525-1.568-.912a4.105 4.105 0 01-.89-1.243 3.79 3.79 0 01-.367-1.68c0-.606.09-1.153.274-1.641.183-.488.457-.942.823-1.362a3.19 3.19 0 011.18-.837c.47-.196.959-.294 1.463-.294.5 0 .943.075 1.33.223.388.149.722.375 1.008.677a3.4 3.4 0 01.725 1.255c.167.497.253 1.093.258 1.788zm-1.248-.892c-.087-.659-.314-1.175-.682-1.55-.37-.374-.854-.56-1.456-.56s-1.105.19-1.507.57c-.403.38-.682.894-.838 1.542h4.483v-.002z" fill="#000" fill-opacity=".87"/></svg>