<svg width="21" height="41" fill="none" xmlns="http://www.w3.org/2000/svg"><path d="M20.654 14.219c0 1.29.01 2.579-.002 3.869a10.356 10.356 0 01-9.226 10.26c-5.373.605-10.365-3.179-11.27-8.529-.062-.375-.069-.764-.074-1.147C.05 15.928.007 13.185 0 10.44c-.007-2.596.803-4.924 2.547-6.853C5.32.519 8.792-.653 12.808.351c3.99.997 6.502 3.638 7.546 7.615.21.799.257 1.653.287 2.485.048 1.254.013 2.511.013 3.768zm-1.765-.025c0-1.223.012-2.446-.005-3.668a11.57 11.57 0 00-.122-1.649c-.74-4.626-5.347-7.848-9.941-6.97-4.146.793-7.023 4.218-7.055 8.434-.02 2.594-.01 5.19.008 7.785.004.549.036 1.113.16 1.644.813 3.474 2.934 5.78 6.4 6.618 3.47.838 6.403-.268 8.701-2.996.752-.891 1.265-1.932 1.582-3.051.257-.904.287-1.842.276-2.782-.014-1.121-.004-2.244-.004-3.365zM10.334 39.097l3.68-2.44c1.226-.813 2.449-1.631 3.68-2.436.177-.115.387-.21.592-.24a.812.812 0 01.859.479.891.891 0 01-.202 1.014c-.085.08-.186.143-.283.207-2.535 1.683-5.077 3.359-7.602 5.057-.517.348-.947.35-1.465.001-2.498-1.68-5.012-3.337-7.52-5-.111-.075-.228-.143-.328-.23-.357-.307-.423-.805-.163-1.175a.865.865 0 011.115-.27c.252.132.483.3.72.457l6.562 4.358c.109.07.224.136.355.218z" fill="#7E7E7E"/><path d="M2.425 29.895c.137.07.385.168.602.312C5.315 31.72 7.6 33.24 9.885 34.754c.535.353.382.328.864.01 2.276-1.503 4.544-3.013 6.816-4.52.153-.101.307-.208.474-.277a.843.843 0 011.05.34.863.863 0 01-.106 1.065c-.103.106-.232.19-.357.274-2.521 1.675-5.05 3.339-7.561 5.027-.515.347-.943.362-1.463.011-2.512-1.69-5.04-3.353-7.562-5.028-.124-.083-.254-.166-.36-.27a.878.878 0 01-.178-.975c.133-.3.47-.518.923-.517zM9.442 6.808c0-.718-.005-1.438.004-2.156.002-.181.021-.371.081-.539.127-.35.415-.516.774-.543a.843.843 0 01.824.544c.056.153.079.326.08.49.006 1.504.004 3.008.003 4.513 0 .066.002.134-.006.2-.06.501-.439.85-.903.833a.875.875 0 01-.846-.836c-.028-.4-.01-.802-.01-1.203l-.001-1.303z" fill="#7E7E7E"/></svg>