<svg width="13" height="13" fill="none" xmlns="http://www.w3.org/2000/svg"><path d="M12.13 4.31c-.027-.62-.127-1.046-.271-1.416a2.85 2.85 0 00-.675-1.035 2.873 2.873 0 00-1.034-.673C9.78 1.042 9.355.942 8.734.914 8.11.884 7.911.878 6.326.878c-1.586 0-1.784.007-2.407.034-.62.027-1.047.128-1.416.272a2.849 2.849 0 00-1.036.675 2.875 2.875 0 00-.673 1.033c-.143.372-.244.796-.27 1.416-.03.625-.037.824-.037 2.409S.493 8.5.52 9.123c.027.62.128 1.047.271 1.417.149.392.379.743.675 1.035.292.297.646.527 1.034.673.371.144.796.244 1.416.271.623.028.821.035 2.406.035 1.586 0 1.784-.007 2.407-.035.62-.027 1.047-.127 1.416-.271a2.986 2.986 0 001.708-1.708c.144-.372.245-.796.272-1.417.027-.622.034-.82.034-2.406 0-1.585-.002-1.784-.03-2.406zM11.08 9.079c-.025.57-.121.878-.2 1.083-.197.509-.6.912-1.11 1.109-.205.08-.515.175-1.083.2-.616.028-.8.034-2.358.034s-1.745-.006-2.359-.034c-.57-.025-.878-.12-1.083-.2a1.798 1.798 0 01-.67-.436 1.815 1.815 0 01-.436-.67c-.08-.206-.176-.516-.2-1.084-.028-.616-.035-.8-.035-2.359 0-1.557.007-1.744.034-2.358.025-.57.121-.878.2-1.083.094-.254.243-.484.439-.67.189-.195.417-.343.67-.437.206-.08.516-.175 1.084-.2.616-.028.8-.034 2.358-.034 1.56 0 1.745.006 2.359.034.57.025.878.12 1.083.2.253.094.483.242.67.436.194.19.343.417.436.67.08.206.176.516.2 1.084.028.616.035.8.035 2.358s-.007 1.74-.034 2.357z" fill="#D0CFCF"/><path d="M6.325 3.718a3 3 0 10.002 6 3 3 0 00-.002-6zm0 4.945a1.946 1.946 0 11.001-3.892 1.946 1.946 0 010 3.892zM10.144 3.599a.7.7 0 11-1.4 0 .7.7 0 011.4 0z" fill="#D0CFCF"/></svg>