<svg width="13" height="13" viewBox="0 0 13 13" fill="none" xmlns="http://www.w3.org/2000/svg">
    <path
            d="M12.1594 12.1033V12.1028H12.1623V7.82078C12.1623 5.72598 11.7114 4.1123 9.26239 4.1123C8.0851 4.1123 7.29504 4.75836 6.9725 5.37084H6.93845V4.30787H4.61646V12.1028H7.03429V8.24305C7.03429 7.22679 7.22694 6.24408 8.48547 6.24408C9.72553 6.24408 9.74401 7.40387 9.74401 8.30824V12.1033H12.1594Z"
            fill="#D0CFCF"/>
    <path d="M0.679199 4.30859H3.09995V12.1035H0.679199V4.30859Z" fill="#D0CFCF"/>
    <path
            d="M1.88861 0.427734C1.11462 0.427734 0.486572 1.0556 0.486572 1.82937C0.486572 2.60314 1.11462 3.24414 1.88861 3.24414C2.6626 3.24414 3.29065 2.60314 3.29065 1.82937C3.29016 1.0556 2.66212 0.427734 1.88861 0.427734V0.427734Z"
            fill="#D0CFCF"/>
</svg>
