<svg width="10" height="13" fill="none" xmlns="http://www.w3.org/2000/svg"><path d="M5.163.564C1.88.564.135 2.616.135 4.851c0 1.037.595 2.33 1.546 2.74.272.12.236-.025.47-.896a.203.203 0 00-.052-.203C.74 4.958 1.834 1.805 4.97 1.805c4.537 0 3.69 6.12.79 6.12-.748 0-1.305-.572-1.129-1.28.214-.842.632-1.749.632-2.356 0-1.532-2.34-1.305-2.34.724 0 .628.227 1.05.227 1.05l-.893 3.52c-.236.938.032 2.457.056 2.588.014.072.097.095.144.035.074-.095.984-1.36 1.239-2.276l.474-1.685c.25.441.974.811 1.745.811 2.293 0 3.951-1.965 3.951-4.404C9.857 2.314 7.805.564 5.163.564z" fill="#D0CFCF"/></svg>