<svg width="15" height="12" fill="none" xmlns="http://www.w3.org/2000/svg"><path d="M14.297 1.416a5.944 5.944 0 01-1.666.466A2.92 2.92 0 0013.903.253c-.559.34-1.176.58-1.834.713A2.874 2.874 0 009.956.034c-1.6 0-2.89 1.324-2.89 2.947 0 .233.02.458.067.672C4.728 3.533 2.601 2.359 1.171.57c-.25.441-.395.946-.395 1.49 0 1.02.515 1.924 1.284 2.448a2.816 2.816 0 01-1.306-.363v.032c0 1.432 1.002 2.62 2.317 2.895a2.837 2.837 0 01-.759.097c-.185 0-.372-.011-.547-.05.375 1.166 1.438 2.024 2.702 2.052A5.744 5.744 0 01.19 10.388a8.035 8.035 0 004.437 1.322c5.322 0 8.232-4.49 8.232-8.383 0-.13-.004-.256-.01-.381a5.83 5.83 0 001.45-1.53z" fill="#D0CFCF"/></svg>