<?xml version="1.0" encoding="utf-8"?>
<!-- Generator: Adobe Illustrator 25.1.0, SVG Export Plug-In . SVG Version: 6.00 Build 0)  -->
<svg version="1.1" id="Layer_1" xmlns="http://www.w3.org/2000/svg" xmlns:xlink="http://www.w3.org/1999/xlink" x="0px" y="0px"
	 viewBox="0 0 204 169" style="enable-background:new 0 0 204 169;" xml:space="preserve">
<style type="text/css">
	.st0{fill:#EA5924;}
	.st1{fill:#FFFFFF;filter:url(#Adobe_OpacityMaskFilter);stroke:#EA5924;stroke-width:4;}
	.st2{mask:url(#mask0_1_);}
	.st3{fill:none;filter:url(#Adobe_OpacityMaskFilter_1_);}
	.st4{fill:#0E5058;fill-opacity:0.8;}
	.st5{fill:#00BDD3;}
	.st6{mask:url(#mask1_1_);}
	.st7{fill:#F07346;}
	.st8{fill:#FFFFFF;}
	.st9{fill:#DD00A0;}
	.st10{fill:#8BE405;}
	.st11{fill:#F70400;}
	.st12{fill:#FFCA06;}
	.st13{fill:#0899FD;}
	.st14{fill-rule:evenodd;clip-rule:evenodd;fill:#0899FD;}
	.st15{fill-rule:evenodd;clip-rule:evenodd;fill:#8BE405;}
</style>
<circle class="st0" cx="102" cy="94" r="75"/>
<defs>
	<filter id="Adobe_OpacityMaskFilter" filterUnits="userSpaceOnUse" x="23.7" y="17" width="159.8" height="156.9">
		<feColorMatrix  type="matrix" values="1 0 0 0 0  0 1 0 0 0  0 0 1 0 0  0 0 0 1 0"/>
	</filter>
</defs>
<mask maskUnits="userSpaceOnUse" x="23.7" y="17" width="159.8" height="156.9" id="mask0_1_">
	<circle class="st1" cx="102" cy="94" r="73"/>
</mask>
<g class="st2">
	<defs>
		<filter id="Adobe_OpacityMaskFilter_1_" filterUnits="userSpaceOnUse" x="23.7" y="17" width="159.8" height="156.9">
			<feColorMatrix  type="matrix" values="1 0 0 0 0  0 1 0 0 0  0 0 1 0 0  0 0 0 1 0"/>
		</filter>
	</defs>
	<mask maskUnits="userSpaceOnUse" x="23.7" y="17" width="159.8" height="156.9" id="mask1_1_">
		<rect x="-218.4" y="-68.6" class="st3" width="576.4" height="365.9"/>
		<rect x="-218.4" y="-68.6" class="st4" width="576.4" height="365.9"/>
		<rect x="-218.4" y="-68.6" class="st5" width="576.4" height="365.9"/>
	</mask>
	<g class="st6">
		<path class="st7" d="M33.7,91.5C33.7,91.5,33.7,91.5,33.7,91.5c-0.4,0-0.7-0.3-0.7-0.7l0.2-8.8c0-0.4,0.3-0.7,0.7-0.7
			c0.4,0,0.7,0.3,0.7,0.7l-0.2,8.8C34.4,91.2,34.1,91.5,33.7,91.5z"/>
		<path class="st7" d="M68.3,56.7c-0.1,0-0.1,0-0.2,0l-5.4-1.8c-0.3-0.1-0.5-0.5-0.4-0.8c0.1-0.3,0.5-0.5,0.8-0.4l5.4,1.8
			c0.3,0.1,0.5,0.5,0.4,0.8C68.8,56.5,68.6,56.7,68.3,56.7z"/>
		<path class="st7" d="M116.3,36.3c-0.1,0-0.3,0-0.4-0.1l-2.4-1.7c-0.3-0.2-0.4-0.6-0.2-0.9c0.2-0.3,0.6-0.4,0.9-0.2l2.4,1.7
			c0.3,0.2,0.4,0.6,0.2,0.9C116.7,36.2,116.5,36.3,116.3,36.3z"/>
		<path class="st7" d="M101.1,26.2c-0.1,0-0.3,0-0.4-0.1l-5.4-3.6c-0.3-0.2-0.4-0.6-0.2-0.9c0.2-0.3,0.6-0.4,0.9-0.2l5.4,3.6
			c0.3,0.2,0.4,0.6,0.2,0.9C101.5,26.1,101.3,26.2,101.1,26.2z"/>
		<path class="st7" d="M117.9,99c-0.3,0-0.6-0.2-0.7-0.6l-0.7-5.1c0-0.4,0.2-0.7,0.6-0.8c0.4-0.1,0.7,0.2,0.8,0.6l0.7,5.1
			C118.6,98.6,118.4,98.9,117.9,99C118,99,117.9,99,117.9,99z"/>
		<path class="st7" d="M90.2,77.6c-0.3,0-0.6-0.2-0.7-0.5l-0.7-2.8c-0.1-0.4,0.1-0.7,0.5-0.8c0.4-0.1,0.7,0.1,0.8,0.5l0.7,2.8
			c0.1,0.4-0.1,0.7-0.5,0.8C90.3,77.6,90.3,77.6,90.2,77.6z"/>
		<path class="st7" d="M134.7,72.7c-0.3,0-0.6-0.2-0.7-0.6l-0.9-5.7c-0.1-0.4,0.2-0.7,0.6-0.8c0.4-0.1,0.7,0.2,0.8,0.6l0.9,5.7
			c0.1,0.4-0.2,0.7-0.6,0.8C134.7,72.7,134.7,72.7,134.7,72.7z"/>
		<path class="st7" d="M64.3,33.2c-0.1,0-0.2,0-0.4-0.1c-0.3-0.2-0.4-0.6-0.2-0.9l2.9-4.7c0.2-0.3,0.6-0.4,0.9-0.2
			c0.3,0.2,0.4,0.6,0.2,0.9l-2.9,4.7C64.8,33,64.5,33.2,64.3,33.2z"/>
		<path class="st7" d="M102.2,100.3c-0.3,0-0.6-0.2-0.7-0.5c-0.1-0.4,0.1-0.7,0.5-0.8l2.7-0.6c0.4-0.1,0.7,0.1,0.8,0.5
			c0.1,0.4-0.1,0.7-0.5,0.8l-2.7,0.6C102.3,100.3,102.3,100.3,102.2,100.3z"/>
		<path class="st7" d="M40.3,69.3c-0.3,0-0.6-0.2-0.6-0.5c-0.1-0.4,0.1-0.7,0.5-0.8l6.4-1.8c0.4-0.1,0.7,0.1,0.8,0.5
			c0.1,0.4-0.1,0.7-0.5,0.8l-6.4,1.8C40.4,69.3,40.3,69.3,40.3,69.3z"/>
		<path class="st7" d="M39.8,40c-0.3,0-0.5-0.2-0.6-0.4l-2.4-5.7c-0.1-0.3,0-0.7,0.4-0.9c0.3-0.1,0.7,0,0.9,0.4l2.4,5.7
			c0.1,0.3,0,0.7-0.4,0.9C40,40,39.9,40,39.8,40z"/>
		<path class="st7" d="M129.1,85.8c-0.3,0-0.6-0.2-0.7-0.6c0-0.4,0.2-0.7,0.6-0.8l5.3-0.7c0.4,0,0.7,0.2,0.8,0.6s-0.2,0.7-0.6,0.8
			L129.1,85.8C129.1,85.8,129.1,85.8,129.1,85.8z"/>
		<path class="st7" d="M97.4,57.8c-0.3,0-0.6-0.2-0.7-0.6c-0.1-0.4,0.2-0.7,0.6-0.8l1.8-0.3c0.4-0.1,0.7,0.2,0.8,0.6
			c0.1,0.4-0.2,0.7-0.6,0.8l-1.8,0.3C97.5,57.8,97.5,57.8,97.4,57.8z"/>
		<path class="st7" d="M120.1,114.4c-0.1,0-0.2,0-0.4-0.1c-0.3-0.2-0.4-0.6-0.2-0.9l2.2-3.5c0.2-0.3,0.6-0.4,0.9-0.2
			c0.3,0.2,0.4,0.6,0.2,0.9l-2.2,3.5C120.6,114.3,120.4,114.4,120.1,114.4z"/>
		<path class="st7" d="M49.8,82.1c-0.2,0-0.4-0.1-0.5-0.2l-2.7-3.1c-0.2-0.3-0.2-0.7,0.1-0.9c0.3-0.2,0.7-0.2,0.9,0.1l2.7,3.1
			c0.2,0.3,0.2,0.7-0.1,0.9C50.1,82,49.9,82.1,49.8,82.1z"/>
		<path class="st7" d="M89,94.7c-0.1,0-0.2,0-0.3-0.1c-0.3-0.2-0.5-0.6-0.3-0.9l2.3-5.1c0.2-0.3,0.6-0.5,0.9-0.3
			c0.3,0.2,0.5,0.6,0.3,0.9l-2.3,5.1C89.6,94.5,89.3,94.7,89,94.7z"/>
		<path class="st7" d="M74,45.6c-0.2,0-0.3-0.1-0.5-0.2c-0.3-0.2-0.3-0.7,0-0.9l1.5-1.7c0.2-0.3,0.7-0.3,0.9,0
			c0.3,0.2,0.3,0.7,0,0.9l-1.5,1.7C74.4,45.5,74.2,45.6,74,45.6z"/>
		<path class="st7" d="M39,24.4c-0.1,0-0.1,0-0.2,0c-0.3-0.1-0.5-0.5-0.4-0.9l2.1-6c0.1-0.3,0.5-0.5,0.9-0.4
			c0.3,0.1,0.5,0.5,0.4,0.9l-2.1,6C39.5,24.2,39.3,24.4,39,24.4z"/>
		<path class="st7" d="M105.7,44.1c-0.1,0-0.2,0-0.3,0l-7.9-3.2c-0.3-0.1-0.5-0.5-0.4-0.9c0.1-0.3,0.5-0.5,0.9-0.4l7.9,3.2
			c0.3,0.1,0.5,0.5,0.4,0.9C106.2,43.9,106,44.1,105.7,44.1z"/>
		<path class="st7" d="M30.2,63.3c0,0-0.1,0-0.1,0c-0.4-0.1-0.6-0.4-0.5-0.8l1.6-8c0.1-0.4,0.4-0.6,0.8-0.5c0.4,0.1,0.6,0.4,0.5,0.8
			l-1.6,8C30.8,63.1,30.6,63.3,30.2,63.3z"/>
		<path class="st7" d="M112.3,59.9c-0.1,0-0.1,0-0.2,0c-0.4-0.1-0.6-0.5-0.5-0.8l2.6-9c0.1-0.4,0.5-0.6,0.8-0.5
			c0.4,0.1,0.6,0.5,0.5,0.8l-2.6,9C112.8,59.7,112.6,59.9,112.3,59.9z"/>
		<path class="st7" d="M103.1,86.2c-0.3,0-0.5-0.2-0.6-0.4c-0.1-0.3,0-0.7,0.4-0.9l4.4-1.7c0.3-0.1,0.7,0,0.9,0.4
			c0.1,0.3,0,0.7-0.4,0.9l-4.4,1.7C103.3,86.2,103.2,86.2,103.1,86.2z"/>
		<path class="st7" d="M59.4,42.2c-0.2,0-0.3-0.1-0.5-0.2l-4.3-4.1c-0.3-0.3-0.3-0.7,0-0.9c0.3-0.3,0.7-0.3,0.9,0l4.3,4.1
			c0.3,0.3,0.3,0.7,0,0.9C59.8,42.1,59.6,42.2,59.4,42.2z"/>
		<path class="st7" d="M77.1,67.6c-0.2,0-0.4-0.1-0.5-0.2c-0.2-0.3-0.2-0.7,0.1-0.9l6-5c0.3-0.2,0.7-0.2,0.9,0.1
			c0.2,0.3,0.2,0.7-0.1,0.9l-6,5C77.4,67.6,77.2,67.6,77.1,67.6z"/>
		<path class="st7" d="M136,25.6c-0.3,0-0.5-0.2-0.6-0.5l-0.6-1.8c-0.1-0.3,0.1-0.7,0.4-0.9c0.3-0.1,0.7,0.1,0.9,0.4l0.6,1.8
			c0.1,0.3-0.1,0.7-0.4,0.9C136.2,25.6,136.1,25.6,136,25.6z"/>
		<path class="st7" d="M47.7,94.9c-0.1,0-0.1,0-0.2,0l-1.6-0.5c-0.4-0.1-0.6-0.5-0.4-0.8c0.1-0.4,0.5-0.6,0.8-0.4l1.6,0.5
			c0.4,0.1,0.6,0.5,0.4,0.8C48.2,94.7,48,94.9,47.7,94.9z"/>
		<path class="st7" d="M87,34.5c-0.2,0-0.4-0.1-0.6-0.3L84,30.6c-0.2-0.3-0.1-0.7,0.2-0.9c0.3-0.2,0.7-0.1,0.9,0.2l2.5,3.6
			c0.2,0.3,0.1,0.7-0.2,0.9C87.2,34.5,87.1,34.5,87,34.5z"/>
		<path class="st7" d="M77.9,83.7c-0.1,0-0.2,0-0.3-0.1l-6.6-3.2c-0.3-0.2-0.5-0.6-0.3-0.9c0.2-0.3,0.6-0.5,0.9-0.3l6.6,3.2
			c0.3,0.2,0.5,0.6,0.3,0.9C78.3,83.5,78.1,83.7,77.9,83.7z"/>
		<path class="st7" d="M87.1,50.1c-0.1,0-0.1,0-0.2,0c-0.4-0.1-0.6-0.5-0.5-0.8l0.5-2.1c0.1-0.4,0.5-0.6,0.8-0.5
			c0.4,0.1,0.6,0.5,0.5,0.8l-0.5,2.1C87.7,49.9,87.4,50.1,87.1,50.1z"/>
		<path class="st7" d="M28.8,113.2c-0.2,0-0.4-0.1-0.5-0.2c-0.3-0.3-0.2-0.7,0-0.9l3.9-3.7c0.3-0.3,0.7-0.2,0.9,0s0.2,0.7,0,0.9
			l-3.9,3.7C29.1,113.1,28.9,113.2,28.8,113.2z"/>
		<path class="st7" d="M104.7,70.3C104.7,70.3,104.7,70.3,104.7,70.3l-5-0.4c-0.4,0-0.6-0.4-0.6-0.7c0-0.4,0.3-0.6,0.7-0.6l5,0.4
			c0.4,0,0.6,0.4,0.6,0.7C105.3,70.1,105.1,70.3,104.7,70.3z"/>
		<path class="st7" d="M104.7,113.8c-0.2,0-0.5-0.1-0.6-0.4c-0.2-0.3,0-0.7,0.3-0.9l2.4-1.2c0.3-0.2,0.7,0,0.9,0.3
			c0.2,0.3,0,0.7-0.3,0.9l-2.4,1.2C104.9,113.7,104.8,113.8,104.7,113.8z"/>
		<path class="st7" d="M74.7,100c-0.1,0-0.3,0-0.4-0.1c-0.3-0.2-0.3-0.6-0.1-0.9l2.5-3.3c0.2-0.3,0.6-0.3,0.9-0.1
			c0.3,0.2,0.3,0.6,0.1,0.9l-2.5,3.3C75.1,100,74.9,100,74.7,100z"/>
		<path class="st7" d="M133.1,100.4c-0.3,0-0.6-0.2-0.7-0.6l-0.5-3c-0.1-0.4,0.2-0.7,0.6-0.8c0.4-0.1,0.7,0.2,0.8,0.6l0.5,3
			c0.1,0.4-0.2,0.7-0.6,0.8C133.2,100.4,133.1,100.4,133.1,100.4z"/>
		<path class="st7" d="M63.9,91.6c-0.1,0-0.2,0-0.3-0.1l-4.8-2.1c-0.3-0.1-0.5-0.5-0.3-0.9c0.1-0.3,0.5-0.5,0.9-0.3l4.8,2.1
			c0.3,0.1,0.5,0.5,0.3,0.9C64.4,91.4,64.2,91.6,63.9,91.6z"/>
		<path class="st7" d="M117.9,77.5c-0.1,0-0.2,0-0.3-0.1c-0.3-0.2-0.5-0.6-0.3-0.9l4.6-9c0.2-0.3,0.6-0.5,0.9-0.3
			c0.3,0.2,0.5,0.6,0.3,0.9l-4.6,9C118.4,77.3,118.1,77.5,117.9,77.5z"/>
		<path class="st7" d="M44.8,114.7C44.8,114.7,44.8,114.7,44.8,114.7c-0.4,0-0.7-0.3-0.7-0.7l0.2-9.9c0-0.4,0.3-0.7,0.7-0.7
			c0.4,0,0.7,0.3,0.7,0.7l-0.2,9.9C45.5,114.4,45.2,114.7,44.8,114.7z"/>
		<path class="st7" d="M49,54.8c-0.2,0-0.4-0.1-0.6-0.3l-2.1-3.3c-0.2-0.3-0.1-0.7,0.2-0.9c0.3-0.2,0.7-0.1,0.9,0.2l2.1,3.3
			c0.2,0.3,0.1,0.7-0.2,0.9C49.2,54.8,49.1,54.8,49,54.8z"/>
		<path class="st7" d="M134,38C134,38,134,38,134,38l-2.1-0.2c-0.4,0-0.6-0.4-0.6-0.7c0-0.4,0.4-0.6,0.7-0.6l2.1,0.2
			c0.4,0,0.6,0.4,0.6,0.7C134.6,37.7,134.4,38,134,38z"/>
		<path class="st7" d="M124.3,26.9c-0.1,0-0.1,0-0.2,0l-3.2-0.8c-0.4-0.1-0.6-0.5-0.5-0.8c0.1-0.4,0.5-0.6,0.8-0.5l3.2,0.8
			c0.4,0.1,0.6,0.5,0.5,0.8C124.9,26.7,124.6,26.9,124.3,26.9z"/>
		<path class="st7" d="M60.7,73.4c-0.3,0-0.6-0.3-0.7-0.6l-0.7-6.2c0-0.4,0.2-0.7,0.6-0.7c0.4,0,0.7,0.2,0.7,0.6l0.7,6.2
			C61.5,73.1,61.2,73.4,60.7,73.4C60.8,73.4,60.8,73.4,60.7,73.4z"/>
		<path class="st7" d="M171.8,99.9c-0.3,0-0.5-0.2-0.6-0.5l-1-2.9c-0.1-0.3,0.1-0.7,0.4-0.9c0.3-0.1,0.7,0.1,0.9,0.4l1,2.9
			c0.1,0.3-0.1,0.7-0.4,0.9C172,99.9,171.9,99.9,171.8,99.9z"/>
		<path class="st7" d="M159.8,32.2c-0.1,0-0.2,0-0.4-0.1c-0.3-0.2-0.4-0.6-0.2-0.9l3.6-5.9c0.2-0.3,0.6-0.4,0.9-0.2
			c0.3,0.2,0.4,0.6,0.2,0.9l-3.6,5.9C160.3,32.1,160,32.2,159.8,32.2z"/>
		<path class="st7" d="M182.9,24.7c-0.1,0-0.3,0-0.4-0.1l-5.6-3.7c-0.3-0.2-0.4-0.6-0.2-0.9c0.2-0.3,0.6-0.4,0.9-0.2l5.6,3.7
			c0.3,0.2,0.4,0.6,0.2,0.9C183.3,24.6,183.1,24.7,182.9,24.7z"/>
		<path class="st7" d="M148.6,40c-0.1,0-0.3,0-0.4-0.2c-0.3-0.2-0.3-0.7-0.1-0.9l1.5-1.8c0.2-0.3,0.7-0.3,0.9-0.1s0.3,0.7,0.1,0.9
			l-1.5,1.8C149,39.9,148.8,40,148.6,40z"/>
		<path class="st7" d="M140.9,20.3c-0.3,0-0.6-0.2-0.7-0.6c0-0.4,0.2-0.7,0.6-0.7l8.4-1c0.4,0,0.7,0.2,0.7,0.6
			c0,0.4-0.2,0.7-0.6,0.7L140.9,20.3C141,20.3,140.9,20.3,140.9,20.3z"/>
		<path class="st7" d="M179.1,41.4c-0.2,0-0.4-0.1-0.5-0.3l-4-5.4c-0.2-0.3-0.2-0.7,0.1-0.9c0.3-0.2,0.7-0.2,0.9,0.1l4,5.4
			c0.2,0.3,0.2,0.7-0.1,0.9C179.3,41.4,179.2,41.4,179.1,41.4z"/>
		<path class="st7" d="M174.3,84.7c0,0-0.1,0-0.1,0l-2.9-0.5c-0.4-0.1-0.6-0.4-0.5-0.8c0.1-0.4,0.4-0.6,0.8-0.5l2.9,0.5
			c0.4,0.1,0.6,0.4,0.5,0.8C174.9,84.4,174.7,84.7,174.3,84.7z"/>
		<path class="st7" d="M170.4,72c-0.3,0-0.6-0.2-0.7-0.5l-2-9.2c-0.1-0.4,0.1-0.7,0.5-0.8c0.4-0.1,0.7,0.1,0.8,0.5l2,9.2
			c0.1,0.4-0.1,0.7-0.5,0.8C170.5,72,170.5,72,170.4,72z"/>
		<path class="st7" d="M164.9,48.7c-0.2,0-0.4-0.1-0.5-0.3l-2.2-3.1c-0.2-0.3-0.1-0.7,0.2-0.9c0.3-0.2,0.7-0.1,0.9,0.2l2.2,3.1
			c0.2,0.3,0.1,0.7-0.2,0.9C165.1,48.6,165,48.7,164.9,48.7z"/>
		<path class="st7" d="M155.8,114.9c-0.2,0-0.3-0.1-0.5-0.2l-1.7-1.7c-0.3-0.3-0.3-0.7,0-0.9c0.3-0.3,0.7-0.3,0.9,0l1.7,1.7
			c0.3,0.3,0.3,0.7,0,0.9C156.1,114.9,156,114.9,155.8,114.9z"/>
		<path class="st7" d="M141.5,92.9c-0.3,0-0.5-0.2-0.6-0.5l-2.8-8.3c-0.1-0.3,0.1-0.7,0.4-0.9c0.4-0.1,0.7,0.1,0.9,0.4l2.8,8.3
			c0.1,0.3-0.1,0.7-0.4,0.9C141.7,92.8,141.6,92.9,141.5,92.9z"/>
		<path class="st7" d="M156.3,62.2c-0.2,0-0.3-0.1-0.5-0.2l-7.5-7.1c-0.3-0.3-0.3-0.7,0-0.9c0.3-0.3,0.7-0.3,0.9,0l7.5,7.1
			c0.3,0.3,0.3,0.7,0,0.9C156.7,62.2,156.5,62.2,156.3,62.2z"/>
		<path class="st7" d="M157.6,101.7c-0.3,0-0.6-0.2-0.7-0.5l-1.6-7.8c-0.1-0.4,0.2-0.7,0.5-0.8s0.7,0.2,0.8,0.5l1.6,7.8
			c0.1,0.4-0.2,0.7-0.5,0.8C157.7,101.6,157.6,101.7,157.6,101.7z"/>
		<path class="st7" d="M138.4,53.8c-0.3,0-0.6-0.3-0.7-0.6l-0.4-5.1c0-0.4,0.2-0.7,0.6-0.7c0.4,0,0.7,0.2,0.7,0.6l0.4,5.1
			C139.1,53.5,138.8,53.8,138.4,53.8C138.5,53.8,138.4,53.8,138.4,53.8z"/>
		<path class="st7" d="M158.4,80.3c-0.1,0-0.3,0-0.4-0.1l-6.9-4.5c-0.3-0.2-0.4-0.6-0.2-0.9c0.2-0.3,0.6-0.4,0.9-0.2l6.9,4.5
			c0.3,0.2,0.4,0.6,0.2,0.9C158.8,80.1,158.6,80.3,158.4,80.3z"/>
		<path class="st7" d="M139.3,113c0,0-0.1,0-0.1,0c-0.4-0.1-0.6-0.4-0.6-0.8l1.2-7.7c0.1-0.4,0.4-0.6,0.8-0.6
			c0.4,0.1,0.6,0.4,0.6,0.8l-1.2,7.7C139.9,112.7,139.6,113,139.3,113z"/>
		<path class="st7" d="M155.1,164.6c-0.1,0-0.2,0-0.2,0l-6.5-2.6c-0.3-0.1-0.5-0.5-0.4-0.9c0.1-0.3,0.5-0.5,0.9-0.4l6.5,2.6
			c0.3,0.1,0.5,0.5,0.4,0.9C155.6,164.4,155.3,164.6,155.1,164.6z"/>
		<path class="st7" d="M160.2,150c-0.1,0-0.1,0-0.2,0l-7.4-2.3c-0.4-0.1-0.6-0.5-0.4-0.8c0.1-0.4,0.5-0.6,0.8-0.4l7.4,2.3
			c0.4,0.1,0.6,0.5,0.4,0.8C160.8,149.8,160.5,150,160.2,150z"/>
		<path class="st7" d="M137.6,161.4c-0.4,0-0.7-0.3-0.7-0.6l-0.3-6.6c0-0.4,0.3-0.7,0.6-0.7c0.4,0,0.7,0.3,0.7,0.6l0.3,6.6
			C138.3,161.1,138,161.4,137.6,161.4C137.6,161.4,137.6,161.4,137.6,161.4z"/>
		<path class="st7" d="M172.1,169.4c-0.1,0-0.2,0-0.3-0.1l-6.9-3.1c-0.3-0.2-0.5-0.6-0.3-0.9c0.2-0.3,0.6-0.5,0.9-0.3l6.9,3.1
			c0.3,0.2,0.5,0.6,0.3,0.9C172.7,169.2,172.4,169.4,172.1,169.4z"/>
		<path class="st7" d="M171.1,140.6c-0.3,0-0.6-0.3-0.7-0.6l-0.9-10.1c0-0.4,0.2-0.7,0.6-0.7c0.4,0,0.7,0.2,0.7,0.6l0.9,10.1
			C171.8,140.2,171.6,140.6,171.1,140.6C171.2,140.6,171.1,140.6,171.1,140.6z"/>
		<path class="st7" d="M152.2,133.8c-0.3,0-0.6-0.2-0.7-0.6c-0.1-0.4,0.2-0.7,0.5-0.8l5.2-0.9c0.4-0.1,0.7,0.2,0.8,0.5
			c0.1,0.4-0.2,0.7-0.5,0.8l-5.2,0.9C152.3,133.8,152.2,133.8,152.2,133.8z"/>
		<path class="st7" d="M176.2,157.5c-0.2,0-0.5-0.1-0.6-0.3l-2.5-4.2c-0.2-0.3-0.1-0.7,0.2-0.9c0.3-0.2,0.7-0.1,0.9,0.2l2.5,4.2
			c0.2,0.3,0.1,0.7-0.2,0.9C176.4,157.5,176.3,157.5,176.2,157.5z"/>
		<path class="st7" d="M89,117.3c-0.1,0-0.2,0-0.4-0.1l-3.4-2.1c-0.3-0.2-0.4-0.6-0.2-0.9c0.2-0.3,0.6-0.4,0.9-0.2l3.4,2.1
			c0.3,0.2,0.4,0.6,0.2,0.9C89.4,117.2,89.2,117.3,89,117.3z"/>
		<path class="st7" d="M120.5,154.5c-0.1,0-0.1,0-0.2,0c-0.4-0.1-0.6-0.4-0.5-0.8l0.5-2.2c0.1-0.4,0.4-0.6,0.8-0.5
			c0.4,0.1,0.6,0.4,0.5,0.8l-0.5,2.2C121.1,154.3,120.8,154.5,120.5,154.5z"/>
		<path class="st7" d="M28.3,123.8c-0.2,0-0.5-0.1-0.6-0.4l-3.9-7.5c-0.2-0.3,0-0.7,0.3-0.9c0.3-0.2,0.7,0,0.9,0.3l3.9,7.5
			c0.2,0.3,0,0.7-0.3,0.9C28.5,123.8,28.4,123.8,28.3,123.8z"/>
		<path class="st7" d="M112.7,122.1c0,0-0.1,0-0.1,0c-0.4-0.1-0.6-0.4-0.6-0.8l0.9-5.3c0.1-0.4,0.4-0.6,0.8-0.6
			c0.4,0.1,0.6,0.4,0.6,0.8l-0.9,5.3C113.3,121.9,113,122.1,112.7,122.1z"/>
		<path class="st7" d="M119.2,137.6c-0.3,0-0.6-0.2-0.7-0.6L118,134c-0.1-0.4,0.2-0.7,0.5-0.8c0.4-0.1,0.7,0.2,0.8,0.5l0.6,3.1
			c0.1,0.4-0.2,0.7-0.5,0.8C119.3,137.6,119.3,137.6,119.2,137.6z"/>
		<path class="st7" d="M48.8,131.4c-0.2,0-0.5-0.1-0.6-0.3l-1-1.8c-0.2-0.3-0.1-0.7,0.3-0.9c0.3-0.2,0.7-0.1,0.9,0.3l1,1.8
			c0.2,0.3,0.1,0.7-0.3,0.9C49,131.4,48.9,131.4,48.8,131.4z"/>
		<path class="st7" d="M89.4,131.5c-0.2,0-0.5-0.1-0.6-0.3l-2.2-3.7c-0.2-0.3-0.1-0.7,0.2-0.9c0.3-0.2,0.7-0.1,0.9,0.2l2.2,3.7
			c0.2,0.3,0.1,0.7-0.2,0.9C89.6,131.4,89.5,131.5,89.4,131.5z"/>
		<path class="st7" d="M135,150C134.9,150,134.9,150,135,150l-2.3-0.2c-0.4,0-0.6-0.4-0.6-0.7c0-0.4,0.4-0.6,0.7-0.6l2.2,0.2
			c0.4,0,0.6,0.4,0.6,0.7C135.6,149.8,135.3,150,135,150z"/>
		<path class="st7" d="M83.5,169.8c-0.3,0-0.6-0.2-0.7-0.6l-1-5.3c-0.1-0.4,0.2-0.7,0.5-0.8c0.4-0.1,0.7,0.2,0.8,0.5l1,5.3
			c0.1,0.4-0.2,0.7-0.5,0.8C83.5,169.7,83.5,169.8,83.5,169.8z"/>
		<path class="st7" d="M60.2,150.6c-0.3,0-0.6-0.2-0.6-0.5l-2.6-8.9c-0.1-0.4,0.1-0.7,0.5-0.8c0.4-0.1,0.7,0.1,0.8,0.5l2.6,8.9
			c0.1,0.4-0.1,0.7-0.5,0.8C60.3,150.6,60.3,150.6,60.2,150.6z"/>
		<path class="st7" d="M33.7,135.9c-0.3,0-0.5-0.2-0.6-0.4c-0.1-0.3,0.1-0.7,0.4-0.9l3-1.1c0.3-0.1,0.7,0.1,0.9,0.4
			c0.1,0.3-0.1,0.7-0.4,0.9l-3,1.1C33.9,135.9,33.8,135.9,33.7,135.9z"/>
		<path class="st7" d="M75.9,154.7c-0.2,0-0.4-0.1-0.6-0.3l-1.3-1.9c-0.2-0.3-0.1-0.7,0.2-0.9c0.3-0.2,0.7-0.1,0.9,0.2l1.3,1.9
			c0.2,0.3,0.1,0.7-0.2,0.9C76.1,154.6,76,154.7,75.9,154.7z"/>
		<path class="st7" d="M69,168c-0.2,0-0.3-0.1-0.4-0.2l-4-3.4c-0.3-0.2-0.3-0.7-0.1-0.9c0.2-0.3,0.7-0.3,0.9-0.1l4,3.4
			c0.3,0.2,0.3,0.7,0.1,0.9C69.4,167.9,69.2,168,69,168z"/>
		<path class="st7" d="M38.7,165.3c-0.2,0-0.3-0.1-0.5-0.2l-1.4-1.2c-0.3-0.2-0.3-0.7-0.1-0.9c0.2-0.3,0.7-0.3,0.9-0.1l1.4,1.2
			c0.3,0.2,0.3,0.7,0.1,0.9C39,165.2,38.9,165.3,38.7,165.3z"/>
		<path class="st7" d="M133.1,138.7C133.1,138.7,133.1,138.7,133.1,138.7c-0.4,0-0.7-0.3-0.7-0.7l0.5-9.1c0-0.4,0.3-0.7,0.7-0.6
			c0.4,0,0.7,0.3,0.6,0.7l-0.5,9.1C133.8,138.4,133.5,138.7,133.1,138.7z"/>
		<path class="st7" d="M61,128.1c-0.3,0-0.6-0.2-0.7-0.6c-0.1-0.4,0.2-0.7,0.6-0.8l5.8-0.9c0.4-0.1,0.7,0.2,0.8,0.6
			c0.1,0.4-0.2,0.7-0.6,0.8l-5.8,0.9C61,128.1,61,128.1,61,128.1z"/>
		<path class="st7" d="M120.5,171.5c-0.1,0-0.2,0-0.3-0.1l-9.5-4.5c-0.3-0.2-0.5-0.6-0.3-0.9c0.2-0.3,0.6-0.5,0.9-0.3l9.5,4.5
			c0.3,0.2,0.5,0.6,0.3,0.9C121,171.4,120.8,171.5,120.5,171.5z"/>
		<path class="st7" d="M107,153C107,153,106.9,153,107,153c-0.4,0-0.7-0.4-0.7-0.7l0.4-4.5c0-0.4,0.4-0.6,0.7-0.6
			c0.4,0,0.6,0.4,0.6,0.7l-0.4,4.5C107.6,152.7,107.3,153,107,153z"/>
		<path class="st7" d="M93,151.6c-0.2,0-0.4-0.1-0.5-0.2l-5.3-6.3c-0.2-0.3-0.2-0.7,0.1-0.9c0.3-0.2,0.7-0.2,0.9,0.1l5.3,6.3
			c0.2,0.3,0.2,0.7-0.1,0.9C93.3,151.5,93.1,151.6,93,151.6z"/>
		<path class="st7" d="M35,151.8c-0.3,0-0.5-0.2-0.6-0.4c-0.1-0.3,0-0.7,0.4-0.9l8.9-3.6c0.3-0.1,0.7,0,0.9,0.4
			c0.1,0.3,0,0.7-0.4,0.9l-8.9,3.6C35.1,151.8,35,151.8,35,151.8z"/>
		<path class="st7" d="M56.3,116.6c-0.2,0-0.5-0.1-0.6-0.3c-0.2-0.3-0.1-0.7,0.2-0.9l2.4-1.4c0.3-0.2,0.7-0.1,0.9,0.2
			c0.2,0.3,0.1,0.7-0.2,0.9l-2.4,1.4C56.6,116.5,56.4,116.6,56.3,116.6z"/>
		<path class="st7" d="M51.8,160.8c-0.2,0-0.5-0.1-0.6-0.3l-1.2-1.9c-0.2-0.3-0.1-0.7,0.2-0.9c0.3-0.2,0.7-0.1,0.9,0.2l1.2,1.9
			c0.2,0.3,0.1,0.7-0.2,0.9C52,160.8,51.9,160.8,51.8,160.8z"/>
		<path class="st7" d="M105.7,134.8C105.7,134.8,105.7,134.8,105.7,134.8l-5.6-0.7c-0.4,0-0.6-0.4-0.6-0.8c0-0.4,0.4-0.6,0.8-0.6
			l5.5,0.7c0.4,0,0.6,0.4,0.6,0.8C106.3,134.5,106.1,134.8,105.7,134.8z"/>
		<path class="st7" d="M70.9,140.2c-0.2,0-0.4-0.1-0.6-0.3c-0.2-0.3-0.1-0.7,0.2-0.9l7.2-5.1c0.3-0.2,0.7-0.1,0.9,0.2
			c0.2,0.3,0.1,0.7-0.2,0.9l-7.2,5.1C71.2,140.1,71.1,140.2,70.9,140.2z"/>
		<path class="st7" d="M98.6,173.8c-0.3,0-0.6-0.2-0.7-0.5l-2.4-9.4c-0.1-0.4,0.1-0.7,0.5-0.8c0.4-0.1,0.7,0.1,0.8,0.5l2.4,9.4
			c0.1,0.4-0.1,0.7-0.5,0.8C98.7,173.8,98.7,173.8,98.6,173.8z"/>
	</g>
</g>
<path class="st8" d="M64,57l6.9,78.3L102,144l31.1-8.7L140,57H64z M125.2,82.6l-0.9,9.8l-2.6,29.5l-19.7,5.4l0,0l-19.7-5.5
	l-1.4-15.4h9.6l0.7,8l10.7,2.9l0,0l10.7-2.9l1.5-13.3l-33.7,0.1l-1-9.1l35.5-0.4l0.7-9.8l-37.1,0.1L77.9,73H102h24.1L125.2,82.6z"/>
<circle class="st9" cx="179.5" cy="97.5" r="8.5"/>
<circle class="st9" cx="110.5" cy="8.5" r="8.5"/>
<circle class="st10" cx="181.5" cy="46.5" r="11.5"/>
<circle class="st11" cx="184.5" cy="152.5" r="8.5"/>
<circle class="st11" cx="53.5" cy="8.5" r="8.5"/>
<circle class="st12" cx="75" cy="14" r="7"/>
<circle class="st13" cx="19" cy="29" r="7"/>
<circle class="st13" cx="175" cy="132" r="4"/>
<circle class="st11" cx="40" cy="39" r="4"/>
<circle class="st13" cx="193" cy="107" r="11"/>
<circle class="st12" cx="7" cy="96" r="7"/>
<circle class="st12" cx="140" cy="7" r="7"/>
<circle class="st13" cx="25" cy="150" r="11"/>
<circle class="st10" cx="16" cy="122" r="4"/>
<path class="st14" d="M153.1,39.1c2.9-2,4.9-5.3,4.9-9.1c0-6.1-4.9-11-11-11c-5.1,0-9.5,3.5-10.7,8.3
	C142.5,30.5,148.1,34.5,153.1,39.1z"/>
<path class="st15" d="M30.4,71.5c-1.2-3.2-4.3-5.5-7.9-5.5c-4.7,0-8.5,3.8-8.5,8.5s3.8,8.5,8.5,8.5c2.2,0,4.1-0.8,5.6-2.1
	C28.7,77.6,29.5,74.5,30.4,71.5z"/>
</svg>
