<svg width="18" height="19" fill="none" xmlns="http://www.w3.org/2000/svg"><path d="M17.95 5.491c-.041-.954-.196-1.61-.418-2.178a4.381 4.381 0 00-1.04-1.593A4.43 4.43 0 0014.899.685c-.573-.22-1.227-.375-2.184-.417-.963-.046-1.27-.056-3.713-.056-2.444 0-2.75.01-3.71.053C4.336.307 3.678.46 3.11.682A4.393 4.393 0 001.512 1.72 4.42 4.42 0 00.475 3.31C.253 3.88.098 4.532.056 5.487.011 6.448 0 6.754 0 9.192s.01 2.743.053 3.7c.042.955.197 1.61.418 2.179a4.426 4.426 0 001.041 1.592c.45.456.995.81 1.593 1.035.573.221 1.227.375 2.184.418.96.042 1.266.052 3.71.052 2.443 0 2.75-.01 3.71-.052.956-.043 1.613-.197 2.183-.418a4.598 4.598 0 002.633-2.627c.222-.572.377-1.224.419-2.178.042-.958.053-1.263.053-3.701s-.004-2.743-.046-3.7zm-1.62 7.331c-.039.877-.186 1.35-.31 1.667a2.982 2.982 0 01-1.709 1.704c-.316.123-.794.27-1.67.309-.95.042-1.234.053-3.636.053-2.401 0-2.69-.01-3.636-.053-.879-.039-1.353-.186-1.67-.309a2.769 2.769 0 01-1.034-.67 2.792 2.792 0 01-.671-1.03c-.123-.317-.271-.794-.31-1.667-.042-.947-.052-1.231-.052-3.627s.01-2.684.052-3.627c.039-.877.187-1.35.31-1.666.144-.39.373-.744.675-1.032a2.795 2.795 0 011.034-.67c.316-.122.794-.27 1.67-.308.95-.042 1.234-.053 3.636-.053 2.405 0 2.69.01 3.636.053.879.038 1.354.186 1.67.308.39.144.745.372 1.034.67.299.291.527.642.671 1.032.123.315.271.792.31 1.666.042.947.053 1.23.053 3.627 0 2.396-.01 2.676-.053 3.623z" fill="#D0CFCF"/><path d="M9.002 4.58a4.62 4.62 0 00-4.624 4.612 4.62 4.62 0 004.624 4.613 4.62 4.62 0 004.624-4.613 4.62 4.62 0 00-4.624-4.613zm0 7.604c-1.656 0-3-1.34-3-2.992a2.996 2.996 0 013-2.992c1.656 0 3 1.34 3 2.992a2.996 2.996 0 01-3 2.992zM14.888 4.397c0 .595-.483 1.077-1.08 1.077a1.078 1.078 0 110-2.154c.597 0 1.08.482 1.08 1.077z" fill="#D0CFCF"/></svg>