<svg width="15" height="19" fill="none" xmlns="http://www.w3.org/2000/svg"><path d="M7.751.212C2.691.212 0 3.366 0 6.805c0 1.594.916 3.584 2.383 4.214.419.184.363-.04.723-1.38a.312.312 0 00-.078-.311c-2.097-2.36-.41-7.209 4.424-7.209 6.995 0 5.688 9.414 1.217 9.414-1.152 0-2.011-.88-1.74-1.969.33-1.296.974-2.69.974-3.625 0-2.355-3.607-2.006-3.607 1.115 0 .964.35 1.615.35 1.615L3.27 14.082c-.364 1.443.05 3.778.086 3.98.022.11.15.145.221.054.115-.146 1.518-2.093 1.911-3.5.143-.512.73-2.592.73-2.592.387.679 1.502 1.248 2.69 1.248 3.537 0 6.092-3.023 6.092-6.774C14.988 2.902 11.824.212 7.751.212z" fill="#D0CFCF"/></svg>