<svg width="22" height="19" fill="none" xmlns="http://www.w3.org/2000/svg"><path d="M21.75 2.338c-.809.36-1.67.6-2.57.715A4.493 4.493 0 0021.143.55a8.826 8.826 0 01-2.827 1.097A4.436 4.436 0 0015.058.212c-2.469 0-4.456 2.036-4.456 4.532 0 .359.03.704.103 1.033-3.707-.184-6.987-1.989-9.19-4.74a4.618 4.618 0 00-.611 2.291c0 1.57.795 2.96 1.98 3.765A4.35 4.35 0 01.87 6.535v.05c0 2.202 1.546 4.03 3.572 4.452-.363.1-.758.149-1.169.149-.285 0-.573-.017-.844-.077.578 1.794 2.217 3.113 4.167 3.156a8.87 8.87 0 01-5.529 1.932c-.366 0-.716-.017-1.067-.062a12.41 12.41 0 006.84 2.033c8.206 0 12.692-6.906 12.692-12.892 0-.2-.007-.394-.017-.586a8.977 8.977 0 002.235-2.352z" fill="#D0CFCF"/></svg>