<svg width="18" height="19" viewBox="0 0 18 19" fill="none" xmlns="http://www.w3.org/2000/svg">
    <path
            d="M17.9508 5.4911C17.9087 4.53701 17.754 3.88109 17.5325 3.31272C17.3039 2.70941 16.9523 2.16927 16.4916 1.72025C16.0415 1.26424 15.4964 0.909904 14.8986 0.685462C14.3256 0.464446 13.6715 0.310159 12.7151 0.268093C11.7515 0.222465 11.4456 0.211914 9.00179 0.211914C6.55795 0.211914 6.25205 0.222465 5.29207 0.26453C4.33566 0.306596 3.67813 0.46102 3.10851 0.681899C2.5036 0.909904 1.96214 1.26068 1.51202 1.72025C1.0549 2.16927 0.699831 2.71298 0.474704 3.30929C0.253148 3.88109 0.0984846 4.53345 0.0563161 5.48753C0.0105764 6.44874 0 6.75389 0 9.19178C0 11.6297 0.0105764 11.9348 0.0527449 12.8925C0.0949133 13.8466 0.249714 14.5025 0.47127 15.0708C0.699831 15.6742 1.0549 16.2143 1.51202 16.6633C1.96214 17.1193 2.50717 17.4737 3.10494 17.6981C3.67813 17.9191 4.33209 18.0734 5.28864 18.1155C6.24848 18.1577 6.55451 18.1681 8.99836 18.1681C11.4422 18.1681 11.7481 18.1577 12.7081 18.1155C13.6645 18.0734 14.322 17.9191 14.8916 17.6981C16.1013 17.2315 17.0578 16.2775 17.5254 15.0708C17.7469 14.4991 17.9017 13.8466 17.9438 12.8925C17.986 11.9348 17.9966 11.6297 17.9966 9.19178C17.9966 6.75389 17.993 6.44874 17.9508 5.4911ZM16.3299 12.8223C16.2912 13.6993 16.1435 14.1728 16.0204 14.4885C15.718 15.2708 15.0956 15.8916 14.3114 16.1933C13.995 16.3161 13.5168 16.4634 12.6412 16.5019C11.6918 16.5441 11.407 16.5545 9.00537 16.5545C6.60369 16.5545 6.31538 16.5441 5.3694 16.5019C4.49032 16.4634 4.01562 16.3161 3.69915 16.1933C3.30892 16.0495 2.95371 15.8215 2.6654 15.5233C2.36651 15.2321 2.13795 14.8813 1.99373 14.4921C1.87066 14.1764 1.723 13.6993 1.6844 12.8259C1.6421 11.8788 1.63166 11.5946 1.63166 9.19877C1.63166 6.80294 1.6421 6.51533 1.6844 5.5718C1.723 4.69486 1.87066 4.22131 1.99373 3.90561C2.13795 3.5162 2.36651 3.162 2.66897 2.87425C2.96072 2.57609 3.31235 2.34809 3.70272 2.20435C4.01919 2.08158 4.49746 1.93428 5.37297 1.89564C6.32238 1.85357 6.60726 1.84302 9.0088 1.84302C11.414 1.84302 11.6988 1.85357 12.6448 1.89564C13.5238 1.93428 13.9985 2.08158 14.315 2.20435C14.7052 2.34809 15.0605 2.57609 15.3488 2.87425C15.6476 3.16542 15.8762 3.5162 16.0204 3.90561C16.1435 4.22131 16.2912 4.69829 16.3299 5.5718C16.3721 6.5189 16.3826 6.80294 16.3826 9.19877C16.3826 11.5946 16.3721 11.8752 16.3299 12.8223Z"
            fill="#D0CFCF"/>
    <path
            d="M9.00177 4.5791C6.449 4.5791 4.37781 6.64512 4.37781 9.1918C4.37781 11.7385 6.449 13.8045 9.00177 13.8045C11.5547 13.8045 13.6257 11.7385 13.6257 9.1918C13.6257 6.64512 11.5547 4.5791 9.00177 4.5791ZM9.00177 12.1839C7.34567 12.1839 6.00232 10.844 6.00232 9.1918C6.00232 7.53959 7.34567 6.19966 9.00177 6.19966C10.658 6.19966 12.0012 7.53959 12.0012 9.1918C12.0012 10.844 10.658 12.1839 9.00177 12.1839Z"
            fill="#D0CFCF"/>
    <path
            d="M14.8882 4.39717C14.8882 4.99185 14.4048 5.47403 13.8086 5.47403C13.2124 5.47403 12.7291 4.99185 12.7291 4.39717C12.7291 3.80236 13.2124 3.32031 13.8086 3.32031C14.4048 3.32031 14.8882 3.80236 14.8882 4.39717Z"
            fill="#D0CFCF"/>
</svg>
