<svg width="18" height="19" viewBox="0 0 18 19" fill="none" xmlns="http://www.w3.org/2000/svg">
    <path
            d="M17.9955 18.1732V18.1725H18V11.5871C18 8.36547 17.3048 5.88379 13.5293 5.88379C11.7143 5.88379 10.4963 6.87736 9.99901 7.81931H9.94651V6.18455H6.36676V18.1725H10.0943V12.2365C10.0943 10.6736 10.3913 9.16228 12.3315 9.16228C14.2433 9.16228 14.2718 10.9459 14.2718 12.3368V18.1732H17.9955Z"
            fill="#D0CFCF"/>
    <path d="M0.296997 6.18457H4.02899V18.1725H0.296997V6.18457Z" fill="#D0CFCF"/>
    <path
            d="M2.1615 0.216797C0.96825 0.216797 0 1.18268 0 2.37302C0 3.56335 0.96825 4.54944 2.1615 4.54944C3.35475 4.54944 4.323 3.56335 4.323 2.37302C4.32225 1.18268 3.354 0.216797 2.1615 0.216797V0.216797Z"
            fill="#D0CFCF"/>
</svg>
