<svg width="15" height="19" viewBox="0 0 15 19" fill="none" xmlns="http://www.w3.org/2000/svg">
    <path
            d="M7.75117 0.211914C2.69014 0.212662 0 3.36626 0 6.80492C0 8.3993 0.916201 10.3887 2.3832 11.0194C2.80168 11.2027 2.74629 10.979 3.10631 9.63979C3.13478 9.52831 3.12016 9.43179 3.02785 9.3278C0.930817 6.96877 2.6186 2.11904 7.45192 2.11904C14.4469 2.11904 13.1399 11.5327 8.66891 11.5327C7.51654 11.5327 6.65803 10.6528 6.92959 9.56422C7.25883 8.26762 7.90348 6.87375 7.90348 5.93927C7.90348 3.58398 4.2956 3.93338 4.2956 7.05406C4.2956 8.01847 4.64639 8.66939 4.64639 8.66939C4.64639 8.66939 3.48556 13.2303 3.27017 14.0825C2.90553 15.525 3.3194 17.8601 3.35556 18.0614C3.37787 18.1721 3.50556 18.2073 3.57711 18.116C3.69173 17.9701 5.09488 16.0233 5.48797 14.616C5.63106 14.1035 6.21801 12.0235 6.21801 12.0235C6.60495 12.7029 7.7204 13.2715 8.90892 13.2715C12.4445 13.2715 15 10.2488 15 6.49816C14.9877 2.90239 11.8237 0.211914 7.75117 0.211914V0.211914Z"
            fill="#D0CFCF"/>
</svg>
